<?xml version="1.0" encoding="utf-8"?>
<!-- Generator: Adobe Illustrator 21.1.0, SVG Export Plug-In . SVG Version: 6.00 Build 0)  -->
<svg version="1.1" id="Layer_1" xmlns="http://www.w3.org/2000/svg" xmlns:xlink="http://www.w3.org/1999/xlink" x="0px" y="0px"
	 viewBox="0 0 40 40" style="enable-background:new 0 0 40 40;" xml:space="preserve">
<path d="M20.5,20.4h5.1c0.3,0,0.5-0.2,0.5-0.5c0-0.3-0.2-0.5-0.5-0.5h-5.1v-5.1c0-0.3-0.2-0.5-0.5-0.5s-0.5,0.2-0.5,0.5l0,5.1h-5.1
	c-0.3,0-0.5,0.2-0.5,0.5c0,0.1,0.1,0.2,0.2,0.4c0.1,0.1,0.2,0.2,0.4,0.2h5.1v5.1c0,0.1,0.1,0.2,0.2,0.4s0.2,0.2,0.4,0.2
	c0.3,0,0.5-0.2,0.5-0.5L20.5,20.4z"/>
</svg>
