<?xml version="1.0" encoding="utf-8"?>
<!-- Generator: Adobe Illustrator 21.1.0, SVG Export Plug-In . SVG Version: 6.00 Build 0)  -->
<svg version="1.1" id="Layer_1" xmlns="http://www.w3.org/2000/svg" xmlns:xlink="http://www.w3.org/1999/xlink" x="0px" y="0px"
	 viewBox="0 0 40 40" style="enable-background:new 0 0 40 40;" xml:space="preserve">
<g>
	<path d="M20,33c-0.2,0-0.3,0-0.5-0.1l-10.4-6c-0.3-0.2-0.5-0.5-0.5-0.9V14c0-0.4,0.2-0.7,0.5-0.9l10.4-6c0.3-0.2,0.7-0.2,1,0
		l10.4,6c0.3,0.2,0.5,0.5,0.5,0.9v12c0,0.4-0.2,0.7-0.5,0.9l-10.4,6C20.3,33,20.2,33,20,33z M10.6,25.4l9.4,5.4l9.4-5.4V14.6L20,9.2
		l-9.4,5.4V25.4z"/>
</g>
</svg>
