<?xml version="1.0" encoding="utf-8"?>
<!-- Generator: Adobe Illustrator 22.1.0, SVG Export Plug-In . SVG Version: 6.00 Build 0)  -->
<svg version="1.1" id="Layer_1" xmlns="http://www.w3.org/2000/svg" xmlns:xlink="http://www.w3.org/1999/xlink" x="0px" y="0px"
	 viewBox="0 0 40 40" style="enable-background:new 0 0 40 40;" xml:space="preserve">
<style type="text/css">
	.st0{fill:#010101;}
</style>
<path class="st0" d="M19.6,7.8c0.2-0.1,0.5-0.1,0.8,0c0.1,0.1,0.2,0.1,0.3,0.2l9,9c0.4,0.4,0.4,1,0,1.4s-1,0.4-1.4,0L21,11.1v20.2
	c0,0.6-0.4,1-1,1s-1-0.4-1-1V11.1l-7.3,7.3c-0.4,0.4-1,0.4-1.4,0c-0.2-0.2-0.3-0.5-0.3-0.7s0.1-0.5,0.3-0.7l9-9
	C19.4,7.9,19.5,7.8,19.6,7.8z"/>
</svg>
