<?xml version="1.0" encoding="utf-8"?>
<!-- Generator: Adobe Illustrator 22.1.0, SVG Export Plug-In . SVG Version: 6.00 Build 0)  -->
<svg version="1.1" id="Layer_1" xmlns="http://www.w3.org/2000/svg" xmlns:xlink="http://www.w3.org/1999/xlink" x="0px" y="0px"
	 viewBox="0 0 40 40" style="enable-background:new 0 0 40 40;" xml:space="preserve">
<path d="M26.035,20.787c-0.719-0.708-0.717-2-0.715-3.369c0.002-1.584,0.005-3.38-1.226-4.614c-0.526-0.527-1.241-0.871-2.117-1.079
	C21.986,11.651,22,11.577,22,11.5c0-1.103-0.897-2-2-2s-2,0.897-2,2c0,0.077,0.014,0.151,0.023,0.226
	c-0.875,0.207-1.591,0.552-2.117,1.079c-1.231,1.233-1.229,3.029-1.226,4.614c0.002,1.369,0.004,2.661-0.658,3.317
	C12.018,22.424,11,23.779,11,26.5c0,0.553,0.448,1,1,1h4.126c0.445,1.724,2.013,3,3.874,3s3.428-1.276,3.874-3H28
	c0.552,0,1-0.447,1-1C29,23.779,27.982,22.424,26.035,20.787z M23,25.5c-0.552,0-1,0.447-1,1c0,1.103-0.897,2-2,2s-2-0.897-2-2
	c0-0.553-0.448-1-1-1h-3.937c0.178-1.204,0.775-1.995,2.305-3.287c1.318-1.296,1.315-3.156,1.312-4.797
	c-0.002-1.312-0.004-2.551,0.642-3.198C17.797,13.742,18.699,13.5,20,13.5s2.203,0.242,2.678,0.718
	c0.646,0.646,0.644,1.886,0.642,3.198c-0.002,1.641-0.005,3.501,1.369,4.849c1.484,1.25,2.072,2.033,2.249,3.235H23z"/>
</svg>
