<svg xmlns="http://www.w3.org/2000/svg" viewBox="0 0 40 40"><path d="M26.035 20.787c-.719-.708-.717-2-.715-3.369.002-1.584.005-3.38-1.226-4.614-.526-.527-1.241-.871-2.117-1.079.009-.074.023-.148.023-.225 0-1.103-.897-2-2-2s-2 .897-2 2c0 .077.014.151.023.226-.875.207-1.591.552-2.117 1.079-1.231 1.233-1.229 3.029-1.226 4.614.002 1.369.004 2.661-.658 3.317C12.018 22.424 11 23.779 11 26.5a1 1 0 0 0 1 1h4.126c.445 1.724 2.013 3 3.874 3s3.428-1.276 3.874-3H28a1 1 0 0 0 1-1c0-2.721-1.018-4.076-2.965-5.713zM23 25.5a1 1 0 0 0-1 1c0 1.103-.897 2-2 2s-2-.897-2-2a1 1 0 0 0-1-1h-3.937c.178-1.204.775-1.995 2.305-3.287 1.318-1.296 1.315-3.156 1.312-4.797-.002-1.312-.004-2.551.642-3.198.475-.476 1.377-.718 2.678-.718s2.203.242 2.678.718c.646.646.644 1.886.642 3.198-.002 1.641-.005 3.501 1.369 4.849 1.484 1.25 2.072 2.033 2.249 3.235H23z"/></svg>