<?xml version="1.0" encoding="utf-8"?>
<!-- Generator: Adobe Illustrator 22.1.0, SVG Export Plug-In . SVG Version: 6.00 Build 0)  -->
<svg version="1.1" id="Layer_1" xmlns="http://www.w3.org/2000/svg" xmlns:xlink="http://www.w3.org/1999/xlink" x="0px" y="0px"
	 viewBox="0 0 40 40" style="enable-background:new 0 0 40 40;" xml:space="preserve">
<g>
	<path d="M12,18.5c-1.654,0-3,1.346-3,3c0,0.553,0.448,1,1,1s1-0.447,1-1c0-0.551,0.449-1,1-1c0.552,0,1-0.448,1-1
		S12.552,18.5,12,18.5z"/>
	<path d="M28,18.5c-1.654,0-3,1.346-3,3c0,0.553,0.447,1,1,1s1-0.447,1-1c0-0.551,0.448-1,1-1c0.553,0,1-0.448,1-1
		S28.553,18.5,28,18.5z"/>
</g>
<path d="M28.263,14.513l-0.933-0.467C26.469,12.534,24.861,11.5,23,11.5c-1.116,0-2.136,0.38-2.969,1h-0.062
	c-0.833-0.62-1.854-1-2.969-1c-1.861,0-3.469,1.034-4.33,2.547l-0.933,0.467C8,14.653,5,17.729,5,21.5c0,3.859,3.14,7,7,7
	c2.729,0,5.168-1.591,6.301-4h3.4c1.139,2.414,3.576,4,6.3,4c3.859,0,7-3.141,7-7C35,17.729,32,14.653,28.263,14.513z
	 M16.706,23.172C16.013,25.162,14.122,26.5,12,26.5c-2.757,0-5-2.243-5-5s2.243-5,5-5s5,2.243,5,5
	C17,22.073,16.903,22.631,16.706,23.172z M20,20.5c-1.105,0-2-0.895-2-2c0-1.105,0.895-2,2-2s2,0.895,2,2
	C22,19.605,21.105,20.5,20,20.5z M28,26.5c-2.122,0-4.014-1.338-4.711-3.343C23.098,22.631,23,22.073,23,21.5c0-2.757,2.243-5,5-5
	s5,2.243,5,5S30.757,26.5,28,26.5z"/>
</svg>
