<svg xmlns="http://www.w3.org/2000/svg" viewBox="0 0 40 40"><path d="M12 18.5c-1.654 0-3 1.346-3 3a1 1 0 1 0 2 0c0-.551.449-1 1-1a1 1 0 0 0 0-2zM28 18.5c-1.654 0-3 1.346-3 3a1 1 0 1 0 2 0c0-.551.448-1 1-1a1 1 0 1 0 0-2z"/><path d="M28.263 14.513l-.933-.467C26.469 12.534 24.861 11.5 23 11.5c-1.116 0-2.136.38-2.969 1h-.062c-.833-.62-1.854-1-2.969-1-1.861 0-3.469 1.034-4.33 2.547l-.933.467C8 14.653 5 17.729 5 21.5c0 3.859 3.14 7 7 7a6.968 6.968 0 0 0 6.301-4h3.4a6.97 6.97 0 0 0 6.3 4c3.859 0 7-3.141 7-7C35 17.729 32 14.653 28.263 14.513zm-11.557 8.659A4.98 4.98 0 0 1 12 26.5c-2.757 0-5-2.243-5-5s2.243-5 5-5 5 2.243 5 5c0 .573-.097 1.131-.294 1.672zM20 20.5a2 2 0 1 1-.001-3.999A2 2 0 0 1 20 20.5zm8 6a4.983 4.983 0 0 1-4.711-3.343A4.842 4.842 0 0 1 23 21.5c0-2.757 2.243-5 5-5s5 2.243 5 5-2.243 5-5 5z"/></svg>