<?xml version="1.0" encoding="utf-8"?>
<!-- Generator: Adobe Illustrator 22.1.0, SVG Export Plug-In . SVG Version: 6.00 Build 0)  -->
<svg version="1.1" id="Layer_1" xmlns="http://www.w3.org/2000/svg" xmlns:xlink="http://www.w3.org/1999/xlink" x="0px" y="0px"
	 viewBox="0 0 40 40" style="enable-background:new 0 0 40 40;" xml:space="preserve">
<g>
	<g>
		<path d="M20,33c-0.173,0-0.346-0.045-0.5-0.134l-10.392-6c-0.31-0.179-0.5-0.509-0.5-0.866V14c0-0.357,0.19-0.688,0.5-0.866
			l10.392-6c0.309-0.178,0.691-0.178,1,0l10.393,6c0.31,0.179,0.5,0.509,0.5,0.866v12c0,0.357-0.19,0.688-0.5,0.866l-10.393,6
			C20.345,32.955,20.172,33,20,33z M10.608,25.423L20,30.845l9.393-5.423V14.577L20,9.154l-9.392,5.423V25.423z"/>
	</g>
	<g>
		<path d="M19.999,21c-0.17,0-0.342-0.043-0.499-0.134l-10.392-6C8.629,14.59,8.465,13.978,8.741,13.5
			c0.276-0.479,0.886-0.643,1.366-0.366l10.392,6c0.479,0.276,0.643,0.888,0.366,1.366C20.68,20.821,20.344,21,19.999,21z"/>
	</g>
	<g>
		<path d="M20.001,21c-0.346,0-0.682-0.179-0.867-0.5c-0.276-0.479-0.112-1.09,0.366-1.366l10.393-6
			c0.477-0.276,1.09-0.113,1.366,0.366c0.276,0.479,0.112,1.09-0.366,1.366l-10.393,6C20.342,20.957,20.171,21,20.001,21z"/>
	</g>
	<g>
		<path d="M20,33c-0.553,0-1-0.447-1-1V20c0-0.553,0.447-1,1-1s1,0.447,1,1v12C21,32.552,20.552,33,20,33z"/>
	</g>
	<g>
		<path d="M14.803,24.345c-0.553,0-1-0.447-1-1V17c0-0.553,0.447-1,1-1s1,0.447,1,1v6.346
			C15.803,23.898,15.356,24.345,14.803,24.345z"/>
	</g>
</g>
<g>
	<path d="M14.804,18c-0.346,0-0.682-0.179-0.867-0.5c-0.276-0.479-0.112-1.09,0.366-1.366l10.188-5.882
		c0.477-0.276,1.089-0.114,1.366,0.366c0.276,0.479,0.112,1.09-0.366,1.366l-10.188,5.882C15.146,17.957,14.974,18,14.804,18z"/>
</g>
</svg>
