<?xml version="1.0" encoding="utf-8"?>
<!-- Generator: Adobe Illustrator 21.1.0, SVG Export Plug-In . SVG Version: 6.00 Build 0)  -->
<svg version="1.1" id="Layer_1" xmlns="http://www.w3.org/2000/svg" xmlns:xlink="http://www.w3.org/1999/xlink" x="0px" y="0px"
	 viewBox="0 0 40 40" style="enable-background:new 0 0 40 40;" xml:space="preserve">
<path d="M31.4,13.9C31.4,13.9,31.4,13.9,31.4,13.9c0-0.2-0.1-0.3-0.1-0.4c0,0,0,0,0,0c0,0,0,0,0,0c-0.1-0.1-0.1-0.2-0.2-0.3
	c0,0,0,0-0.1-0.1c0,0,0,0-0.1,0l-10.4-6c-0.3-0.2-0.7-0.2-1,0l-10.4,6c0,0,0,0-0.1,0c0,0,0,0-0.1,0.1c-0.1,0.1-0.2,0.2-0.2,0.3
	c0,0,0,0,0,0c0,0,0,0,0,0c-0.1,0.1-0.1,0.2-0.1,0.3c0,0,0,0.1,0,0.1c0,0,0,0.1,0,0.1v12c0,0.4,0.2,0.7,0.5,0.9l10.4,6c0,0,0,0,0.1,0
	c0,0,0.1,0,0.1,0c0.1,0,0.2,0.1,0.3,0.1s0.2,0,0.3-0.1c0,0,0.1,0,0.1,0c0,0,0.1,0,0.1,0l10.4-6c0.3-0.2,0.5-0.5,0.5-0.9L31.4,13.9
	C31.4,14,31.4,13.9,31.4,13.9z M20,18.8L16.8,17l3.7-2.1c0,0,0,0,0,0l4.7-2.7l3.2,1.8L20,18.8z M20,9.2l3.2,1.8l-8.4,4.8L11.6,14
	L20,9.2z M10.6,15.7l3.2,1.8v5.8c0,0.6,0.4,1,1,1s1-0.4,1-1v-4.6l3.2,1.8v9.7l-8.4-4.8V15.7z M21,30.3v-9.7l8.4-4.8v9.7L21,30.3z"/>
</svg>
