<svg xmlns="http://www.w3.org/2000/svg" viewBox="0 0 40 40">
    <path d="M20 33a1 1 0 0 1-.5-.134l-10.392-6a1 1 0 0 1-.5-.866V14c0-.357.19-.688.5-.866l10.392-6a1.003 1.003 0 0 1 1 0l10.393 6a1 1 0 0 1 .5.866v12c0 .357-.19.688-.5.866l-10.393 6A1.005 1.005 0 0 1 20 33zm-9.392-7.577L20 30.845l9.393-5.423V14.577L20 9.154l-9.392 5.423v10.846z"/>
    <path d="M19.999 21a.992.992 0 0 1-.499-.134l-10.392-6a1 1 0 1 1 .999-1.732l10.392 6a.999.999 0 0 1-.5 1.866z"/>
    <path d="M20.001 21a1 1 0 0 1-.501-1.866l10.393-6a1 1 0 1 1 1 1.732l-10.393 6a.995.995 0 0 1-.499.134z"/>
    <path d="M20 33a1 1 0 0 1-1-1V20a1 1 0 1 1 2 0v12a1 1 0 0 1-1 1zm-5.197-8.655a1 1 0 0 1-1-1V17a1 1 0 1 1 2 0v6.346a.999.999 0 0 1-1 .999z"/>
    <path d="M14.804 18a1 1 0 0 1-.501-1.866l10.188-5.882a1 1 0 1 1 1 1.732l-10.188 5.882a.992.992 0 0 1-.499.134z"/>
</svg>
