<?xml version="1.0" encoding="utf-8"?>
<!-- Generator: Adobe Illustrator 21.1.0, SVG Export Plug-In . SVG Version: 6.00 Build 0)  -->
<svg version="1.1" id="Layer_1" xmlns="http://www.w3.org/2000/svg" xmlns:xlink="http://www.w3.org/1999/xlink" x="0px" y="0px"
	 viewBox="0 0 40 40" style="enable-background:new 0 0 40 40;" xml:space="preserve">
<path d="M32.7,12.3l-2.8-2.8c-0.2-0.2-0.4-0.3-0.7-0.3s-0.5,0.1-0.7,0.3L17.3,20.6c-0.7-0.1-1.4-0.2-2.1-0.1
	c-0.9,0.1-1.6,0.5-2.2,1.2c-0.6,0.7-0.8,1.6-0.7,2.5c0,0.3,0,0.9-0.4,1.2c-0.6,0.5-2,0.4-3.6-0.2C8,25,7.6,25.1,7.3,25.4
	c-0.3,0.3-0.4,0.7-0.2,1.1c0.9,2.1,4,4.3,7,4.3c0.7,0,1.4-0.1,2.1-0.4c2.6-1.1,4.3-3,4.7-4.9l11.8-11.8
	C33.1,13.3,33.1,12.7,32.7,12.3z M15.4,28.6c-1.5,0.6-3.3,0-4.6-0.9c1.1,0,1.9-0.4,2.4-0.8c0.9-0.7,1.3-1.8,1.1-3.1
	c0-0.3,0.1-0.7,0.3-1c0.2-0.2,0.5-0.4,0.8-0.4c1.7-0.1,3.1,0.4,3.5,1.4C19.5,25.4,17.9,27.5,15.4,28.6z M20.6,23
	c-0.3-0.6-0.7-1.1-1.3-1.5l9.8-9.8l1.4,1.4L20.6,23z"/>
</svg>
