<?xml version="1.0" encoding="utf-8"?>
<!-- Generator: Adobe Illustrator 22.1.0, SVG Export Plug-In . SVG Version: 6.00 Build 0)  -->
<svg version="1.1" id="Layer_1" xmlns="http://www.w3.org/2000/svg" xmlns:xlink="http://www.w3.org/1999/xlink" x="0px" y="0px"
	 viewBox="0 0 40 40" style="enable-background:new 0 0 40 40;" xml:space="preserve">
<g>
	<path d="M28,8h-2c-0.6,0-1,0.4-1,1v0c0,0.6,0.4,1,1,1h2c0.6,0,1-0.4,1-1v0C29,8.4,28.6,8,28,8z"/>
	<path d="M15,8h-2c-0.6,0-1,0.4-1,1v0c0,0.6,0.4,1,1,1h2c0.6,0,1-0.4,1-1v0C16,8.4,15.6,8,15,8z"/>
	<path d="M32,10h-1c0,1.1-0.9,2-2,2h-4c-1.1,0-2-0.9-2-2h-5c0,1.1-0.9,2-2,2h-4c-1.1,0-2-0.9-2-2H8c-0.6,0-1,0.4-1,1v22
		c0,0.6,0.4,1,1,1h24c0.6,0,1-0.4,1-1V11C33,10.4,32.6,10,32,10z M16,15h8c0.6,0,1,0.4,1,1s-0.4,1-1,1h-8c-0.6,0-1-0.4-1-1
		S15.4,15,16,15z M31,32H9V20h22V32z"/>
</g>
</svg>
