<?xml version="1.0" encoding="utf-8"?>
<!-- Generator: Adobe Illustrator 22.1.0, SVG Export Plug-In . SVG Version: 6.00 Build 0)  -->
<svg version="1.1" id="Layer_1" xmlns="http://www.w3.org/2000/svg" xmlns:xlink="http://www.w3.org/1999/xlink" x="0px" y="0px"
	 viewBox="0 0 40 40" style="enable-background:new 0 0 40 40;" xml:space="preserve">
<g>
	<path d="M30,30H10c-1.7,0-3-1.3-3-3V16c0-1.7,1.3-3,3-3h7c0-1.7,1.3-3,3-3h5c1.7,0,3,1.3,3,3h2c1.7,0,3,1.3,3,3v11
		C33,28.7,31.7,30,30,30z M10,15c-0.5,0-1,0.4-1,1v11c0,0.5,0.4,1,1,1h20c0.5,0,1-0.4,1-1V16c0-0.5-0.4-1-1-1h-3c-0.6,0-1-0.4-1-1
		v-1c0-0.6-0.4-1-1-1h-5c-0.6,0-1,0.4-1,1v1c0,0.6-0.4,1-1,1H10z"/>
	<path d="M16,25.5c-2.2,0-4-1.8-4-4c0-2.2,1.8-4,4-4s4,1.8,4,4C20,23.7,18.2,25.5,16,25.5z M16,19.5c-1.1,0-2,0.9-2,2
		c0,1.1,0.9,2,2,2s2-0.9,2-2C18,20.4,17.1,19.5,16,19.5z"/>
	<path d="M27,19.5h-4c-0.6,0-1-0.4-1-1s0.4-1,1-1h4c0.6,0,1,0.4,1,1S27.6,19.5,27,19.5z"/>
</g>
</svg>
