<svg xmlns="http://www.w3.org/2000/svg" viewBox="0 0 40 40"><path d="M30 30H10c-1.7 0-3-1.3-3-3V16c0-1.7 1.3-3 3-3h7c0-1.7 1.3-3 3-3h5c1.7 0 3 1.3 3 3h2c1.7 0 3 1.3 3 3v11c0 1.7-1.3 3-3 3zM10 15c-.5 0-1 .4-1 1v11c0 .5.4 1 1 1h20c.5 0 1-.4 1-1V16c0-.5-.4-1-1-1h-3c-.6 0-1-.4-1-1v-1c0-.6-.4-1-1-1h-5c-.6 0-1 .4-1 1v1c0 .6-.4 1-1 1h-8z"/><path d="M16 25.5c-2.2 0-4-1.8-4-4s1.8-4 4-4 4 1.8 4 4-1.8 4-4 4zm0-6c-1.1 0-2 .9-2 2s.9 2 2 2 2-.9 2-2-.9-2-2-2zM27 19.5h-4c-.6 0-1-.4-1-1s.4-1 1-1h4c.6 0 1 .4 1 1s-.4 1-1 1z"/></svg>