<?xml version="1.0" encoding="utf-8"?>
<!-- Generator: Adobe Illustrator 22.1.0, SVG Export Plug-In . SVG Version: 6.00 Build 0)  -->
<svg version="1.1" id="Layer_1" xmlns="http://www.w3.org/2000/svg" xmlns:xlink="http://www.w3.org/1999/xlink" x="0px" y="0px"
	 viewBox="0 0 40 40" style="enable-background:new 0 0 40 40;" xml:space="preserve">
<g>
	<path d="M26.4,28.1H12.2c-2.9,0-5.2-2.3-5.2-5.2s2.3-5.2,5.2-5.2c0.3,0,0.5,0,0.8,0.1c1-3.3,4.1-5.7,7.7-5.7c2.4,0,4.6,1,6.1,2.8
		c3.4,0.3,6.2,3.1,6.2,6.6C33,25.1,30,28.1,26.4,28.1z M12.2,19.6C10.5,19.6,9,21,9,22.8s1.5,3.2,3.2,3.2h14.1
		c2.6,0,4.6-2.1,4.6-4.6s-2.1-4.6-4.6-4.6h-0.5l-0.3-0.4c-1.2-1.5-2.9-2.4-4.8-2.4c-2.9,0-5.4,2-5.9,4.8c0,0.1,0,0.2,0,0.2l-0.2,1.3
		l-1.2-0.5C13,19.7,12.6,19.6,12.2,19.6z"/>
</g>
</svg>
