<?xml version="1.0" encoding="utf-8"?>
<!-- Generator: Adobe Illustrator 22.1.0, SVG Export Plug-In . SVG Version: 6.00 Build 0)  -->
<svg version="1.1" id="Layer_1" xmlns="http://www.w3.org/2000/svg" xmlns:xlink="http://www.w3.org/1999/xlink" x="0px" y="0px"
	 viewBox="0 0 40 40" style="enable-background:new 0 0 40 40;" xml:space="preserve">
<g>
	<g>
		<g>
			<path d="M8.001,21c-0.367,0-0.72-0.202-0.896-0.553c-0.247-0.494-0.047-1.095,0.447-1.342l6-3
				c0.496-0.246,1.095-0.047,1.342,0.447c0.247,0.494,0.047,1.095-0.447,1.342l-6,3C8.304,20.966,8.151,21,8.001,21z"/>
		</g>
		<g>
			<path d="M13.999,24c-0.15,0-0.303-0.034-0.446-0.105l-6-3c-0.494-0.247-0.694-0.848-0.447-1.342
				c0.247-0.493,0.847-0.693,1.342-0.447l6,3c0.494,0.247,0.694,0.848,0.447,1.342C14.719,23.798,14.366,24,13.999,24z"/>
		</g>
	</g>
	<g>
		<g>
			<path d="M31.999,21c-0.15,0-0.303-0.034-0.446-0.105l-6-3c-0.494-0.247-0.694-0.848-0.447-1.342
				c0.248-0.494,0.847-0.692,1.342-0.447l6,3c0.494,0.247,0.694,0.848,0.447,1.342C32.719,20.798,32.366,21,31.999,21z"/>
		</g>
		<g>
			<path d="M26.001,24c-0.367,0-0.72-0.202-0.896-0.553c-0.247-0.494-0.047-1.095,0.447-1.342l6-3
				c0.495-0.246,1.094-0.048,1.342,0.447c0.247,0.494,0.047,1.095-0.447,1.342l-6,3C26.304,23.966,26.151,24,26.001,24z"/>
		</g>
	</g>
	<g>
		<path d="M18.501,27c-0.081,0-0.162-0.01-0.244-0.03c-0.536-0.134-0.861-0.677-0.728-1.212l3-12
			c0.135-0.536,0.68-0.861,1.213-0.728c0.536,0.134,0.862,0.677,0.727,1.212l-3,12C19.356,26.697,18.949,27,18.501,27z"/>
	</g>
</g>
</svg>
