<?xml version="1.0" encoding="utf-8"?>
<!-- Generator: Adobe Illustrator 21.1.0, SVG Export Plug-In . SVG Version: 6.00 Build 0)  -->
<svg version="1.1" id="Layer_1" xmlns="http://www.w3.org/2000/svg" xmlns:xlink="http://www.w3.org/1999/xlink" x="0px" y="0px"
	 viewBox="0 0 40 40" style="enable-background:new 0 0 40 40;" xml:space="preserve">
<g>
	<path d="M14.9,16.6c-0.2-0.5-0.8-0.7-1.3-0.4l-6,3c0,0-0.1,0-0.1,0.1c-0.1,0-0.1,0.1-0.2,0.1c0,0-0.1,0.1-0.1,0.2
		c0,0-0.1,0.1-0.1,0.1c0,0,0,0,0,0.1c0,0.1,0,0.1-0.1,0.2c0,0.1,0,0.1,0,0.2c0,0.1,0,0.1,0,0.2c0,0.1,0,0.1,0.1,0.2c0,0,0,0,0,0.1
		c0,0.1,0.1,0.1,0.1,0.2c0,0,0,0,0,0.1c0.1,0.1,0.2,0.2,0.3,0.2c0,0,0,0,0,0l6,3C13.7,24,13.8,24,14,24c0.4,0,0.7-0.2,0.9-0.6
		c0.2-0.5,0-1.1-0.4-1.3L10.2,20l4.2-2.1C14.9,17.6,15.1,17,14.9,16.6z"/>
	<path d="M33,20c0-0.1,0-0.1,0-0.2c0-0.1,0-0.1-0.1-0.2c0,0,0,0,0-0.1c0,0,0-0.1-0.1-0.1c0-0.1-0.1-0.1-0.1-0.2c0,0-0.1-0.1-0.2-0.1
		c0,0-0.1-0.1-0.1-0.1l-6-3c-0.5-0.2-1.1,0-1.3,0.4c-0.2,0.5,0,1.1,0.4,1.3l4.2,2.1l-4.2,2.1c-0.5,0.2-0.7,0.8-0.4,1.3
		c0.2,0.4,0.5,0.6,0.9,0.6c0.2,0,0.3,0,0.4-0.1l6-3c0,0,0,0,0,0c0.1-0.1,0.2-0.1,0.3-0.2c0,0,0,0,0-0.1c0,0,0.1-0.1,0.1-0.2
		c0,0,0,0,0-0.1c0-0.1,0-0.1,0.1-0.2C33,20.1,33,20.1,33,20z"/>
	<path d="M21.7,13c-0.5-0.1-1.1,0.2-1.2,0.7l-3,12c-0.1,0.5,0.2,1.1,0.7,1.2c0.1,0,0.2,0,0.2,0c0.4,0,0.9-0.3,1-0.8l3-12
		C22.6,13.7,22.3,13.2,21.7,13z"/>
</g>
</svg>
