<svg xmlns="http://www.w3.org/2000/svg" viewBox="0 0 40 40">
    <path d="M8.001 21a1 1 0 0 1-.449-1.895l6-3a1 1 0 0 1 .895 1.789l-6 3a.99.99 0 0 1-.446.106z"/>
    <path d="M13.999 24c-.15 0-.303-.034-.446-.105l-6-3a1 1 0 0 1 .895-1.789l6 3A1 1 0 0 1 13.999 24zm18-3c-.15 0-.303-.034-.446-.105l-6-3a1 1 0 0 1 .895-1.789l6 3A1 1 0 0 1 31.999 21z"/>
    <path d="M26.001 24a1 1 0 0 1-.449-1.895l6-3a1 1 0 0 1 .895 1.789l-6 3a.99.99 0 0 1-.446.106zM18.501 27a1 1 0 0 1-.972-1.242l3-12c.135-.536.68-.861 1.213-.728a.998.998 0 0 1 .727 1.212l-3 12a.998.998 0 0 1-.968.758z"/>
</svg>
