<?xml version="1.0" encoding="utf-8"?>
<!-- Generator: Adobe Illustrator 21.1.0, SVG Export Plug-In . SVG Version: 6.00 Build 0)  -->
<svg version="1.1" id="Layer_1" xmlns="http://www.w3.org/2000/svg" xmlns:xlink="http://www.w3.org/1999/xlink" x="0px" y="0px"
	 viewBox="0 0 40 40" style="enable-background:new 0 0 40 40;" xml:space="preserve">
<path d="M20.7,20l3.6-3.6c0.2-0.2,0.2-0.5,0-0.7s-0.5-0.2-0.7,0L20,19.3l-3.6-3.6c-0.2-0.2-0.5-0.2-0.7,0s-0.2,0.5,0,0.7l3.6,3.6
	l-3.6,3.6c-0.2,0.2-0.2,0.5,0,0.7c0.1,0.1,0.2,0.1,0.4,0.1s0.3,0,0.4-0.1l3.6-3.6l3.6,3.6c0.1,0.1,0.2,0.1,0.4,0.1s0.3,0,0.4-0.1
	c0.2-0.2,0.2-0.5,0-0.7L20.7,20z"/>
</svg>
