<svg xmlns="http://www.w3.org/2000/svg" viewBox="0 0 40 40"><path d="M20 7C12.8 7 7 12.8 7 20s5.8 13 13 13 13-5.8 13-13S27.2 7 20 7zm0 24c-6.1 0-11-4.9-11-11S13.9 9 20 9s11 4.9 11 11-4.9 11-11 11z"/><path d="M21 17.2V12c0-.6-.4-1-1-1s-1 .4-1 1v5.2c-1.2.4-2 1.5-2 2.8 0 1.7 1.3 3 3 3s3-1.3 3-3c0-1.3-.8-2.4-2-2.8zM20 21c-.6 0-1-.4-1-1s.4-1 1-1 1 .4 1 1-.4 1-1 1zM15 20c0-.6-.4-1-1-1h-2c-.6 0-1 .4-1 1s.4 1 1 1h2c.6 0 1-.4 1-1zM15.1 16.5c.2.2.5.3.7.3s.5-.1.7-.3c.4-.4.4-1 0-1.4l-1.4-1.4c-.4-.4-1-.4-1.4 0s-.4 1 0 1.4l1.4 1.4zM24.2 16.8c.3 0 .5-.1.7-.3l1.4-1.4c.4-.4.4-1 0-1.4s-1-.4-1.4 0L23.5 15c-.4.4-.4 1 0 1.4.2.3.5.4.7.4zM28 19h-2c-.6 0-1 .4-1 1s.4 1 1 1h2c.6 0 1-.4 1-1s-.4-1-1-1zM24.9 23.5c-.4-.4-1-.4-1.4 0s-.4 1 0 1.4l1.4 1.4c.2.2.5.3.7.3s.5-.1.7-.3c.4-.4.4-1 0-1.4l-1.4-1.4zM15 23.5L13.6 25c-.4.4-.4 1 0 1.4.2.2.5.3.7.3s.5-.1.7-.3l1.4-1.4c.4-.4.4-1 0-1.4-.3-.5-1-.5-1.4-.1z"/></svg>