<?xml version="1.0" encoding="utf-8"?>
<!-- Generator: Adobe Illustrator 21.1.0, SVG Export Plug-In . SVG Version: 6.00 Build 0)  -->
<svg version="1.1" id="Layer_1" xmlns="http://www.w3.org/2000/svg" xmlns:xlink="http://www.w3.org/1999/xlink" x="0px" y="0px"
	 viewBox="0 0 40 40" style="enable-background:new 0 0 40 40;" xml:space="preserve">
<g>
	<path d="M20,7C12.8,7,7,12.8,7,20c0,7.2,5.8,13,13,13c7.2,0,13-5.8,13-13C33,12.8,27.2,7,20,7z M20,31c-6.1,0-11-4.9-11-11
		S13.9,9,20,9s11,4.9,11,11S26.1,31,20,31z"/>
	<path d="M21,17.2V12c0-0.6-0.4-1-1-1s-1,0.4-1,1v5.2c-1.2,0.4-2,1.5-2,2.8c0,1.7,1.3,3,3,3s3-1.3,3-3C23,18.7,22.2,17.6,21,17.2z
		 M20,21c-0.6,0-1-0.4-1-1s0.4-1,1-1s1,0.4,1,1S20.6,21,20,21z"/>
	<path d="M15,20c0-0.6-0.4-1-1-1h-2c-0.6,0-1,0.4-1,1s0.4,1,1,1h2C14.6,21,15,20.6,15,20z"/>
	<path d="M15.1,16.5c0.2,0.2,0.5,0.3,0.7,0.3s0.5-0.1,0.7-0.3c0.4-0.4,0.4-1,0-1.4l-1.4-1.4c-0.4-0.4-1-0.4-1.4,0s-0.4,1,0,1.4
		L15.1,16.5z"/>
	<path d="M24.2,16.8c0.3,0,0.5-0.1,0.7-0.3l1.4-1.4c0.4-0.4,0.4-1,0-1.4s-1-0.4-1.4,0L23.5,15c-0.4,0.4-0.4,1,0,1.4
		C23.7,16.7,24,16.8,24.2,16.8z"/>
	<path d="M28,19h-2c-0.6,0-1,0.4-1,1s0.4,1,1,1h2c0.6,0,1-0.4,1-1S28.6,19,28,19z"/>
	<path d="M24.9,23.5c-0.4-0.4-1-0.4-1.4,0s-0.4,1,0,1.4l1.4,1.4c0.2,0.2,0.5,0.3,0.7,0.3s0.5-0.1,0.7-0.3c0.4-0.4,0.4-1,0-1.4
		L24.9,23.5z"/>
	<path d="M15,23.5L13.6,25c-0.4,0.4-0.4,1,0,1.4c0.2,0.2,0.5,0.3,0.7,0.3s0.5-0.1,0.7-0.3l1.4-1.4c0.4-0.4,0.4-1,0-1.4
		C16.1,23.1,15.4,23.1,15,23.5z"/>
</g>
</svg>
