<svg xmlns="http://www.w3.org/2000/svg" viewBox="0 0 40 40">
    <path d="M20 7C12.8 7 7 12.8 7 20s5.8 13 13 13 13-5.8 13-13S27.2 7 20 7zm0 24c-6.1 0-11-4.9-11-11S13.9 9 20 9s11 4.9 11 11-4.9 11-11 11z"/>
    <path d="M20.5 17.6V12c0-.3-.2-.5-.5-.5s-.5.2-.5.5v5.6c-1.1.2-2 1.2-2 2.4 0 1.4 1.1 2.5 2.5 2.5s2.5-1.1 2.5-2.5c0-1.2-.9-2.2-2-2.4zM14.5 20c0-.3-.2-.5-.5-.5h-2c-.3 0-.5.2-.5.5s.2.5.5.5h2c.3 0 .5-.2.5-.5zM14.7 14c-.2-.2-.5-.2-.7 0s-.2.5 0 .7l1.4 1.4c.1.1.2.1.4.1s.3 0 .4-.1c.2-.2.2-.5 0-.7L14.7 14zM24.2 16.3c.1 0 .3 0 .4-.1l1.4-1.4c.2-.2.2-.5 0-.7s-.5-.2-.7 0l-1.4 1.4c-.2.2-.2.5 0 .7.1 0 .2.1.3.1zM28 19.5h-2c-.3 0-.5.2-.5.5s.2.5.5.5h2c.3 0 .5-.2.5-.5s-.2-.5-.5-.5zM24.6 23.9c-.2-.2-.5-.2-.7 0s-.2.5 0 .7l1.4 1.4c.1.1.2.1.4.1s.3 0 .4-.1c.2-.2.2-.5 0-.7l-1.5-1.4zM15.4 23.9L14 25.3c-.2.2-.2.5 0 .7.1.1.2.1.4.1s.3 0 .4-.1l1.4-1.4c.2-.2.2-.5 0-.7s-.6-.2-.8 0z"/>
</svg>
