<svg xmlns="http://www.w3.org/2000/svg" viewBox="0 0 40 40">
    <path d="M20 30c-4.646 0-8.607-1.4-9.857-3.485a1 1 0 0 1 1.715-1.029C12.588 26.704 15.69 28 20 28s7.411-1.296 8.143-2.515a1 1 0 1 1 1.715 1.029C28.607 28.6 24.645 30 20 30z"/>
    <path d="M20 26c-4.646 0-8.607-1.4-9.857-3.485a1 1 0 0 1 1.715-1.029C12.588 22.704 15.69 24 20 24s7.411-1.296 8.143-2.515a1 1 0 1 1 1.715 1.029C28.607 24.6 24.645 26 20 26z"/>
    <path d="M20 12c4.418 0 8 1.791 8 4s-3.582 4-8 4-8-1.791-8-4 3.582-4 8-4m0-2c-5.701 0-10 2.579-10 6s4.299 6 10 6 10-2.579 10-6-4.299-6-10-6z"/>
</svg>
