<?xml version="1.0" encoding="utf-8"?>
<!-- Generator: Adobe Illustrator 22.1.0, SVG Export Plug-In . SVG Version: 6.00 Build 0)  -->
<svg version="1.1" id="Layer_1" xmlns="http://www.w3.org/2000/svg" xmlns:xlink="http://www.w3.org/1999/xlink" x="0px" y="0px"
	 viewBox="0 0 40 40" style="enable-background:new 0 0 40 40;" xml:space="preserve">
<g>
	<g>
		<path d="M20,30c-4.646,0-8.607-1.4-9.857-3.485c-0.284-0.474-0.13-1.088,0.343-1.372c0.475-0.285,1.087-0.13,1.372,0.343
			C12.588,26.704,15.69,28,20,28s7.411-1.296,8.143-2.515c0.284-0.473,0.898-0.628,1.372-0.343c0.474,0.284,0.627,0.898,0.343,1.372
			C28.607,28.6,24.645,30,20,30z"/>
	</g>
	<g>
		<path d="M20,26c-4.646,0-8.607-1.4-9.857-3.485c-0.284-0.474-0.13-1.088,0.343-1.372c0.475-0.284,1.087-0.131,1.372,0.343
			C12.588,22.704,15.69,24,20,24s7.411-1.296,8.143-2.515c0.284-0.474,0.898-0.627,1.372-0.343s0.627,0.898,0.343,1.372
			C28.607,24.6,24.645,26,20,26z"/>
	</g>
	<g>
		<path d="M20,12c4.418,0,8,1.791,8,4s-3.582,4-8,4s-8-1.791-8-4S15.582,12,20,12 M20,10c-5.701,0-10,2.579-10,6s4.299,6,10,6
			s10-2.579,10-6S25.701,10,20,10L20,10z"/>
	</g>
</g>
</svg>
