<?xml version="1.0" encoding="utf-8"?>
<!-- Generator: Adobe Illustrator 21.1.0, SVG Export Plug-In . SVG Version: 6.00 Build 0)  -->
<svg version="1.1" id="Layer_1" xmlns="http://www.w3.org/2000/svg" xmlns:xlink="http://www.w3.org/1999/xlink" x="0px" y="0px"
	 viewBox="0 0 40 40" style="enable-background:new 0 0 40 40;" xml:space="preserve">
<g>
	<path d="M20,26c-3.3,0-6.2-0.9-8-2.3c0,0.1,0,0.2,0,0.3c0,2.2,3.6,4,8,4s8-1.8,8-4c0-0.1,0-0.2,0-0.3C26.2,25.1,23.3,26,20,26z"/>
	<ellipse cx="20" cy="16" rx="8" ry="4"/>
	<path d="M20,22c-3.3,0-6.2-0.9-8-2.3c0,0.1,0,0.2,0,0.3c0,2.2,3.6,4,8,4s8-1.8,8-4c0-0.1,0-0.2,0-0.3C26.2,21.1,23.3,22,20,22z"/>
</g>
</svg>
