<svg xmlns="http://www.w3.org/2000/svg" viewBox="0 0 40 40">
    <path d="M19.303 28.569c-1.511-.139-2.783-.581-3.816-1.328a5.95 5.95 0 0 1-1.885-2.267.912.912 0 0 1 .396-1.211l.263-.135c.464-.238 1.01-.022 1.23.45.254.546.63 1.032 1.129 1.456a5.642 5.642 0 0 0 2.683 1.263v-6.042c-1.13-.244-2.062-.509-2.8-.795a4.492 4.492 0 0 1-1.837-1.289c-.486-.573-.729-1.337-.729-2.292 0-.868.217-1.659.651-2.371.435-.711 1.056-1.297 1.863-1.757.807-.46 1.758-.733 2.852-.821V9.698a.898.898 0 1 1 1.796 0v1.759c1.286.104 2.349.447 3.191 1.029.648.447 1.225 1.056 1.734 1.826a.914.914 0 0 1-.182 1.227l-.206.162c-.435.342-1.063.202-1.339-.278-.311-.539-.647-.967-1.01-1.284-.556-.485-1.286-.79-2.188-.911v6.121c1.129.243 2.062.508 2.8.794a4.482 4.482 0 0 1 1.849 1.315c.495.59.743 1.381.743 2.371 0 1.336-.486 2.426-1.459 3.268-.972.843-2.283 1.332-3.933 1.471v1.733a.898.898 0 1 1-1.796 0v-1.732zm0-15.367c-1.112.104-1.953.417-2.527.937-.573.521-.86 1.216-.86 2.084 0 .782.29 1.372.872 1.772s1.42.729 2.514.989v-5.782zm5.234 10.783c0-.798-.299-1.406-.898-1.823-.6-.417-1.446-.756-2.54-1.016v5.704c2.293-.191 3.438-1.146 3.438-2.865z"/>
</svg>
