<?xml version="1.0" encoding="utf-8"?>
<!-- Generator: Adobe Illustrator 22.1.0, SVG Export Plug-In . SVG Version: 6.00 Build 0)  -->
<svg version="1.1" id="Layer_1" xmlns="http://www.w3.org/2000/svg" xmlns:xlink="http://www.w3.org/1999/xlink" x="0px" y="0px"
	 viewBox="0 0 40 40" style="enable-background:new 0 0 40 40;" xml:space="preserve">
<g>
	<path d="M19.303,28.569c-1.511-0.139-2.783-0.581-3.816-1.328c-0.805-0.581-1.433-1.337-1.885-2.267
		c-0.216-0.445-0.044-0.985,0.396-1.211l0.263-0.135c0.464-0.238,1.01-0.022,1.23,0.45c0.254,0.546,0.63,1.032,1.129,1.456
		c0.764,0.652,1.659,1.073,2.683,1.263v-6.042c-1.13-0.244-2.062-0.509-2.8-0.795c-0.739-0.286-1.35-0.716-1.837-1.289
		c-0.486-0.573-0.729-1.337-0.729-2.292c0-0.868,0.217-1.659,0.651-2.371c0.435-0.711,1.056-1.297,1.863-1.757
		c0.807-0.46,1.758-0.733,2.852-0.821V9.698c0-0.496,0.402-0.898,0.898-0.898h0c0.496,0,0.898,0.402,0.898,0.898v1.759
		c1.286,0.104,2.349,0.447,3.191,1.029c0.648,0.447,1.225,1.056,1.734,1.826c0.263,0.398,0.194,0.932-0.182,1.227l-0.206,0.162
		c-0.435,0.342-1.063,0.202-1.339-0.278c-0.311-0.539-0.647-0.967-1.01-1.284c-0.556-0.485-1.286-0.79-2.188-0.911v6.121
		c1.129,0.243,2.062,0.508,2.8,0.794c0.739,0.286,1.354,0.725,1.849,1.315c0.495,0.59,0.743,1.381,0.743,2.371
		c0,1.336-0.486,2.426-1.459,3.268c-0.972,0.843-2.283,1.332-3.933,1.471v1.733c0,0.496-0.402,0.898-0.898,0.898h0
		c-0.496,0-0.898-0.402-0.898-0.898V28.569z M19.303,13.202c-1.112,0.104-1.953,0.417-2.527,0.937
		c-0.573,0.521-0.86,1.216-0.86,2.084c0,0.782,0.29,1.372,0.872,1.772s1.42,0.729,2.514,0.989V13.202z M24.537,23.985
		c0-0.798-0.299-1.406-0.898-1.823c-0.6-0.417-1.446-0.756-2.54-1.016v5.704C23.392,26.659,24.537,25.704,24.537,23.985z"/>
</g>
</svg>
