<?xml version="1.0" encoding="utf-8"?>
<!-- Generator: Adobe Illustrator 21.1.0, SVG Export Plug-In . SVG Version: 6.00 Build 0)  -->
<svg version="1.1" id="Layer_1" xmlns="http://www.w3.org/2000/svg" xmlns:xlink="http://www.w3.org/1999/xlink" x="0px" y="0px"
	 viewBox="0 0 40 40" style="enable-background:new 0 0 40 40;" xml:space="preserve">
<g>
	<path d="M26.7,12.3c-0.2,0-0.3,0-0.5,0C24.6,10.2,22.3,9,19.7,9c-3.1,0-6,1.8-7.3,4.7c-3,0.1-5.4,2.6-5.4,5.7
		c0,3.1,2.5,5.7,5.7,5.7H16c0.6,0,1-0.4,1-1s-0.4-1-1-1h-3.3c-2,0-3.7-1.6-3.7-3.7s1.6-3.7,3.7-3.7c0,0,0.1,0,0.1,0
		c0.1,0,0.1,0,0.2,0c0.5,0,0.9-0.2,1-0.7c0.8-2.4,3.1-4,5.7-4c2.1,0,4,1.1,5.1,2.9c0.2,0.4,0.6,0.5,1,0.5c0.3-0.1,0.6-0.1,0.8-0.1
		c2.4,0,4.3,1.9,4.3,4.3S29.1,23,26.7,23H24c-0.6,0-1,0.4-1,1s0.4,1,1,1h2.7c3.5,0,6.3-2.8,6.3-6.3S30.2,12.3,26.7,12.3z"/>
	<path d="M24,27.3l-3,0l0-9.3c0-0.6-0.4-1-1-1c0,0,0,0,0,0c-0.6,0-1,0.4-1,1l0,9.3l-3,0c-0.3,0-0.5,0.2-0.7,0.4
		c-0.1,0.3,0,0.6,0.2,0.8l4,4c0.1,0.1,0.3,0.2,0.5,0.2s0.4-0.1,0.5-0.2l4-4c0.2-0.2,0.3-0.5,0.2-0.8C24.5,27.5,24.3,27.3,24,27.3z"
		/>
</g>
</svg>
