<svg xmlns="http://www.w3.org/2000/svg" viewBox="0 0 40 40"><path d="M24 26.504l-2.999-.001.005-9.293a1 1 0 0 0-.999-1h-.001a1 1 0 0 0-1 1l-.005 9.293L16 26.5a.71.71 0 0 0-.5 1.208l3.998 4.002a.705.705 0 0 0 1 0l4.002-3.998a.707.707 0 0 0-.5-1.208z"/><path d="M26.842 10.925a7.968 7.968 0 0 0-6.136-2.842c-3.563 0-6.696 2.366-7.71 5.703A5.243 5.243 0 0 0 7 18.966a5.242 5.242 0 0 0 5.235 5.235H16a1 1 0 1 0 0-2h-3.765C10.451 22.202 9 20.75 9 18.966s1.451-3.235 3.235-3.235c.396 0 .779.071 1.137.212a1 1 0 0 0 1.356-.789c.01-.07.02-.135.039-.224a6.08 6.08 0 0 1 5.938-4.847c1.923 0 3.687.883 4.839 2.423.189.252.492.401.808.401 2.562 0 4.647 2.084 4.647 4.647s-2.085 4.647-4.647 4.647H24a1 1 0 1 0 0 2h2.353A6.655 6.655 0 0 0 33 17.554c0-3.498-2.717-6.374-6.158-6.629z"/></svg>