<?xml version="1.0" encoding="utf-8"?>
<!-- Generator: Adobe Illustrator 22.1.0, SVG Export Plug-In . SVG Version: 6.00 Build 0)  -->
<svg version="1.1" id="Layer_1" xmlns="http://www.w3.org/2000/svg" xmlns:xlink="http://www.w3.org/1999/xlink" x="0px" y="0px"
	 viewBox="0 0 40 40" style="enable-background:new 0 0 40 40;" xml:space="preserve">
<g>
	<path d="M24,26.504l-2.999-0.001l0.005-9.293c0-0.552-0.447-1-0.999-1c-0.001,0-0.001,0-0.001,0c-0.552,0-1,0.447-1,1l-0.005,9.293
		L16,26.5c-0.286,0-0.544,0.172-0.653,0.437c-0.109,0.264-0.049,0.568,0.153,0.771l3.998,4.002c0.138,0.138,0.319,0.207,0.5,0.207
		s0.361-0.069,0.5-0.207l4.002-3.998c0.202-0.202,0.263-0.506,0.153-0.771C24.544,26.677,24.286,26.504,24,26.504z"/>
	<path d="M26.842,10.925c-1.531-1.812-3.74-2.842-6.136-2.842c-3.563,0-6.696,2.366-7.71,5.703c-0.25-0.037-0.504-0.056-0.761-0.056
		C9.349,13.731,7,16.08,7,18.966s2.349,5.235,5.235,5.235H16c0.553,0,1-0.447,1-1s-0.447-1-1-1h-3.765
		C10.451,22.202,9,20.75,9,18.966s1.451-3.235,3.235-3.235c0.396,0,0.779,0.071,1.137,0.212c0.283,0.112,0.604,0.088,0.869-0.066
		c0.265-0.154,0.444-0.42,0.487-0.723c0.01-0.07,0.02-0.135,0.039-0.224c0.573-2.809,3.07-4.847,5.938-4.847
		c1.923,0,3.687,0.883,4.839,2.423c0.189,0.252,0.492,0.401,0.808,0.401c2.562,0,4.647,2.084,4.647,4.647s-2.085,4.647-4.647,4.647
		H24c-0.553,0-1,0.447-1,1s0.447,1,1,1h2.353c3.665,0,6.647-2.982,6.647-6.647C33,14.056,30.283,11.18,26.842,10.925z"/>
</g>
</svg>
