<?xml version="1.0" encoding="utf-8"?>
<!-- Generator: Adobe Illustrator 21.1.0, SVG Export Plug-In . SVG Version: 6.00 Build 0)  -->
<svg version="1.1" id="Layer_1" xmlns="http://www.w3.org/2000/svg" xmlns:xlink="http://www.w3.org/1999/xlink" x="0px" y="0px"
	 viewBox="0 0 40 40" style="enable-background:new 0 0 40 40;" xml:space="preserve">
<g>
	<g>
		<path d="M10,13c-1.7,0-3-1.3-3-3s1.3-3,3-3s3,1.3,3,3S11.7,13,10,13z M10,9c-0.6,0-1,0.4-1,1s0.4,1,1,1s1-0.4,1-1S10.6,9,10,9z"/>
	</g>
	<g>
		<path d="M32,11H20c-0.6,0-1-0.4-1-1s0.4-1,1-1h12c0.6,0,1,0.4,1,1S32.6,11,32,11z"/>
	</g>
	<g>
		<path d="M10,23c-1.7,0-3-1.3-3-3s1.3-3,3-3s3,1.3,3,3S11.7,23,10,23z M10,19c-0.6,0-1,0.4-1,1c0,0.6,0.4,1,1,1s1-0.4,1-1
			C11,19.4,10.6,19,10,19z"/>
	</g>
	<g>
		<path d="M32,21H20c-0.6,0-1-0.4-1-1c0-0.6,0.4-1,1-1h12c0.6,0,1,0.4,1,1C33,20.6,32.6,21,32,21z"/>
	</g>
	<g>
		<path d="M10,33c-1.7,0-3-1.3-3-3s1.3-3,3-3s3,1.3,3,3S11.7,33,10,33z M10,29c-0.6,0-1,0.4-1,1s0.4,1,1,1s1-0.4,1-1S10.6,29,10,29z
			"/>
	</g>
	<g>
		<path d="M32,31H20c-0.6,0-1-0.4-1-1s0.4-1,1-1h12c0.6,0,1,0.4,1,1S32.6,31,32,31z"/>
	</g>
</g>
</svg>
