<?xml version="1.0" encoding="utf-8"?>
<!-- Generator: Adobe Illustrator 22.1.0, SVG Export Plug-In . SVG Version: 6.00 Build 0)  -->
<svg version="1.1" id="Layer_1" xmlns="http://www.w3.org/2000/svg" xmlns:xlink="http://www.w3.org/1999/xlink" x="0px" y="0px"
	 viewBox="0 0 40 40" style="enable-background:new 0 0 40 40;" xml:space="preserve">
<g>
	<g>
		<path d="M31.432,11.622h-12c-0.552,0-1-0.448-1-1s0.448-1,1-1h12c0.553,0,1,0.448,1,1S31.985,11.622,31.432,11.622z"/>
	</g>
	<g>
		<path d="M31.432,21.622h-12c-0.552,0-1-0.447-1-1s0.448-1,1-1h12c0.553,0,1,0.447,1,1S31.985,21.622,31.432,21.622z"/>
	</g>
	<g>
		<path d="M31.432,31.622h-12c-0.552,0-1-0.447-1-1s0.448-1,1-1h12c0.553,0,1,0.447,1,1S31.985,31.622,31.432,31.622z"/>
	</g>
	<g>
		<path d="M10.656,7.298v5.28H8.873V9.042C8.488,9.384,8.096,9.584,7.696,9.642L7.592,8.146c0.32-0.038,0.639-0.141,0.956-0.309
			s0.537-0.348,0.66-0.54H10.656z"/>
	</g>
	<g>
		<path d="M7.84,21.458c0.768-0.405,1.354-0.818,1.756-1.24c0.402-0.421,0.604-0.794,0.604-1.12c0-0.138-0.034-0.253-0.104-0.344
			s-0.179-0.136-0.328-0.136c-0.182,0-0.314,0.076-0.4,0.228c-0.085,0.152-0.122,0.389-0.111,0.708L7.665,19.17
			c-0.011-0.432,0.079-0.793,0.271-1.084c0.192-0.29,0.459-0.508,0.8-0.651c0.342-0.145,0.729-0.217,1.16-0.217
			c0.501,0,0.912,0.088,1.232,0.265c0.319,0.176,0.551,0.396,0.691,0.66c0.142,0.264,0.212,0.529,0.212,0.796
			c0,0.49-0.184,0.925-0.552,1.304s-0.866,0.718-1.496,1.016v0.017c0.331-0.032,0.749-0.048,1.256-0.048h0.824v1.352H7.84V21.458z"
			/>
	</g>
	<g>
		<path d="M11.373,27.663c0.354,0.266,0.531,0.65,0.531,1.152c0,0.293-0.065,0.525-0.195,0.695c-0.131,0.17-0.275,0.289-0.433,0.355
			s-0.278,0.1-0.363,0.1v0.033c0.111,0,0.249,0.025,0.411,0.076c0.163,0.051,0.316,0.162,0.46,0.336
			C11.928,30.583,12,30.835,12,31.167c0,0.309-0.095,0.58-0.284,0.812c-0.189,0.23-0.449,0.41-0.78,0.535s-0.701,0.188-1.112,0.188
			c-0.645,0-1.149-0.102-1.512-0.307c-0.362-0.207-0.61-0.551-0.744-1.037l1.681-0.68c-0.011,0.25,0.031,0.422,0.128,0.516
			c0.096,0.094,0.224,0.141,0.384,0.141c0.31,0,0.464-0.133,0.464-0.4c0-0.133-0.039-0.232-0.116-0.297
			c-0.077-0.062-0.204-0.096-0.38-0.096h-0.36v-1.055h0.257c0.176,0,0.302-0.035,0.38-0.105c0.077-0.068,0.116-0.178,0.116-0.328
			c0-0.133-0.035-0.236-0.104-0.311c-0.069-0.076-0.165-0.113-0.288-0.113c-0.325,0-0.485,0.219-0.479,0.656L7.64,28.79
			c0.059-0.555,0.284-0.947,0.676-1.18c0.393-0.232,0.908-0.348,1.548-0.348C10.515,27.263,11.017,27.396,11.373,27.663z"/>
	</g>
</g>
</svg>
