<svg xmlns="http://www.w3.org/2000/svg" viewBox="0 0 40 40"><path d="M9.2 17.5c.2-.2.5-.3.8-.2.3.1.4.4.4.7v1h5.3c.6 0 1 .4 1 1s-.4 1-1 1h-5.3v1c0 .3-.2.5-.4.7-.1 0-.2.1-.3.1-.2 0-.4-.1-.5-.2l-2-2c-.3-.3-.3-.7 0-1l2-2.1zM20 17h8c.6 0 1-.4 1-1s-.4-1-1-1h-8c-.6 0-1 .4-1 1s.4 1 1 1zM20 13h12c.6 0 1-.4 1-1s-.4-1-1-1H20c-.6 0-1 .4-1 1s.4 1 1 1zM32 23H20c-.6 0-1 .4-1 1s.4 1 1 1h12c.6 0 1-.4 1-1s-.4-1-1-1zM32 19H20c-.6 0-1 .4-1 1s.4 1 1 1h12c.6 0 1-.4 1-1s-.4-1-1-1zM28 27h-8c-.6 0-1 .4-1 1s.4 1 1 1h8c.6 0 1-.4 1-1s-.4-1-1-1z"/></svg>