<?xml version="1.0" encoding="utf-8"?>
<!-- Generator: Adobe Illustrator 21.1.0, SVG Export Plug-In . SVG Version: 6.00 Build 0)  -->
<svg version="1.1" id="Layer_1" xmlns="http://www.w3.org/2000/svg" xmlns:xlink="http://www.w3.org/1999/xlink" x="0px" y="0px"
	 viewBox="0 0 40 40" style="enable-background:new 0 0 40 40;" xml:space="preserve">
<g>
	<path d="M19.4,11.6h12c0.6,0,1-0.4,1-1s-0.4-1-1-1h-12c-0.6,0-1,0.4-1,1S18.9,11.6,19.4,11.6z"/>
	<path d="M31.4,19.6h-12c-0.6,0-1,0.4-1,1c0,0.6,0.4,1,1,1h12c0.6,0,1-0.4,1-1C32.4,20.1,32,19.6,31.4,19.6z"/>
	<path d="M31.4,29.6h-12c-0.6,0-1,0.4-1,1s0.4,1,1,1h12c0.6,0,1-0.4,1-1S32,29.6,31.4,29.6z"/>
	<path d="M8.9,9v3.5h1.8V7.3H9.2C9.1,7.5,8.9,7.7,8.5,7.8s-0.6,0.3-1,0.3l0.1,1.5C8.1,9.6,8.5,9.4,8.9,9z"/>
	<path d="M10,21.3L10,21.3c0.6-0.3,1.1-0.7,1.5-1s0.6-0.8,0.6-1.3c0-0.3-0.1-0.5-0.2-0.8c-0.1-0.3-0.4-0.5-0.7-0.7
		c-0.3-0.2-0.7-0.3-1.2-0.3c-0.4,0-0.8,0.1-1.2,0.2c-0.3,0.1-0.6,0.4-0.8,0.7c-0.2,0.3-0.3,0.7-0.3,1.1l1.6,0.4c0-0.3,0-0.6,0.1-0.7
		c0.1-0.2,0.2-0.2,0.4-0.2c0.1,0,0.3,0,0.3,0.1s0.1,0.2,0.1,0.3c0,0.3-0.2,0.7-0.6,1.1c-0.4,0.4-1,0.8-1.8,1.2v1.1h4.2v-1.4h-0.8
		C10.7,21.2,10.3,21.2,10,21.3z"/>
	<path d="M11.3,30.1C11.2,30,11,30,10.9,30v0c0.1,0,0.2,0,0.4-0.1s0.3-0.2,0.4-0.4c0.1-0.2,0.2-0.4,0.2-0.7c0-0.5-0.2-0.9-0.5-1.2
		c-0.4-0.3-0.9-0.4-1.5-0.4c-0.6,0-1.2,0.1-1.5,0.3c-0.4,0.2-0.6,0.6-0.7,1.2l1.6,0.5c0-0.4,0.2-0.7,0.5-0.7c0.1,0,0.2,0,0.3,0.1
		c0.1,0.1,0.1,0.2,0.1,0.3c0,0.2,0,0.3-0.1,0.3c-0.1,0.1-0.2,0.1-0.4,0.1H9.4v1.1h0.4c0.2,0,0.3,0,0.4,0.1c0.1,0.1,0.1,0.2,0.1,0.3
		c0,0.3-0.2,0.4-0.5,0.4c-0.2,0-0.3,0-0.4-0.1c-0.1-0.1-0.1-0.3-0.1-0.5l-1.7,0.7c0.1,0.5,0.4,0.8,0.7,1c0.4,0.2,0.9,0.3,1.5,0.3
		c0.4,0,0.8-0.1,1.1-0.2s0.6-0.3,0.8-0.5c0.2-0.2,0.3-0.5,0.3-0.8c0-0.3-0.1-0.6-0.2-0.8C11.6,30.2,11.5,30.1,11.3,30.1z"/>
</g>
</svg>
