<?xml version="1.0" encoding="utf-8"?>
<!-- Generator: Adobe Illustrator 21.1.0, SVG Export Plug-In . SVG Version: 6.00 Build 0)  -->
<svg version="1.1" id="Layer_1" xmlns="http://www.w3.org/2000/svg" xmlns:xlink="http://www.w3.org/1999/xlink" x="0px" y="0px"
	 viewBox="0 0 40 40" style="enable-background:new 0 0 40 40;" xml:space="preserve">
<g>
	<g>
		<path d="M12,33c-1.3,0-2.5-0.5-3.5-1.4c-1-1-1.5-2.2-1.4-3.6c0-1.3,0.6-2.6,1.5-3.6l5.9-5.9c0.4-0.4,1-0.4,1.4,0
			c0.4,0.4,0.4,1,0,1.4L10,25.8c-0.6,0.6-0.9,1.4-1,2.2c0,0.8,0.3,1.6,0.8,2.1c1.2,1.2,3.1,1.1,4.4-0.1l5.9-5.9c0.4-0.4,1-0.4,1.4,0
			c0.4,0.4,0.4,1,0,1.4l-5.9,5.9C14.6,32.5,13.3,33,12,33z"/>
	</g>
	<g>
		<path d="M24.8,21.8c-0.3,0-0.5-0.1-0.7-0.3c-0.4-0.4-0.4-1,0-1.4l5.9-5.9c0.6-0.6,0.9-1.4,1-2.2c0-0.8-0.3-1.6-0.8-2.1
			C29.6,9.3,28.8,9,28,9c-0.8,0-1.6,0.4-2.2,1l-5.9,5.9c-0.4,0.4-1,0.4-1.4,0c-0.4-0.4-0.4-1,0-1.4l5.9-5.9c1-1,2.2-1.5,3.6-1.5
			c1.4,0,2.6,0.5,3.6,1.4c1,0.9,1.5,2.2,1.4,3.6c0,1.3-0.6,2.6-1.5,3.6l-5.9,5.9C25.3,21.7,25.1,21.8,24.8,21.8z"/>
	</g>
	<g>
		<path d="M16,25c-0.3,0-0.5-0.1-0.7-0.3c-0.4-0.4-0.4-1,0-1.4l8-8c0.4-0.4,1-0.4,1.4,0c0.4,0.4,0.4,1,0,1.4l-8,8
			C16.5,24.9,16.3,25,16,25z"/>
	</g>
</g>
</svg>
