<?xml version="1.0" encoding="utf-8"?>
<!-- Generator: Adobe Illustrator 21.1.0, SVG Export Plug-In . SVG Version: 6.00 Build 0)  -->
<svg version="1.1" id="Layer_1" xmlns="http://www.w3.org/2000/svg" xmlns:xlink="http://www.w3.org/1999/xlink" x="0px" y="0px"
	 viewBox="0 0 40 40" style="enable-background:new 0 0 40 40;" xml:space="preserve">
<g>
	<path d="M11.6,17h2.3c-0.6-0.7-0.9-1.7-0.9-3c0-2.8,3.1-5,7-5c3.9,0,7,2.2,7,5c0,0.6,0.4,1,1,1s1-0.4,1-1c0-3.9-4-7-9-7
		c-5,0-9,3.1-9,7c0,0,0,0,0,0s0,0,0,0C11,15.2,11.2,16.2,11.6,17z"/>
	<path d="M32,19H19.2h-6.1H8c-0.6,0-1,0.4-1,1s0.4,1,1,1h11.1h7.6H32c0.6,0,1-0.4,1-1S32.6,19,32,19z"/>
	<path d="M26,23c0.7,0.7,1,1.6,1,3c0,2.8-3.1,5-7,5c-3.9,0-7-2.2-7-5c0-0.6-0.4-1-1-1s-1,0.4-1,1c0,3.9,4,7,9,7c5,0,9-3.1,9-7
		c0-1.2-0.2-2.2-0.6-3H26z"/>
</g>
</svg>
