<?xml version="1.0" encoding="utf-8"?>
<!-- Generator: Adobe Illustrator 21.1.0, SVG Export Plug-In . SVG Version: 6.00 Build 0)  -->
<svg version="1.1" id="Layer_1" xmlns="http://www.w3.org/2000/svg" xmlns:xlink="http://www.w3.org/1999/xlink" x="0px" y="0px"
	 viewBox="0 0 40 40" style="enable-background:new 0 0 40 40;" xml:space="preserve">
<g>
	<path d="M9,30h24c0.6,0,1-0.4,1-1s-0.4-1-1-1H9c-0.6,0-1,0.4-1,1S8.4,30,9,30z"/>
</g>
<g>
	<path d="M9,22h24c0.6,0,1-0.4,1-1c0-0.6-0.4-1-1-1H9c-0.6,0-1,0.4-1,1C8,21.6,8.4,22,9,22z"/>
</g>
<g>
	<path d="M9,14h24c0.6,0,1-0.4,1-1s-0.4-1-1-1H9c-0.6,0-1,0.4-1,1S8.4,14,9,14z"/>
</g>
<g>
	<path d="M9,18h24c0.6,0,1-0.4,1-1s-0.4-1-1-1H9c-0.6,0-1,0.4-1,1S8.4,18,9,18z"/>
</g>
<g>
	<path d="M9,26h24c0.6,0,1-0.4,1-1s-0.4-1-1-1H9c-0.6,0-1,0.4-1,1S8.4,26,9,26z"/>
</g>
</svg>
