<?xml version="1.0" encoding="utf-8"?>
<!-- Generator: Adobe Illustrator 22.1.0, SVG Export Plug-In . SVG Version: 6.00 Build 0)  -->
<svg version="1.1" id="Layer_1" xmlns="http://www.w3.org/2000/svg" xmlns:xlink="http://www.w3.org/1999/xlink" x="0px" y="0px"
	 viewBox="0 0 40 40" style="enable-background:new 0 0 40 40;" xml:space="preserve">
<g>
	<g>
		<path d="M11.92,32.986c-1.325,0-2.558-0.506-3.483-1.431c-0.95-0.949-1.459-2.224-1.433-3.588c0.026-1.35,0.574-2.627,1.543-3.597
			l5.883-5.889c0.391-0.391,1.024-0.39,1.415,0c0.391,0.391,0.391,1.023,0,1.415l-5.883,5.888c-0.602,0.603-0.943,1.392-0.958,2.222
			c-0.016,0.816,0.285,1.574,0.846,2.136c0.562,0.561,1.309,0.882,2.135,0.844c0.831-0.017,1.62-0.358,2.222-0.961l5.883-5.888
			c0.391-0.392,1.023-0.391,1.414-0.001c0.391,0.391,0.391,1.023,0,1.414l-5.882,5.889c-0.969,0.97-2.247,1.52-3.596,1.547
			C11.991,32.986,11.955,32.986,11.92,32.986z"/>
	</g>
	<g>
		<path d="M27.909,18.67c-0.366,0-0.738-0.038-1.111-0.118l-8.141-1.736c-0.54-0.115-0.884-0.646-0.769-1.187
			c0.114-0.541,0.648-0.886,1.187-0.77l8.141,1.736c1.7,0.361,3.372-0.656,3.719-2.274c0.344-1.618-0.763-3.23-2.468-3.594
			l-8.141-1.736c-0.54-0.115-0.884-0.646-0.769-1.187c0.114-0.54,0.647-0.885,1.187-0.77l8.141,1.736
			c2.782,0.594,4.579,3.27,4.006,5.966C32.391,17.074,30.275,18.67,27.909,18.67z"/>
	</g>
	<g>
		<path d="M10.996,12.019c-0.256,0-0.512-0.098-0.707-0.292L8.288,9.727C7.897,9.337,7.897,8.704,8.287,8.313
			c0.391-0.392,1.024-0.391,1.414-0.001l2.001,1.999c0.391,0.391,0.391,1.023,0.001,1.414
			C11.508,11.921,11.252,12.019,10.996,12.019z"/>
	</g>
	<g>
		<path d="M15.996,12.016c-0.552,0-1-0.447-1-1l-0.001-2c0-0.552,0.447-1,1-1h0c0.552,0,1,0.447,1,1l0.001,2
			C16.996,11.568,16.549,12.016,15.996,12.016L15.996,12.016z"/>
	</g>
	<g>
		<path d="M8.998,17.02c-0.552,0-1-0.447-1-1c0-0.552,0.447-1,1-1l2-0.001h0c0.552,0,1,0.447,1,1c0,0.552-0.447,1-1,1L8.998,17.02
			L8.998,17.02z"/>
	</g>
</g>
</svg>
