<?xml version="1.0" encoding="utf-8"?>
<!-- Generator: Adobe Illustrator 21.1.0, SVG Export Plug-In . SVG Version: 6.00 Build 0)  -->
<svg version="1.1" id="Layer_1" xmlns="http://www.w3.org/2000/svg" xmlns:xlink="http://www.w3.org/1999/xlink" x="0px" y="0px"
	 viewBox="0 0 40 40" style="enable-background:new 0 0 40 40;" xml:space="preserve">
<g>
	<path d="M11.9,33c-1.3,0-2.6-0.5-3.5-1.4C7.5,30.6,7,29.3,7,28c0-1.3,0.6-2.6,1.5-3.6l5.9-5.9c0.4-0.4,1-0.4,1.4,0
		c0.4,0.4,0.4,1,0,1.4L10,25.8C9.4,26.4,9,27.2,9,28c0,0.8,0.3,1.6,0.8,2.1c0.6,0.6,1.3,0.9,2.1,0.8c0.8,0,1.6-0.4,2.2-1l5.9-5.9
		c0.4-0.4,1-0.4,1.4,0c0.4,0.4,0.4,1,0,1.4l-5.9,5.9c-1,1-2.2,1.5-3.6,1.5C12,33,12,33,11.9,33z"/>
</g>
<g>
	<path d="M27.9,18.7c-0.4,0-0.7,0-1.1-0.1l-8.1-1.7c-0.5-0.1-0.9-0.6-0.8-1.2s0.6-0.9,1.2-0.8l8.1,1.7c1.7,0.4,3.4-0.7,3.7-2.3
		c0.3-1.6-0.8-3.2-2.5-3.6L20.3,9c-0.5-0.1-0.9-0.6-0.8-1.2c0.1-0.5,0.6-0.9,1.2-0.8l8.1,1.7c2.8,0.6,4.6,3.3,4,6
		C32.4,17.1,30.3,18.7,27.9,18.7z"/>
</g>
<g>
	<path d="M11,12c-0.3,0-0.5-0.1-0.7-0.3l-2-2c-0.4-0.4-0.4-1,0-1.4c0.4-0.4,1-0.4,1.4,0l2,2c0.4,0.4,0.4,1,0,1.4
		C11.5,11.9,11.3,12,11,12z"/>
</g>
<g>
	<path d="M16,12c-0.6,0-1-0.4-1-1l0-2c0-0.6,0.4-1,1-1h0c0.6,0,1,0.4,1,1l0,2C17,11.6,16.5,12,16,12L16,12z"/>
</g>
<g>
	<path d="M9,17c-0.6,0-1-0.4-1-1s0.4-1,1-1l2,0h0c0.6,0,1,0.4,1,1s-0.4,1-1,1L9,17L9,17z"/>
</g>
</svg>
