<svg xmlns="http://www.w3.org/2000/svg" viewBox="0 0 40 40">
    <path d="M12 33c-1.3 0-2.5-.5-3.5-1.4-1-1-1.5-2.2-1.4-3.6 0-1.3.6-2.6 1.5-3.6l5.9-5.9c.4-.4 1-.4 1.4 0 .4.4.4 1 0 1.4L10 25.8c-.6.6-.9 1.4-1 2.2 0 .8.3 1.6.8 2.1 1.2 1.2 3.1 1.1 4.4-.1l5.9-5.9c.4-.4 1-.4 1.4 0 .4.4.4 1 0 1.4l-5.9 5.9c-1 1.1-2.3 1.6-3.6 1.6zm12.8-11.2c-.3 0-.5-.1-.7-.3-.4-.4-.4-1 0-1.4l5.9-5.9c.6-.6.9-1.4 1-2.2 0-.8-.3-1.6-.8-2.1-.6-.6-1.4-.9-2.2-.9-.8 0-1.6.4-2.2 1l-5.9 5.9c-.4.4-1 .4-1.4 0-.4-.4-.4-1 0-1.4l5.9-5.9c1-1 2.2-1.5 3.6-1.5s2.6.5 3.6 1.4c1 .9 1.5 2.2 1.4 3.6 0 1.3-.6 2.6-1.5 3.6l-5.9 5.9c-.3.1-.5.2-.8.2z"/>
    <path d="M16 25c-.3 0-.5-.1-.7-.3-.4-.4-.4-1 0-1.4l8-8c.4-.4 1-.4 1.4 0 .4.4.4 1 0 1.4l-8 8c-.2.2-.4.3-.7.3z"/>
</svg>
