<?xml version="1.0" encoding="utf-8"?>
<!-- Generator: Adobe Illustrator 21.1.0, SVG Export Plug-In . SVG Version: 6.00 Build 0)  -->
<svg version="1.1" id="Layer_1" xmlns="http://www.w3.org/2000/svg" xmlns:xlink="http://www.w3.org/1999/xlink" x="0px" y="0px"
	 viewBox="0 0 40 40" style="enable-background:new 0 0 40 40;" xml:space="preserve">
<g>
	<path d="M20,28.5c4.7,0,8.6-3.5,8.6-7.7V8.5c0-0.6-0.4-1-1-1s-1,0.4-1,1v12.3c0,3.1-3,5.7-6.6,5.7c-3.6,0-6.6-2.6-6.6-5.7V8.5
		c0-0.6-0.4-1-1-1s-1,0.4-1,1v12.3C11.4,25,15.3,28.5,20,28.5z"/>
	<path d="M32,30.5H8c-0.6,0-1,0.4-1,1s0.4,1,1,1h24c0.6,0,1-0.4,1-1S32.6,30.5,32,30.5z"/>
</g>
</svg>
