<svg xmlns="http://www.w3.org/2000/svg" viewBox="0 0 40 40"><path d="M22.5 18.3l6.6-6.6 1.4 1.4-6.6 6.6 1.4 1.4 7.4-7.4c.4-.4.4-1 0-1.4l-2.8-2.8c-.2-.2-.4-.3-.7-.3-.3 0-.5.1-.7.3l-7.4 7.4 1.4 1.4zM31.5 32.9c.1.1.3.1.5.1.3 0 .5-.1.7-.3.3-.3.4-.8.2-1.2L8.5 7.1c-.4-.2-.9-.1-1.2.2s-.4.8-.2 1.2l24.4 24.4zM16.3 20.5h-1.1c-.9.1-1.6.5-2.2 1.2-.6.7-.8 1.6-.7 2.5 0 .3 0 .9-.4 1.2-.6.5-2 .4-3.6-.2-.3-.2-.7-.1-1 .2-.3.3-.4.7-.2 1.1.9 2.1 4 4.3 7 4.3.7 0 1.4-.1 2.1-.4 2.6-1.1 4.3-3 4.7-4.9l.2-.2-4.8-4.8zm-.9 8.1c-1.5.6-3.3 0-4.6-.9 1.1 0 1.9-.4 2.4-.8.9-.7 1.3-1.8 1.1-3.1 0-.3.1-.7.3-1 .2-.2.5-.4.8-.4 1.7-.1 3.1.4 3.5 1.4.6 1.6-1 3.7-3.5 4.8z"/></svg>