<svg xmlns="http://www.w3.org/2000/svg" viewBox="0 0 40 40">
    <path d="M31.432 11.622h-12a1 1 0 0 1 0-2h12a1 1 0 1 1 0 2zm0 10h-12a1 1 0 1 1 0-2h12a1 1 0 1 1 0 2zm0 10h-12a1 1 0 1 1 0-2h12a1 1 0 1 1 0 2zM10.656 7.298v5.28H8.873V9.042c-.385.342-.777.542-1.177.6l-.104-1.496c.32-.038.639-.141.956-.309s.537-.348.66-.54h1.448zM7.84 21.458c.768-.405 1.354-.818 1.756-1.24.402-.421.604-.794.604-1.12 0-.138-.034-.253-.104-.344s-.179-.136-.328-.136a.427.427 0 0 0-.4.228c-.085.152-.122.389-.111.708l-1.592-.384c-.011-.432.079-.793.271-1.084.192-.29.459-.508.8-.651a2.947 2.947 0 0 1 1.16-.217c.501 0 .912.088 1.232.265.319.176.551.396.691.66.142.264.212.529.212.796 0 .49-.184.925-.552 1.304s-.866.718-1.496 1.016v.017c.331-.032.749-.048 1.256-.048h.824v1.352H7.84v-1.122zm3.533 6.205c.354.266.531.65.531 1.152 0 .293-.065.525-.195.695-.131.17-.275.289-.433.355s-.278.1-.363.1v.033c.111 0 .249.025.411.076a.994.994 0 0 1 .46.336c.144.173.216.425.216.757 0 .309-.095.58-.284.812-.189.23-.449.41-.78.535s-.701.188-1.112.188c-.645 0-1.149-.102-1.512-.307-.362-.207-.61-.551-.744-1.037l1.681-.68c-.011.25.031.422.128.516a.525.525 0 0 0 .384.141c.31 0 .464-.133.464-.4 0-.133-.039-.232-.116-.297-.077-.062-.204-.096-.38-.096h-.36v-1.055h.257c.176 0 .302-.035.38-.105.077-.068.116-.178.116-.328a.441.441 0 0 0-.104-.311.369.369 0 0 0-.288-.113c-.325 0-.485.219-.479.656L7.64 28.79c.059-.555.284-.947.676-1.18.393-.232.908-.348 1.548-.348.651.001 1.153.134 1.509.401z"/>
</svg>
