<svg xmlns="http://www.w3.org/2000/svg" viewBox="0 0 40 40">
    <path d="M11.92 32.986a4.891 4.891 0 0 1-4.916-5.019 5.214 5.214 0 0 1 1.543-3.597l5.883-5.889a1.001 1.001 0 0 1 1.415 1.415l-5.883 5.888a3.221 3.221 0 0 0-.958 2.222 2.91 2.91 0 0 0 .846 2.136 2.808 2.808 0 0 0 2.135.844 3.225 3.225 0 0 0 2.222-.961l5.883-5.888a.999.999 0 1 1 1.414 1.413l-5.882 5.889a5.216 5.216 0 0 1-3.596 1.547h-.106zM27.909 18.67c-.366 0-.738-.038-1.111-.118l-8.141-1.736a1 1 0 1 1 .418-1.957l8.141 1.736c1.7.361 3.372-.656 3.719-2.274.344-1.618-.763-3.23-2.468-3.594l-8.141-1.736a1 1 0 1 1 .418-1.957l8.141 1.736c2.782.594 4.579 3.27 4.006 5.966-.5 2.338-2.616 3.934-4.982 3.934zm-16.913-6.651a1 1 0 0 1-.707-.292l-2.001-2a1 1 0 1 1 1.413-1.415l2.001 1.999a1 1 0 0 1-.706 1.708zm5-.003a1 1 0 0 1-1-1l-.001-2a1 1 0 1 1 2 0l.001 2a1 1 0 0 1-1 1zM8.998 17.02a1 1 0 1 1 0-2l2-.001a1 1 0 1 1 0 2l-2 .001z"/>
</svg>
