<?xml version="1.0" encoding="utf-8"?>
<!-- Generator: Adobe Illustrator 21.1.0, SVG Export Plug-In . SVG Version: 6.00 Build 0)  -->
<svg version="1.1" id="Layer_1" xmlns="http://www.w3.org/2000/svg" xmlns:xlink="http://www.w3.org/1999/xlink" x="0px" y="0px"
	 viewBox="0 0 40 40" style="enable-background:new 0 0 40 40;" xml:space="preserve">
<path d="M21,20c3.5,0,6.4-1.8,6.4-5.5S24.6,8,21,8h-9.5v24H21c4.7,0,7.5-2.9,7.5-6.5S25.7,20,21,20z M16.5,12h3.8
	c1.4,0,2.5,1.1,2.5,2.5c0,1.4-1.1,2.5-2.5,2.5h-3.8V12z M21.2,28h-4.7v-5h4.7c1.3,0,2.3,1.1,2.3,2.5C23.5,26.9,22.5,28,21.2,28z"/>
</svg>
