<?xml version="1.0" encoding="utf-8"?>
<!-- Generator: Adobe Illustrator 21.1.0, SVG Export Plug-In . SVG Version: 6.00 Build 0)  -->
<svg version="1.1" id="Layer_1" xmlns="http://www.w3.org/2000/svg" xmlns:xlink="http://www.w3.org/1999/xlink" x="0px" y="0px"
	 viewBox="0 0 40 40" style="enable-background:new 0 0 40 40;" xml:space="preserve">
<g>
	<path d="M17,30H9c-0.6,0-1-0.4-1-1s0.4-1,1-1h8c0.6,0,1,0.4,1,1S17.6,30,17,30z"/>
</g>
<g>
	<path d="M33,22H9c-0.6,0-1-0.4-1-1c0-0.6,0.4-1,1-1h24c0.6,0,1,0.4,1,1C34,21.6,33.6,22,33,22z"/>
</g>
<g>
	<path d="M33,14H9c-0.6,0-1-0.4-1-1s0.4-1,1-1h24c0.6,0,1,0.4,1,1S33.6,14,33,14z"/>
</g>
<g>
	<path d="M33,18H9c-0.6,0-1-0.4-1-1s0.4-1,1-1h24c0.6,0,1,0.4,1,1S33.6,18,33,18z"/>
</g>
<g>
	<path d="M33,26H9c-0.6,0-1-0.4-1-1s0.4-1,1-1h24c0.6,0,1,0.4,1,1S33.6,26,33,26z"/>
</g>
</svg>
