<?xml version="1.0" encoding="utf-8"?>
<!-- Generator: Adobe Illustrator 21.1.0, SVG Export Plug-In . SVG Version: 6.00 Build 0)  -->
<svg version="1.1" id="Layer_1" xmlns="http://www.w3.org/2000/svg" xmlns:xlink="http://www.w3.org/1999/xlink" x="0px" y="0px"
	 viewBox="0 0 40 40" style="enable-background:new 0 0 40 40;" xml:space="preserve">
<g>
	<path d="M14.5,17.5c-0.2-0.2-0.5-0.3-0.8-0.2c-0.3,0.1-0.4,0.4-0.4,0.7l0,1L8,19c-0.6,0-1,0.4-1,1c0,0.6,0.4,1,1,1h0l5.3,0l0,1
		c0,0.3,0.2,0.5,0.4,0.7c0.1,0,0.2,0.1,0.3,0.1c0.2,0,0.4-0.1,0.5-0.2l2-2c0.3-0.3,0.3-0.7,0-1L14.5,17.5z"/>
	<path d="M20,17L20,17l8,0c0.6,0,1-0.4,1-1s-0.4-1-1-1l-8,0c-0.6,0-1,0.4-1,1S19.4,17,20,17z"/>
	<path d="M20,13L20,13l12,0c0.6,0,1-0.4,1-1s-0.4-1-1-1l-12,0c-0.6,0-1,0.4-1,1S19.4,13,20,13z"/>
	<path d="M32,23C32,23,32,23,32,23l-12,0c-0.6,0-1,0.4-1,1c0,0.6,0.4,1,1,1h0l12,0c0.6,0,1-0.4,1-1C33,23.4,32.6,23,32,23z"/>
	<path d="M32,19l-12,0c-0.6,0-1,0.4-1,1c0,0.6,0.4,1,1,1h0l12,0c0.6,0,1-0.4,1-1S32.6,19,32,19z"/>
	<path d="M28,27h-8c-0.6,0-1,0.4-1,1s0.4,1,1,1h8c0.6,0,1-0.4,1-1S28.6,27,28,27z"/>
</g>
</svg>
