<svg xmlns="http://www.w3.org/2000/svg" viewBox="0 0 40 40">
    <path d="M14.5 17.5c-.2-.2-.5-.3-.8-.2-.3.1-.4.4-.4.7v1H8c-.6 0-1 .4-1 1s.4 1 1 1h5.3v1c0 .3.2.5.4.7.1 0 .2.1.3.1.2 0 .4-.1.5-.2l2-2c.3-.3.3-.7 0-1l-2-2.1zM20 17h8c.6 0 1-.4 1-1s-.4-1-1-1h-8c-.6 0-1 .4-1 1s.4 1 1 1zm0-4h12c.6 0 1-.4 1-1s-.4-1-1-1H20c-.6 0-1 .4-1 1s.4 1 1 1zm12 10H20c-.6 0-1 .4-1 1s.4 1 1 1h12c.6 0 1-.4 1-1s-.4-1-1-1zm0-4H20c-.6 0-1 .4-1 1s.4 1 1 1h12c.6 0 1-.4 1-1s-.4-1-1-1zm-4 8h-8c-.6 0-1 .4-1 1s.4 1 1 1h8c.6 0 1-.4 1-1s-.4-1-1-1z"/>
</svg>
