<?xml version="1.0" encoding="utf-8"?>
<!-- Generator: Adobe Illustrator 21.1.0, SVG Export Plug-In . SVG Version: 6.00 Build 0)  -->
<svg version="1.1" id="Layer_1" xmlns="http://www.w3.org/2000/svg" xmlns:xlink="http://www.w3.org/1999/xlink" x="0px" y="0px"
	 viewBox="0 0 40 40" style="enable-background:new 0 0 40 40;" xml:space="preserve">
<g>
	<path d="M30.1,27.5l-9.2-16c-0.4-0.6-1.4-0.6-1.7,0l-9.2,16c-0.2,0.3-0.2,0.7,0,1c0.2,0.3,0.5,0.5,0.9,0.5h18.5
		c0.4,0,0.7-0.2,0.9-0.5S30.3,27.8,30.1,27.5z M12.5,27L20,14l7.5,13H12.5z"/>
	<path d="M19,20v4c0,0.6,0.4,1,1,1s1-0.4,1-1v-4c0-0.6-0.4-1-1-1S19,19.4,19,20z"/>
</g>
</svg>
