<?xml version="1.0" encoding="utf-8"?>
<!-- Generator: Adobe Illustrator 22.1.0, SVG Export Plug-In . SVG Version: 6.00 Build 0)  -->
<svg version="1.1" id="Layer_1" xmlns="http://www.w3.org/2000/svg" xmlns:xlink="http://www.w3.org/1999/xlink" x="0px" y="0px"
	 viewBox="0 0 40 40" style="enable-background:new 0 0 40 40;" xml:space="preserve">
<path d="M28.8,16.8l-0.7-0.7c0,0,0,0,0,0l-0.7-0.7l1.1-1.1c0,0,0,0,0,0c0.8-0.8,0.8-2,0-2.8c-0.8-0.8-2-0.8-2.8,0c0,0,0,0,0,0
	l-1.1,1.1l-0.7-0.7l-0.7-0.7c-0.4-0.4-1-0.4-1.4,0l-1.4,1.4c-0.4,0.4-0.4,1,0,1.4l-7.8,7.8c-1.3,1.3-1.5,3.3-0.6,4.8l-0.8,0.8
	c-0.4,0.4-0.4,1,0,1.4c0.2,0.2,0.5,0.3,0.7,0.3s0.5-0.1,0.7-0.3l0.8-0.8c0.6,0.4,1.3,0.6,2,0.6c1,0,2-0.4,2.8-1.2l7.8-7.8
	c0.2,0.2,0.5,0.3,0.7,0.3c0.3,0,0.5-0.1,0.7-0.3l1.4-1.4c0.2-0.2,0.3-0.4,0.3-0.7C29.1,17.3,29,17,28.8,16.8z M18.7,24.1
	c-0.1,0-0.2,0-0.3,0c-1.4,0.2-3.5,0.4-4.8,0.1c0,0-0.1,0-0.1,0c0.1-0.4,0.3-0.7,0.5-1l0.6-0.6l0.6,0.6c0.1,0.1,0.2,0.1,0.4,0.1
	s0.3,0,0.4-0.1c0.2-0.2,0.2-0.5,0-0.7l-0.6-0.6l1.3-1.3l0.6,0.6c0.1,0.1,0.2,0.1,0.4,0.1s0.3,0,0.4-0.1c0.2-0.2,0.2-0.5,0-0.7
	l-0.6-0.6l1.3-1.3l0.6,0.6c0.1,0.1,0.2,0.1,0.4,0.1s0.3,0,0.4-0.1c0.2-0.2,0.2-0.5,0-0.7l-0.6-0.6l2.5-2.5l2.8,2.8L18.7,24.1z"/>
</svg>
