<?xml version="1.0" encoding="utf-8"?>
<!-- Generator: Adobe Illustrator 22.1.0, SVG Export Plug-In . SVG Version: 6.00 Build 0)  -->
<svg version="1.1" id="Layer_1" xmlns="http://www.w3.org/2000/svg" xmlns:xlink="http://www.w3.org/1999/xlink" x="0px" y="0px"
	 viewBox="0 0 40 40" style="enable-background:new 0 0 40 40;" xml:space="preserve">
<path d="M31,8H9C8.4,8,8,8.4,8,9v22c0,0.6,0.4,1,1,1h11.8v-9.3h-3.1v-3.6h3.1v-2.7c0-3.1,1.9-4.8,4.7-4.8c1.3,0,2.5,0.1,2.8,0.1V15
	l-1.9,0c-1.5,0-1.8,0.7-1.8,1.8v2.3h3.6l-0.5,3.6h-3.1V32H31c0.6,0,1-0.4,1-1V9C32,8.4,31.6,8,31,8z"/>
</svg>
