<svg xmlns="http://www.w3.org/2000/svg" viewBox="0 0 40 40">
    <path class="st0" d="M30.988 13.938a.986.986 0 0 0-.052-.259c-.01-.032-.019-.062-.033-.093a.989.989 0 0 0-.196-.293l-6-6a.986.986 0 0 0-.292-.196c-.031-.014-.063-.022-.096-.034a.984.984 0 0 0-.255-.05C24.042 7.01 24.022 7 24 7H10a1 1 0 0 0-1 1v24a1 1 0 0 0 1 1h20a1 1 0 0 0 1-1V14c0-.021-.01-.04-.012-.062zM27.586 13H25v-2.586L27.586 13zM11 31V9h12v5a1 1 0 0 0 1 1h5v16H11z"/>
    <path class="st0" d="M26 16.5H14a.5.5 0 0 0-.5.5v12a.5.5 0 0 0 .5.5h12a.5.5 0 0 0 .5-.5V17a.5.5 0 0 0-.5-.5zm-11.5 5h3v3h-3v-3zm4 0h3v3h-3v-3zm4 0h3v3h-3v-3zm3-1h-3v-3h3v3zm-11 5h3v3h-3v-3zm4 0h3v3h-3v-3zm7 3h-3v-3h3v3z"/>
</svg>
