<?xml version="1.0" encoding="utf-8"?>
<!-- Generator: Adobe Illustrator 22.1.0, SVG Export Plug-In . SVG Version: 6.00 Build 0)  -->
<svg version="1.1" id="Layer_1" xmlns="http://www.w3.org/2000/svg" xmlns:xlink="http://www.w3.org/1999/xlink" x="0px" y="0px"
	 viewBox="0 0 40 40" style="enable-background:new 0 0 40 40;" xml:space="preserve">
<g>
	<path d="M31,13.9c0-0.1,0-0.2-0.1-0.3c0,0,0-0.1,0-0.1c0-0.1-0.1-0.2-0.2-0.3l-6-6c-0.1-0.1-0.2-0.1-0.3-0.2c0,0-0.1,0-0.1,0
		c-0.1,0-0.2,0-0.3-0.1c0,0,0,0-0.1,0H10C9.4,7,9,7.4,9,8v24c0,0.6,0.4,1,1,1h20c0.6,0,1-0.4,1-1L31,13.9C31,14,31,14,31,13.9z
		 M27.6,13H25v-2.6L27.6,13z M11,31V9h12v5c0,0.6,0.4,1,1,1h5v16H11z"/>
</g>
<g>
	<path d="M16.9,27c0.2,0.1,0.5,0.2,0.9,0.2l-0.1,1.1c-0.9,0-1.5-0.1-1.9-0.4c-0.4-0.3-0.6-0.8-0.6-1.4v-1.9c0-0.4-0.1-0.8-0.3-1
		c-0.2-0.2-0.6-0.3-1-0.3v-1.1c0.5,0,0.8-0.1,1-0.3c0.2-0.2,0.3-0.5,0.3-1v-1.9c0-0.6,0.2-1.1,0.6-1.4c0.4-0.3,1-0.4,1.9-0.4
		l0.1,1.1c-0.4,0-0.7,0.1-0.9,0.2s-0.3,0.3-0.3,0.7v2.1c0,0.4-0.1,0.7-0.3,1c-0.2,0.2-0.5,0.4-1,0.5c0.4,0.1,0.7,0.3,1,0.5
		c0.2,0.2,0.3,0.6,0.3,1v2.1C16.6,26.6,16.7,26.8,16.9,27z"/>
	<path d="M25.1,21.8c0.2,0.2,0.6,0.3,1,0.3v1.1c-0.5,0-0.8,0.1-1,0.3c-0.2,0.2-0.3,0.5-0.3,1v1.9c0,0.6-0.2,1.1-0.6,1.4
		s-1,0.4-1.9,0.4l-0.1-1.1c0.4,0,0.8-0.1,0.9-0.2c0.2-0.1,0.3-0.3,0.3-0.7v-2.1c0-0.4,0.1-0.7,0.3-1s0.5-0.4,1-0.5
		c-0.4-0.1-0.7-0.3-1-0.5s-0.3-0.6-0.3-1v-2.1c0-0.3-0.1-0.5-0.3-0.7s-0.5-0.2-0.9-0.2l0.1-1.1c0.9,0,1.5,0.1,1.9,0.4
		s0.6,0.8,0.6,1.4v1.9C24.8,21.3,24.9,21.6,25.1,21.8z"/>
</g>
</svg>
