<svg xmlns="http://www.w3.org/2000/svg" viewBox="0 0 40 40">
    <path d="M31 13.9c0-.1 0-.2-.1-.3v-.1c0-.1-.1-.2-.2-.3l-6-6c-.1-.1-.2-.1-.3-.2h-.1c-.1 0-.2 0-.3-.1H10C9.4 7 9 7.4 9 8v24c0 .6.4 1 1 1h20c.6 0 1-.4 1-1V13.9c0 .1 0 .1 0 0zm-3.4-.9H25v-2.6l2.6 2.6zM11 31V9h12v5c0 .6.4 1 1 1h5v16H11z"/>
    <path d="M17.9 20.1c-.2-.5-.8-.7-1.3-.4l-3 1.5-.1.1c-.1 0-.1.1-.2.1 0 0-.1.1-.1.2l-.1.1v.1c0 .1 0 .1-.1.2v.4c0 .1 0 .1.1.2v.1c0 .1.1.1.1.2v.1c.1.1.2.2.3.2l3 1.5c.1.1.3.1.4.1.4 0 .7-.2.9-.6.2-.5 0-1.1-.4-1.3l-1.2-.9 1.2-.6c.5-.3.7-.9.5-1.3zM27 21.8c0-.1 0-.1-.1-.2v-.1s0-.1-.1-.1c0-.1-.1-.1-.1-.2 0 0-.1-.1-.2-.1l-.1-.1-3-1.5c-.5-.2-1.1 0-1.3.4-.2.5 0 1.1.4 1.3l1.2.6-1.2.6c-.5.2-.7.8-.4 1.3.2.4.5.6.9.6.2 0 .3 0 .4-.1l3-1.5c.1-.1.2-.1.3-.2v-.1s.1-.1.1-.2v-.1c0-.1 0-.1.1-.2v-.2c.1.2.1.2.1.1zM21 18c-.5-.1-1.1.2-1.2.7l-1.5 6c-.1.5.2 1.1.7 1.2h.2c.4 0 .9-.3 1-.8l1.5-6c.2-.4-.2-.9-.7-1.1z"/>
</svg>
