<svg xmlns="http://www.w3.org/2000/svg" viewBox="0 0 40 40">
    <path d="M17.5 23.5h-2c-.6 0-1 .4-1 1v3c0 .6.4 1 1 1h2c.6 0 1-.4 1-1v-3c0-.6-.4-1-1-1z"/>
    <path d="M31 13.9c0-.1 0-.2-.1-.3v-.1c0-.1-.1-.2-.2-.3l-6-6c-.1-.1-.2-.1-.3-.2h-.1c-.1 0-.2 0-.3-.1H10C9.4 7 9 7.4 9 8v24c0 .6.4 1 1 1h20c.6 0 1-.4 1-1V13.9c0 .1 0 .1 0 0zm-3.4-.9H25v-2.6l2.6 2.6zM11 31V9h4v1h-1c-.6 0-1 .4-1 1s.4 1 1 1h1v2h-1c-.6 0-1 .4-1 1s.4 1 1 1h1v2h-1c-.6 0-1 .4-1 1s.4 1 1 1h1v1c0 .6.4 1 1 1h2c.6 0 1-.4 1-1s-.4-1-1-1h-1v-2h1c.6 0 1-.4 1-1s-.4-1-1-1h-1v-2h1c.6 0 1-.4 1-1s-.4-1-1-1h-1V9h6v5c0 .6.4 1 1 1h5v16H11z"/>
</svg>
