<svg xmlns="http://www.w3.org/2000/svg" viewBox="0 0 40 40">
    <path d="M33.238 15.688a.98.98 0 0 0-.052-.259.986.986 0 0 0-.23-.386l-6-6a.984.984 0 0 0-.291-.195c-.032-.015-.064-.023-.096-.035a.98.98 0 0 0-.254-.05c-.022-.002-.042-.013-.065-.013h-14a1 1 0 0 0-1 1v24a1 1 0 0 0 1 1h20a1 1 0 0 0 1-1v-18c0-.021-.01-.04-.012-.062zm-3.402-.938H27.25v-2.586l2.586 2.586zm-16.586 18v-22h12v5a1 1 0 0 0 1 1h5v16h-18z"/>
    <path d="M17.25 21.25h7a.5.5 0 1 0 0-1h-7a.5.5 0 1 0 0 1zm10 3h-10a.5.5 0 1 0 0 1h10a.5.5 0 1 0 0-1zm0 4h-10a.5.5 0 1 0 0 1h10a.5.5 0 1 0 0-1zm-5.5-22.5a.5.5 0 0 0-.5-.5h-14a.5.5 0 0 0-.5.5v24a.5.5 0 1 0 1 0V6.25h13.5a.5.5 0 0 0 .5-.5z"/>
</svg>
