<?xml version="1.0" encoding="utf-8"?>
<!-- Generator: Adobe Illustrator 22.1.0, SVG Export Plug-In . SVG Version: 6.00 Build 0)  -->
<svg version="1.1" id="Layer_1" xmlns="http://www.w3.org/2000/svg" xmlns:xlink="http://www.w3.org/1999/xlink" x="0px" y="0px"
	 viewBox="0 0 40 40" style="enable-background:new 0 0 40 40;" xml:space="preserve">
<g>
	<path d="M31,13.9c0-0.1,0-0.2-0.1-0.3c0,0,0-0.1,0-0.1c0-0.1-0.1-0.2-0.2-0.3l-6-6c-0.1-0.1-0.2-0.1-0.3-0.2c0,0-0.1,0-0.1,0
		c-0.1,0-0.2,0-0.3-0.1c0,0,0,0-0.1,0H10C9.4,7,9,7.4,9,8v24c0,0.6,0.4,1,1,1h20c0.6,0,1-0.4,1-1L31,13.9C31,14,31,14,31,13.9z
		 M27.6,13H25v-2.6L27.6,13z M11,31V9h12v5c0,0.6,0.4,1,1,1h5v16H11z"/>
</g>
</svg>
