<svg xmlns="http://www.w3.org/2000/svg" viewBox="0 0 40 40">
    <path class="st0" d="M30.988 13.938a.986.986 0 0 0-.052-.259c-.01-.032-.019-.062-.033-.093a.989.989 0 0 0-.196-.293l-6-6a.989.989 0 0 0-.292-.195c-.032-.015-.064-.024-.097-.035a.987.987 0 0 0-.253-.05C24.043 7.01 24.022 7 24 7H10a1 1 0 0 0-1 1v24a1 1 0 0 0 1 1h20a1 1 0 0 0 1-1V14c0-.021-.01-.04-.012-.062zM25 10.415L27.586 13H25v-2.586zM29 31H11V9h12v5a1 1 0 0 0 1 1h5v16z"/>
    <path class="st0" d="M17.447 20.276a.5.5 0 0 0-.67-.223l-3 1.5c-.02.01-.03.025-.048.037a.476.476 0 0 0-.078.06.482.482 0 0 0-.063.081c-.01.016-.026.028-.035.045-.006.011-.005.023-.01.034a.48.48 0 0 0-.026.099.463.463 0 0 0-.012.091c0 .03.006.06.012.091a.48.48 0 0 0 .027.099c.004.01.003.023.009.034.006.012.019.016.025.027.035.058.08.107.136.148.015.01.027.024.043.033.007.004.012.011.02.015l3 1.5a.501.501 0 0 0 .447-.894L15.118 22l2.106-1.053a.5.5 0 0 0 .223-.67zm5.106 0a.5.5 0 0 0 .223.671L24.882 22l-2.106 1.053a.5.5 0 0 0 .448.894l3-1.5.02-.015c.015-.01.026-.022.041-.033a.485.485 0 0 0 .136-.147c.007-.012.02-.016.026-.028.006-.011.005-.023.01-.035a.49.49 0 0 0 .026-.097c.006-.031.012-.06.012-.092 0-.03-.006-.06-.012-.092a.49.49 0 0 0-.026-.097c-.005-.012-.004-.023-.01-.035-.009-.018-.025-.03-.036-.046a.484.484 0 0 0-.061-.079.482.482 0 0 0-.082-.063c-.016-.011-.027-.026-.044-.035l-3-1.5a.502.502 0 0 0-.671.223zm-1.682-1.761a.497.497 0 0 0-.606.364l-1.5 6a.5.5 0 1 0 .97.242l1.5-6a.5.5 0 0 0-.364-.606z"/>
</svg>
