<svg xmlns="http://www.w3.org/2000/svg" viewBox="0 0 40 40">
    <path d="M31 13.9c0-.1 0-.2-.1-.3v-.1c0-.1-.1-.2-.2-.3l-6-6c-.1-.1-.2-.1-.3-.2h-.1c-.1 0-.2 0-.3-.1H10C9.4 7 9 7.4 9 8v24c0 .6.4 1 1 1h20c.6 0 1-.4 1-1V13.9c0 .1 0 .1 0 0zm-3.4-.9H25v-2.6l2.6 2.6zM11 31V9h12v5c0 .6.4 1 1 1h5v16H11z"/>
    <path d="M14 18.3h2.7v6.6h1.7v-6.6H21V17h-7zM24.8 23.8c-.6 0-.8-.3-.8-.8v-2.8h1.9V19H24v-1.8l-1.6.5v1.4h-1.1v1.2h1.1v3.1c0 1.2.7 1.8 2 1.8.3 0 .6 0 .9-.1s.5-.2.7-.4l-.3-1.1c-.3.1-.6.2-.9.2z"/>
</svg>
