<svg xmlns="http://www.w3.org/2000/svg" viewBox="0 0 40 40">
    <path d="M31 13.9c0-.1 0-.2-.1-.3v-.1c0-.1-.1-.2-.2-.3l-6-6c-.1-.1-.2-.1-.3-.2h-.1c-.1 0-.2 0-.3-.1H10C9.4 7 9 7.4 9 8v24c0 .6.4 1 1 1h20c.6 0 1-.4 1-1V13.9c0 .1 0 .1 0 0zm-3.4-.9H25v-2.6l2.6 2.6zM11 31V9h12v5c0 .6.4 1 1 1h5v16H11z"/>
    <path d="M16.9 27c.2.1.5.2.9.2l-.1 1.1c-.9 0-1.5-.1-1.9-.4-.4-.3-.6-.8-.6-1.4v-1.9c0-.4-.1-.8-.3-1-.2-.2-.6-.3-1-.3v-1.1c.5 0 .8-.1 1-.3.2-.2.3-.5.3-1V19c0-.6.2-1.1.6-1.4.4-.3 1-.4 1.9-.4l.1 1.1c-.4 0-.7.1-.9.2s-.3.3-.3.7v2.1c0 .4-.1.7-.3 1-.2.2-.5.4-1 .5.4.1.7.3 1 .5.2.2.3.6.3 1v2.1c0 .2.1.4.3.6zm8.2-5.2c.2.2.6.3 1 .3v1.1c-.5 0-.8.1-1 .3-.2.2-.3.5-.3 1v1.9c0 .6-.2 1.1-.6 1.4s-1 .4-1.9.4l-.1-1.1c.4 0 .8-.1.9-.2.2-.1.3-.3.3-.7v-2.1c0-.4.1-.7.3-1s.5-.4 1-.5c-.4-.1-.7-.3-1-.5s-.3-.6-.3-1V19c0-.3-.1-.5-.3-.7s-.5-.2-.9-.2l.1-1.1c.9 0 1.5.1 1.9.4s.6.8.6 1.4v1.9c0 .6.1.9.3 1.1z"/>
</svg>
