<?xml version="1.0" encoding="utf-8"?>
<!-- Generator: Adobe Illustrator 22.1.0, SVG Export Plug-In . SVG Version: 6.00 Build 0)  -->
<svg version="1.1" id="Layer_1" xmlns="http://www.w3.org/2000/svg" xmlns:xlink="http://www.w3.org/1999/xlink" x="0px" y="0px"
	 viewBox="0 0 40 40" style="enable-background:new 0 0 40 40;" xml:space="preserve">
<g>
	<path d="M31,13.9c0-0.1,0-0.2-0.1-0.3c0,0,0-0.1,0-0.1c0-0.1-0.1-0.2-0.2-0.3l-6-6c-0.1-0.1-0.2-0.1-0.3-0.2c0,0-0.1,0-0.1,0
		c-0.1,0-0.2,0-0.3-0.1c0,0,0,0-0.1,0H10C9.4,7,9,7.4,9,8v24c0,0.6,0.4,1,1,1h20c0.6,0,1-0.4,1-1L31,13.9C31,14,31,14,31,13.9z
		 M27.6,13H25v-2.6L27.6,13z M11,31V9h12v5c0,0.6,0.4,1,1,1h5v16H11z"/>
	<polygon points="14,18.3 16.7,18.3 16.7,24.9 18.4,24.9 18.4,18.3 21,18.3 21,17 14,17 	"/>
	<path d="M24.8,23.8c-0.6,0-0.8-0.3-0.8-0.8v-2.8h1.9v-1.2h-1.9v-1.8l-1.6,0.5v1.4h-1.1v1.2h1.1v3.1c0,1.2,0.7,1.8,2,1.8
		c0.3,0,0.6,0,0.9-0.1s0.5-0.2,0.7-0.4l-0.3-1.1C25.4,23.7,25.1,23.8,24.8,23.8z"/>
</g>
</svg>
