<?xml version="1.0" encoding="utf-8"?>
<!-- Generator: Adobe Illustrator 22.1.0, SVG Export Plug-In . SVG Version: 6.00 Build 0)  -->
<svg version="1.1" id="Layer_1" xmlns="http://www.w3.org/2000/svg" xmlns:xlink="http://www.w3.org/1999/xlink" x="0px" y="0px"
	 viewBox="0 0 40 40" style="enable-background:new 0 0 40 40;" xml:space="preserve">
<g>
	<path d="M18,9h-8c-0.552,0-1,0.448-1,1v8c0,0.552,0.448,1,1,1h8c0.552,0,1-0.448,1-1v-8C19,9.448,18.552,9,18,9z M17,17h-6v-6h6V17
		z"/>
	<path d="M30,9h-8c-0.553,0-1,0.448-1,1v8c0,0.552,0.447,1,1,1h8c0.553,0,1-0.448,1-1v-8C31,9.448,30.553,9,30,9z M29,17h-6v-6h6V17
		z"/>
	<path d="M30,21h-8c-0.553,0-1,0.447-1,1v8c0,0.553,0.447,1,1,1h8c0.553,0,1-0.447,1-1v-8C31,21.447,30.553,21,30,21z M29,29h-6v-6
		h6V29z"/>
	<path d="M18,21h-8c-0.552,0-1,0.447-1,1v8c0,0.553,0.448,1,1,1h8c0.552,0,1-0.447,1-1v-8C19,21.447,18.552,21,18,21z M17,29h-6v-6
		h6V29z"/>
</g>
</svg>
