<?xml version="1.0" encoding="utf-8"?>
<!-- Generator: Adobe Illustrator 22.1.0, SVG Export Plug-In . SVG Version: 6.00 Build 0)  -->
<svg version="1.1" id="Layer_1" xmlns="http://www.w3.org/2000/svg" xmlns:xlink="http://www.w3.org/1999/xlink" x="0px" y="0px"
	 viewBox="0 0 40 40" style="enable-background:new 0 0 40 40;" xml:space="preserve">
<path d="M32.7,21.8l-3-3c0,0,0,0,0,0l-9-9c-0.4-0.4-1-0.4-1.4,0l-9,9c0,0,0,0,0,0l-3,3c-0.4,0.4-0.4,1,0,1.4
	c0.2,0.2,0.5,0.3,0.7,0.3s0.5-0.1,0.7-0.3l1.3-1.3v7.6c0,0.6,0.4,1,1,1h6h6h6c0.6,0,1-0.4,1-1v-7.6l1.3,1.3c0.2,0.2,0.5,0.3,0.7,0.3
	s0.5-0.1,0.7-0.3C33.1,22.8,33.1,22.2,32.7,21.8z M18,28.5v-6.2h4v6.2H18z M28,28.5h-4v-7.2c0-0.6-0.4-1-1-1h-6c-0.6,0-1,0.4-1,1
	v7.2h-4v-8.6l8-8l8,8V28.5z"/>
</svg>
