<?xml version="1.0" encoding="utf-8"?>
<!-- Generator: Adobe Illustrator 21.1.0, SVG Export Plug-In . SVG Version: 6.00 Build 0)  -->
<svg version="1.1" id="Layer_1" xmlns="http://www.w3.org/2000/svg" xmlns:xlink="http://www.w3.org/1999/xlink" x="0px" y="0px"
	 viewBox="0 0 40 40" style="enable-background:new 0 0 40 40;" xml:space="preserve">
<g>
	<path d="M32,9H8c-0.6,0-1,0.5-1,1v20c0,0.6,0.5,1,1,1h24c0.6,0,1-0.5,1-1V10C33,9.4,32.6,9,32,9z M31,11v9.5l-6.2-3.1
		c-0.5-0.2-1.1-0.1-1.5,0.2l-6.7,6.7c-0.4,0.4-1,0.5-1.5,0.2l-5.3-2.7c-0.3-0.1-0.6-0.2-0.8-0.1V11H31z"/>
	<path d="M15,22c2.8,0,5-2.3,5-5s-2.3-5-5-5s-5,2.3-5,5S12.2,22,15,22z M15,14c1.6,0,3,1.3,3,3s-1.3,3-3,3s-3-1.3-3-3S13.4,14,15,14
		z"/>
</g>
</svg>
