<?xml version="1.0" encoding="utf-8"?>
<!-- Generator: Adobe Illustrator 21.1.0, SVG Export Plug-In . SVG Version: 6.00 Build 0)  -->
<svg version="1.1" id="Layer_1" xmlns="http://www.w3.org/2000/svg" xmlns:xlink="http://www.w3.org/1999/xlink" x="0px" y="0px"
	 viewBox="0 0 40 40" style="enable-background:new 0 0 40 40;" xml:space="preserve">
<g>
	<path d="M32,23c-0.6,0-1,0.4-1,1v7H9v-7c0-0.6-0.4-1-1-1s-1,0.4-1,1v8c0,0.6,0.4,1,1,1h24c0.6,0,1-0.4,1-1v-8
		C33,23.4,32.6,23,32,23z"/>
	<path d="M19.5,24.5c0.1,0.1,0.3,0.2,0.5,0.2c0.2,0,0.4-0.1,0.5-0.2l4-4c0.2-0.2,0.3-0.5,0.2-0.8s-0.4-0.4-0.7-0.4l-3,0L21,8
		c0-0.6-0.4-1-1-1h0c-0.6,0-1,0.4-1,1l0,11.3l-3,0c-0.3,0-0.5,0.2-0.7,0.4c-0.1,0.3,0,0.6,0.2,0.8L19.5,24.5z"/>
	<path d="M12,29h16c0.6,0,1-0.4,1-1s-0.4-1-1-1H12c-0.6,0-1,0.4-1,1S11.4,29,12,29z"/>
	<path d="M28,13c0.6,0,1-0.4,1-1V8c0-0.6-0.4-1-1-1s-1,0.4-1,1v4C27,12.6,27.4,13,28,13z"/>
	<path d="M12,13c0.6,0,1-0.4,1-1V8c0-0.6-0.4-1-1-1s-1,0.4-1,1v4C11,12.6,11.4,13,12,13z"/>
</g>
</svg>
