<svg xmlns="http://www.w3.org/2000/svg" viewBox="0 0 40 40"><path d="M32 23c-.6 0-1 .4-1 1v7H9v-7c0-.6-.4-1-1-1s-1 .4-1 1v8c0 .6.4 1 1 1h24c.6 0 1-.4 1-1v-8c0-.6-.4-1-1-1z"/><path d="M19.5 24.5c.1.1.3.2.5.2s.4-.1.5-.2l4-4c.2-.2.3-.5.2-.8s-.4-.4-.7-.4h-3V8c0-.6-.4-1-1-1s-1 .4-1 1v11.3h-3c-.3 0-.5.2-.7.4-.1.3 0 .6.2.8l4 4zM12 29h16c.6 0 1-.4 1-1s-.4-1-1-1H12c-.6 0-1 .4-1 1s.4 1 1 1zM28 13c.6 0 1-.4 1-1V8c0-.6-.4-1-1-1s-1 .4-1 1v4c0 .6.4 1 1 1zM12 13c.6 0 1-.4 1-1V8c0-.6-.4-1-1-1s-1 .4-1 1v4c0 .6.4 1 1 1z"/></svg>