<?xml version="1.0" encoding="utf-8"?>
<!-- Generator: Adobe Illustrator 22.1.0, SVG Export Plug-In . SVG Version: 6.00 Build 0)  -->
<svg version="1.1" id="Layer_1" xmlns="http://www.w3.org/2000/svg" xmlns:xlink="http://www.w3.org/1999/xlink" x="0px" y="0px"
	 viewBox="0 0 40 40" style="enable-background:new 0 0 40 40;" xml:space="preserve">
<g>
	<path d="M20,7c-4.962,0-9,4.038-9,9c0,4.527,1.518,5.908,2.985,7.243c0.439,0.399,0.854,0.777,1.236,1.251
		c0.197,0.245,0.487,0.373,0.779,0.373c0.22,0,0.442-0.072,0.626-0.221c0.43-0.347,0.499-0.977,0.152-1.406
		c-0.479-0.595-0.972-1.043-1.448-1.477C14.028,20.579,13,19.643,13,16c0-3.86,3.14-7,7-7c3.859,0,7,3.14,7,7
		c0,3.643-1.028,4.579-2.331,5.764c-0.477,0.434-0.969,0.882-1.448,1.477c-0.346,0.43-0.278,1.06,0.152,1.406
		c0.185,0.148,0.406,0.221,0.626,0.221c0.293,0,0.582-0.128,0.78-0.373c0.381-0.474,0.796-0.852,1.235-1.251
		C27.482,21.908,29,20.527,29,16C29,11.038,24.963,7,20,7z"/>
	<path d="M21,12c0-0.552-0.448-1-1-1c-2.757,0-5,2.243-5,5c0,0.552,0.448,1,1,1s1-0.448,1-1c0-1.654,1.346-3,3-3
		C20.552,13,21,12.552,21,12z"/>
	<path d="M24,27h-8c-0.552,0-1,0.447-1,1s0.448,1,1,1h8c0.553,0,1-0.447,1-1S24.553,27,24,27z"/>
	<path d="M23,31h-6c-0.552,0-1,0.447-1,1s0.448,1,1,1h6c0.553,0,1-0.447,1-1S23.553,31,23,31z"/>
</g>
</svg>
