<svg xmlns="http://www.w3.org/2000/svg" viewBox="0 0 40 40"><path d="M20 7c-4.962 0-9 4.038-9 9 0 4.527 1.518 5.908 2.985 7.243.439.399.854.777 1.236 1.251a.998.998 0 0 0 1.405.152 1 1 0 0 0 .152-1.406c-.479-.595-.972-1.043-1.448-1.477C14.028 20.579 13 19.643 13 16c0-3.86 3.14-7 7-7 3.859 0 7 3.14 7 7 0 3.643-1.028 4.579-2.331 5.764-.477.434-.969.882-1.448 1.477a1 1 0 0 0 1.558 1.254c.381-.474.796-.852 1.235-1.251C27.482 21.908 29 20.527 29 16c0-4.962-4.037-9-9-9z"/><path d="M21 12a1 1 0 0 0-1-1c-2.757 0-5 2.243-5 5a1 1 0 0 0 2 0c0-1.654 1.346-3 3-3a1 1 0 0 0 1-1zM24 27h-8a1 1 0 1 0 0 2h8a1 1 0 1 0 0-2zM23 31h-6a1 1 0 1 0 0 2h6a1 1 0 1 0 0-2z"/></svg>