<svg id="Layer_1" xmlns="http://www.w3.org/2000/svg" viewBox="0 0 40 40">
    <style>
        @keyframes rotate {
            from { transform: rotate(0deg); }
            to { transform: rotate(360deg); }
        }
        g {
            animation: rotate infinite 2s linear;
            transform-origin: center
        }
    </style>
    <g class="outer">
        <path d="M6 21c-.6 0-1-.4-1-1 0-8.3 6.7-15 15-15 .6 0 1 .4 1 1s-.4 1-1 1C12.8 7 7 12.8 7 20c0 .6-.4 1-1 1zM20 35c-.6 0-1-.4-1-1s.4-1 1-1c7.2 0 13-5.8 13-13 0-.6.4-1 1-1s1 .4 1 1c0 8.3-6.7 15-15 15z"
        />
    </g>
    <g class="inner" style="animation-direction:reverse">
        <path d="M20 30c-5.5 0-10-4.5-10-10 0-.6.4-1 1-1s1 .4 1 1c0 4.4 3.6 8 8 8 .6 0 1 .4 1 1s-.4 1-1 1zM29 21c-.6 0-1-.4-1-1 0-4.4-3.6-8-8-8-.6 0-1-.4-1-1s.4-1 1-1c5.5 0 10 4.5 10 10 0 .6-.4 1-1 1z"
        />
    </g>
</svg>
