<?xml version="1.0" encoding="utf-8"?>
<svg version="1.1" id="Layer_1" xmlns="http://www.w3.org/2000/svg" xmlns:xlink="http://www.w3.org/1999/xlink" x="0px" y="0px"
	 viewBox="0 0 40 40" style="enable-background:new 0 0 40 40;" xml:space="preserve">
<style type="text/css">
	@keyframes rotate {
		from { transform: rotate(0deg); }
		to { transform: rotate(360deg); }
	}
	g {
		animation: rotate infinite 2s linear;
		transform-origin: center;
	}
	g.inner {
		animation-direction: reverse;
	}
</style>
<g class="outer">
	<path d="M6,21c-0.6,0-1-0.4-1-1c0-8.3,6.7-15,15-15c0.6,0,1,0.4,1,1s-0.4,1-1,1C12.8,7,7,12.8,7,20C7,20.6,6.6,21,6,21z"/>
	<path d="M20,35c-0.6,0-1-0.4-1-1s0.4-1,1-1c7.2,0,13-5.8,13-13c0-0.6,0.4-1,1-1s1,0.4,1,1C35,28.3,28.3,35,20,35z"/>
</g>
<g class="inner">
	<path d="M20,30c-5.5,0-10-4.5-10-10c0-0.6,0.4-1,1-1s1,0.4,1,1c0,4.4,3.6,8,8,8c0.6,0,1,0.4,1,1S20.6,30,20,30z"/>
	<path d="M29,21c-0.6,0-1-0.4-1-1c0-4.4-3.6-8-8-8c-0.6,0-1-0.4-1-1s0.4-1,1-1c5.5,0,10,4.5,10,10C30,20.6,29.6,21,29,21z"/>
</g>
</svg>
