<?xml version="1.0" encoding="utf-8"?>
<!-- Generator: Adobe Illustrator 22.1.0, SVG Export Plug-In . SVG Version: 6.00 Build 0)  -->
<svg version="1.1" id="Layer_1" xmlns="http://www.w3.org/2000/svg" xmlns:xlink="http://www.w3.org/1999/xlink" x="0px" y="0px"
	 viewBox="0 0 40 40" style="enable-background:new 0 0 40 40;" xml:space="preserve">
<g>
	<path d="M20,7c-5,0-9,4-9,9c0,4.6,7.3,15.4,8.2,16.6c0.2,0.3,0.5,0.4,0.8,0.4s0.6-0.2,0.8-0.4c0.8-1.2,8.2-12,8.2-16.6
		C29,11,25,7,20,7z M20,30.2C17.5,26.4,13,19,13,16c0-3.9,3.1-7,7-7c3.9,0,7,3.1,7,7C27,19,22.5,26.4,20,30.2z"/>
	<path d="M20,12c-2.2,0-4,1.8-4,4s1.8,4,4,4c2.2,0,4-1.8,4-4S22.2,12,20,12z M20,18c-1.1,0-2-0.9-2-2s0.9-2,2-2c1.1,0,2,0.9,2,2
		S21.1,18,20,18z"/>
</g>
</svg>
