<?xml version="1.0" encoding="utf-8"?>
<!-- Generator: Adobe Illustrator 21.1.0, SVG Export Plug-In . SVG Version: 6.00 Build 0)  -->
<svg version="1.1" id="Layer_1" xmlns="http://www.w3.org/2000/svg" xmlns:xlink="http://www.w3.org/1999/xlink" x="0px" y="0px"
	 viewBox="0 0 40 40" style="enable-background:new 0 0 40 40;" xml:space="preserve">
<path d="M26.2,17.8v-3h0c-0.3-3.1-2.8-5.5-6-5.5c-3.1,0-5.7,2.4-6,5.5h0v3c-1.7,0-3,1.3-3,3v7c0,1.7,1.3,3,3,3h12c1.7,0,3-1.3,3-3
	v-7C29.2,19.1,27.8,17.8,26.2,17.8z M21.2,26.2c0,0.6-0.4,1-1,1s-1-0.4-1-1v-4c0-0.6,0.4-1,1-1s1,0.4,1,1V26.2z M24.2,17.8h-8v-2.5
	c0-2.2,1.8-4,4-4s4,1.8,4,4V17.8z"/>
</svg>
