<?xml version="1.0" encoding="utf-8"?>
<!-- Generator: Adobe Illustrator 22.1.0, SVG Export Plug-In . SVG Version: 6.00 Build 0)  -->
<svg version="1.1" id="Layer_1" xmlns="http://www.w3.org/2000/svg" xmlns:xlink="http://www.w3.org/1999/xlink" x="0px" y="0px"
	 viewBox="0 0 40 40" style="enable-background:new 0 0 40 40;" xml:space="preserve">
<g>
	<path d="M26,17.8v-3h0c-0.3-3.1-2.8-5.5-6-5.5s-5.7,2.4-6,5.5h0v3c-1.7,0-3,1.3-3,3v7c0,1.7,1.3,3,3,3h12c1.7,0,3-1.3,3-3v-7
		C29,19.1,27.7,17.8,26,17.8z M16,15.2c0-2.2,1.8-4,4-4s4,1.8,4,4v2.5h-8V15.2z M27,27.8c0,0.6-0.4,1-1,1H14c-0.6,0-1-0.4-1-1v-7
		c0-0.6,0.4-1,1-1h12c0.6,0,1,0.4,1,1V27.8z"/>
	<path d="M20,21.2c-0.6,0-1,0.4-1,1v4c0,0.6,0.4,1,1,1s1-0.4,1-1v-4C21,21.7,20.6,21.2,20,21.2z"/>
</g>
</svg>
