<?xml version="1.0" encoding="utf-8"?>
<!-- Generator: Adobe Illustrator 21.1.0, SVG Export Plug-In . SVG Version: 6.00 Build 0)  -->
<svg version="1.1" id="Layer_1" xmlns="http://www.w3.org/2000/svg" xmlns:xlink="http://www.w3.org/1999/xlink" x="0px" y="0px"
	 viewBox="0 0 40 40" style="enable-background:new 0 0 40 40;" xml:space="preserve">
<g>
	<path d="M25.3,29H14.7c-0.3,0-0.5-0.2-0.5-0.5v-8c0-0.3,0.2-0.5,0.5-0.5h10.7c0.3,0,0.5,0.2,0.5,0.5v8C25.8,28.8,25.6,29,25.3,29z
		 M15.2,28h9.7v-7h-9.7V28z"/>
</g>
<g>
	<path d="M24,17.5c-0.3,0-0.5-0.2-0.5-0.5c0-1.9-1.6-3.5-3.5-3.5s-3.5,1.6-3.5,3.5c0,0.3-0.2,0.5-0.5,0.5s-0.5-0.2-0.5-0.5
		c0-2.5,2-4.5,4.5-4.5s4.5,2,4.5,4.5C24.5,17.3,24.3,17.5,24,17.5z"/>
</g>
<g>
	<path d="M20,26c-0.3,0-0.5-0.2-0.5-0.5v-2c0-0.3,0.2-0.5,0.5-0.5s0.5,0.2,0.5,0.5v2C20.5,25.8,20.3,26,20,26z"/>
</g>
</svg>
