<?xml version="1.0" encoding="utf-8"?>
<!-- Generator: Adobe Illustrator 22.1.0, SVG Export Plug-In . SVG Version: 6.00 Build 0)  -->
<svg version="1.1" id="Layer_1" xmlns="http://www.w3.org/2000/svg" xmlns:xlink="http://www.w3.org/1999/xlink" x="0px" y="0px"
	 viewBox="0 0 40 40" style="enable-background:new 0 0 40 40;" xml:space="preserve">
<path d="M31.3,12.7c-0.1-0.1-0.1-0.3-0.3-0.4c-0.5-0.4-1.2-0.7-1.8-0.7H29H11h-0.2c-0.7,0-1.3,0.2-1.8,0.7c-0.1,0.1-0.2,0.2-0.3,0.4
	C8.3,13.2,8,13.9,8,14.7v9v1.7v0.2c0,1.6,1.3,2.8,2.8,2.8H11h18h0.2c1.6,0,2.8-1.3,2.8-2.8v-0.2v-1.7v-9
	C32,13.9,31.7,13.2,31.3,12.7z M10,14.7l4.7,4L10,21.8V14.7z M30,14.7v7.1l-4.7-3.1L30,14.7z M28.1,13.7L20,20.5l-8.1-6.9H28.1z
	 M11,26.3c-0.6,0-1-0.4-1-1v-1.1l6.3-4.2l3.1,2.6l0,0c0,0,0,0,0,0l0,0c0.1,0,0.1,0.1,0.2,0.1c0,0,0.1,0.1,0.1,0.1
	c0.2,0.1,0.5,0.1,0.7,0c0,0,0.1,0,0.1-0.1c0.1,0,0.1-0.1,0.2-0.1l0,0c0,0,0,0,0,0l0,0l3.1-2.6l6.3,4.2v1.1c0,0.6-0.4,1-1,1H11z"/>
</svg>
