<?xml version="1.0" encoding="utf-8"?>
<!-- Generator: Adobe Illustrator 21.1.0, SVG Export Plug-In . SVG Version: 6.00 Build 0)  -->
<svg version="1.1" id="Layer_1" xmlns="http://www.w3.org/2000/svg" xmlns:xlink="http://www.w3.org/1999/xlink" x="0px" y="0px"
	 viewBox="0 0 40 40" style="enable-background:new 0 0 40 40;" xml:space="preserve">
<g>
	<path d="M31.9,13.4l-6.2,5.2l6.3,4.2V14C32,13.8,32,13.6,31.9,13.4z"/>
	<path d="M8.1,13.4C8,13.6,8,13.8,8,14v8.8l6.3-4.2L8.1,13.4z"/>
	<path d="M20.6,22.8C20.5,22.9,20.2,23,20,23s-0.5-0.1-0.6-0.2l-3.4-2.9L8,25.2V26c0,1.1,0.9,2,2,2h20c1.1,0,2-0.9,2-2v-0.8
		l-7.9-5.3L20.6,22.8z"/>
	<path d="M30.4,12L30.4,12L30.4,12c-0.1,0-0.3,0-0.4,0H10c-0.1,0-0.3,0-0.4,0L20,20.7L30.4,12z"/>
</g>
</svg>
