<?xml version="1.0" encoding="utf-8"?>
<!-- Generator: Adobe Illustrator 21.1.0, SVG Export Plug-In . SVG Version: 6.00 Build 0)  -->
<svg version="1.1" id="Layer_1" xmlns="http://www.w3.org/2000/svg" xmlns:xlink="http://www.w3.org/1999/xlink" x="0px" y="0px"
	 viewBox="0 0 40 40" style="enable-background:new 0 0 40 40;" xml:space="preserve">
<g>
	<path d="M28,17.5c-0.3,0-0.5,0.2-0.5,0.5v7.5h-15v-11H28c0.3,0,0.5-0.2,0.5-0.5s-0.2-0.5-0.5-0.5H12c-0.3,0-0.5,0.2-0.5,0.5v12
		c0,0.3,0.2,0.5,0.5,0.5h16c0.3,0,0.5-0.2,0.5-0.5v-8C28.5,17.7,28.3,17.5,28,17.5z"/>
	<path d="M23.6,17.6L20,21.3l-3.6-3.6c-0.2-0.2-0.5-0.2-0.7,0s-0.2,0.5,0,0.7l4,4c0.1,0.1,0.2,0.1,0.4,0.1s0.3,0,0.4-0.1l4-4
		c0.2-0.2,0.2-0.5,0-0.7S23.8,17.5,23.6,17.6z"/>
</g>
</svg>
