<?xml version="1.0" encoding="utf-8"?>
<!-- Generator: Adobe Illustrator 21.1.0, SVG Export Plug-In . SVG Version: 6.00 Build 0)  -->
<svg version="1.1" id="Layer_1" xmlns="http://www.w3.org/2000/svg" xmlns:xlink="http://www.w3.org/1999/xlink" x="0px" y="0px"
	 viewBox="0 0 40 40" style="enable-background:new 0 0 40 40;" xml:space="preserve">
<g>
	<path d="M40,12c0-0.6-0.4-1-1-1H19c-0.6,0-1,0.4-1,1s0.4,1,1,1h20C39.6,13,40,12.6,40,12z"/>
	<path d="M39,19H23c-0.6,0-1,0.4-1,1s0.4,1,1,1h16c0.6,0,1-0.4,1-1S39.6,19,39,19z"/>
	<path d="M39,27H27c-0.6,0-1,0.4-1,1s0.4,1,1,1h12c0.6,0,1-0.4,1-1S39.6,27,39,27z"/>
</g>
</svg>
