<svg xmlns="http://www.w3.org/2000/svg" viewBox="0 0 40 40"><path d="M30 9.355H17c-1.654 0-3 1.346-3 3v1h-4c-1.654 0-3 1.346-3 3v8c0 1.654 1.346 3 3 3h1v1.785a1.5 1.5 0 0 0 1.505 1.504c.391 0 .773-.153 1.061-.441l2.849-2.848H23a3.004 3.004 0 0 0 2.76-1.826l.673.673a1.497 1.497 0 0 0 1.638.328c.565-.233.929-.779.929-1.389v-1.785h1c1.654 0 3-1.346 3-3v-8a3.004 3.004 0 0 0-3-3.001zM24 23.77v.586a1 1 0 0 1-1 1h-7a.996.996 0 0 0-.707.293L13 27.941v-1.585a1 1 0 0 0-1-1h-2a1 1 0 0 1-1-1v-8a1 1 0 0 1 1-1h4v5c0 1.654 1.346 3 3 3h6.586l.414.414zm7-3.414a1 1 0 0 1-1 1h-2a1 1 0 0 0-1 1v1.585l-2.293-2.292a.997.997 0 0 0-.707-.293h-7a1 1 0 0 1-1-1v-8c0-.551.448-1 1-1h13c.552 0 1 .449 1 1v8z"/></svg>