<?xml version="1.0" encoding="utf-8"?>
<!-- Generator: Adobe Illustrator 22.1.0, SVG Export Plug-In . SVG Version: 6.00 Build 0)  -->
<svg version="1.1" id="Layer_1" xmlns="http://www.w3.org/2000/svg" xmlns:xlink="http://www.w3.org/1999/xlink" x="0px" y="0px"
	 viewBox="0 0 40 40" style="enable-background:new 0 0 40 40;" xml:space="preserve">
<path d="M30,9.355H17c-1.654,0-3,1.346-3,3v1h-4c-1.654,0-3,1.346-3,3v8c0,1.654,1.346,3,3,3h1v1.785c0,0.61,0.364,1.156,0.929,1.39
	c0.188,0.077,0.383,0.114,0.576,0.114c0.391,0,0.773-0.153,1.061-0.441l2.849-2.848H23c1.238,0,2.302-0.754,2.76-1.826l0.673,0.673
	c0.288,0.289,0.671,0.442,1.062,0.442c0.194,0,0.39-0.037,0.576-0.114C28.636,26.297,29,25.751,29,25.141v-1.785h1
	c1.654,0,3-1.346,3-3v-8C33,10.701,31.654,9.355,30,9.355z M24,23.77v0.586c0,0.552-0.448,1-1,1h-7c-0.266,0-0.52,0.105-0.707,0.293
	L13,27.941v-1.585c0-0.553-0.447-1-1-1h-2c-0.552,0-1-0.448-1-1v-8c0-0.552,0.448-1,1-1h4v5c0,1.654,1.346,3,3,3h6.586L24,23.77z
	 M31,20.356c0,0.552-0.448,1-1,1h-2c-0.553,0-1,0.447-1,1v1.585l-2.293-2.292c-0.188-0.188-0.441-0.293-0.707-0.293h-7
	c-0.552,0-1-0.448-1-1v-6v-2c0-0.551,0.448-1,1-1h13c0.552,0,1,0.449,1,1V20.356z"/>
</svg>
