<?xml version="1.0" encoding="utf-8"?>
<!-- Generator: Adobe Illustrator 21.1.0, SVG Export Plug-In . SVG Version: 6.00 Build 0)  -->
<svg version="1.1" id="Layer_1" xmlns="http://www.w3.org/2000/svg" xmlns:xlink="http://www.w3.org/1999/xlink" x="0px" y="0px"
	 viewBox="0 0 40 40" style="enable-background:new 0 0 40 40;" xml:space="preserve">
<style type="text/css">
	.st0{fill-rule:evenodd;clip-rule:evenodd;}
</style>
<g>
	<path class="st0" d="M30,11.4H17c-1.1,0-2,0.9-2,2v2v6c0,1.1,0.9,2,2,2h7l1,1l0,0l2.1,2.1c0.1,0.1,0.2,0.1,0.4,0.1
		c0.3,0,0.5-0.2,0.5-0.5v-2.8h2c1.1,0,2-0.9,2-2v-8C32,12.3,31.1,11.4,30,11.4z"/>
	<path class="st0" d="M17,24.9c-1.9,0-3.5-1.6-3.5-3.5v-6H10c-1.1,0-2,0.9-2,2v8c0,1.1,0.9,2,2,2h2v2.8c0,0.4,0.5,0.7,0.9,0.4
		l3.1-3.1h7c0.8,0,1.4-0.5,1.8-1.1l-1.4-1.4H17z"/>
</g>
</svg>
