<svg xmlns="http://www.w3.org/2000/svg" viewBox="0 0 40 40"><path d="M32.6 12.2l-12-6.9c-.3-.2-.7-.2-1 0l-12 6.9c-.3.2-.5.5-.5.9V27c0 .4.2.7.5.9l3.9 2.3c1.5.9 2.9.3 3.7-.5.8-.8 1.2-1.8 1.2-3.2V14.1H14V26c0 .9-.2 1.6-.5 2.1-.3.4-.6.4-1.3 0L9 26.3V13.6l11-6.4 11 6.4v12.7l-11 6.4-2.8-1.7c-.5-.3-1.1-.1-1.4.4-.3.5-.1 1.1.4 1.4l3.4 2c.2.1.3.1.5.1s.3 0 .5-.1l12-6.9c.3-.2.5-.5.5-.9V13.1c0-.4-.2-.7-.5-.9z"/><path d="M24.9 23.5c-.4.2-.9.3-1.7.3-.8 0-1.5-.1-2-.4-.5-.3-1-.8-1.5-1.4l-1.4 1.7c.5.7 1.1 1.2 1.9 1.6.8.3 1.8.5 3.1.5.9 0 1.7-.1 2.4-.4.7-.3 1.3-.7 1.6-1.2.4-.5.6-1.1.6-1.8 0-.6-.1-1.2-.4-1.6-.3-.4-.7-.8-1.3-1.1-.6-.3-1.4-.5-2.4-.7-1-.2-1.7-.4-2-.6-.4-.2-.6-.5-.6-.9s.2-.8.6-1c.4-.3.9-.4 1.6-.4.8 0 1.4.2 1.9.5s.9.8 1.2 1.4l1.6-1.6c-.6-.8-1.2-1.3-2-1.7-.8-.3-1.7-.5-2.7-.5-.9 0-1.8.2-2.5.5s-1.2.7-1.6 1.3c-.4.5-.5 1.2-.5 1.8 0 .6.1 1.2.4 1.6.3.4.7.8 1.4 1.1.6.3 1.5.6 2.5.8.9.2 1.6.4 1.9.6s.5.5.5.8c0 .3-.2.6-.6.8z"/></svg>