<?xml version="1.0" encoding="utf-8"?>
<!-- Generator: Adobe Illustrator 21.1.0, SVG Export Plug-In . SVG Version: 6.00 Build 0)  -->
<svg version="1.1" id="Layer_1" xmlns="http://www.w3.org/2000/svg" xmlns:xlink="http://www.w3.org/1999/xlink" x="0px" y="0px"
	 viewBox="0 0 40 40" style="enable-background:new 0 0 40 40;" xml:space="preserve">
<g>
	<path d="M32.6,12.2l-12-6.9c-0.3-0.2-0.7-0.2-1,0l-12,6.9c-0.3,0.2-0.5,0.5-0.5,0.9v13.9c0,0.4,0.2,0.7,0.5,0.9l3.9,2.3
		c0,0,0,0,0,0l0,0c1.5,0.9,2.9,0.3,3.7-0.5c0.8-0.8,1.2-1.8,1.2-3.2V14.1H14v11.9c0,0.9-0.2,1.6-0.5,2.1c-0.3,0.4-0.6,0.4-1.3,0
		l-3.2-1.8V13.6l11-6.4l11,6.4v12.7l-11,6.4L17.2,31c-0.5-0.3-1.1-0.1-1.4,0.4c-0.3,0.5-0.1,1.1,0.4,1.4l3.4,2
		c0.2,0.1,0.3,0.1,0.5,0.1s0.3,0,0.5-0.1l12-6.9c0.3-0.2,0.5-0.5,0.5-0.9V13.1C33.1,12.7,32.9,12.4,32.6,12.2z"/>
	<path d="M24.9,23.5c-0.4,0.2-0.9,0.3-1.7,0.3c-0.8,0-1.5-0.1-2-0.4c-0.5-0.3-1-0.8-1.5-1.4l-1.4,1.7c0.5,0.7,1.1,1.2,1.9,1.6
		c0.8,0.3,1.8,0.5,3.1,0.5c0.9,0,1.7-0.1,2.4-0.4c0.7-0.3,1.3-0.7,1.6-1.2c0.4-0.5,0.6-1.1,0.6-1.8c0-0.6-0.1-1.2-0.4-1.6
		c-0.3-0.4-0.7-0.8-1.3-1.1c-0.6-0.3-1.4-0.5-2.4-0.7c-1-0.2-1.7-0.4-2-0.6c-0.4-0.2-0.6-0.5-0.6-0.9c0-0.4,0.2-0.8,0.6-1
		c0.4-0.3,0.9-0.4,1.6-0.4c0.8,0,1.4,0.2,1.9,0.5c0.5,0.3,0.9,0.8,1.2,1.4l1.6-1.6c-0.6-0.8-1.2-1.3-2-1.7c-0.8-0.3-1.7-0.5-2.7-0.5
		c-0.9,0-1.8,0.2-2.5,0.5s-1.2,0.7-1.6,1.3c-0.4,0.5-0.5,1.2-0.5,1.8c0,0.6,0.1,1.2,0.4,1.6c0.3,0.4,0.7,0.8,1.4,1.1
		c0.6,0.3,1.5,0.6,2.5,0.8c0.9,0.2,1.6,0.4,1.9,0.6s0.5,0.5,0.5,0.8C25.5,23,25.3,23.3,24.9,23.5z"/>
</g>
</svg>
