<?xml version="1.0" encoding="utf-8"?>
<!-- Generator: Adobe Illustrator 21.1.0, SVG Export Plug-In . SVG Version: 6.00 Build 0)  -->
<svg version="1.1" id="Layer_1" xmlns="http://www.w3.org/2000/svg" xmlns:xlink="http://www.w3.org/1999/xlink" x="0px" y="0px"
	 viewBox="0 0 40 40" style="enable-background:new 0 0 40 40;" xml:space="preserve">
<path d="M19.5,8.6C13.4,8.9,8.3,13.9,8,20.1c-0.2,4.8,2.3,9,6.2,11.1c1,0.5,2.3,0,2.6-1l1.4-4.2c0.3-0.8,0-1.6-0.7-2.1
	c-1.2-0.9-1.9-2.5-1.4-4.2c0.4-1.4,1.5-2.5,2.9-2.9c2.6-0.6,5,1.4,5,3.9c0,1.3-0.6,2.5-1.6,3.2c-0.6,0.5-0.9,1.3-0.7,2.1l1.4,4.2
	c0.4,1.1,1.6,1.6,2.6,1c3.7-2,6.2-6,6.2-10.5C32,13.8,26.4,8.4,19.5,8.6z"/>
</svg>
