<svg xmlns="http://www.w3.org/2000/svg" viewBox="0 0 40 40">
    <path d="M34.2 15L23 13.2V10c0-.5-.4-.9-.9-1l-16-2c-.3 0-.5.1-.8.3-.2.1-.3.4-.3.7v24c0 .6.4 1 1 1h28c.6 0 1-.4 1-1V16c0-.5-.4-.9-.8-1zM7 9.1l14 1.8V31h-4v-5c0-.6-.4-1-1-1h-4c-.6 0-1 .4-1 1v5H7V9.1zM13 31v-4h2v4h-2zm14 0v-4h2v4h-2zm6 0h-2v-5c0-.6-.4-1-1-1h-4c-.6 0-1 .4-1 1v5h-2V15.2l10 1.7V31z"/>
    <path d="M10 13.8h2c.6 0 1-.4 1-1s-.4-1-1-1h-2c-.6 0-1 .4-1 1s.4 1 1 1zM10 17.8h2c.6 0 1-.4 1-1s-.4-1-1-1h-2c-.6 0-1 .4-1 1s.4 1 1 1zM12 21.8c.6 0 1-.4 1-1s-.4-1-1-1h-2c-.6 0-1 .4-1 1s.4 1 1 1h2zM16 13.8h2c.6 0 1-.4 1-1s-.4-1-1-1h-2c-.6 0-1 .4-1 1s.4 1 1 1zM16 17.8h2c.6 0 1-.4 1-1s-.4-1-1-1h-2c-.6 0-1 .4-1 1s.4 1 1 1zM16 21.8h2c.6 0 1-.4 1-1s-.4-1-1-1h-2c-.6 0-1 .4-1 1s.4 1 1 1zM25.9 21.8h4c.6 0 1-.4 1-1s-.4-1-1-1h-4c-.6 0-1 .4-1 1s.5 1 1 1z"/>
</svg>
