<?xml version="1.0" encoding="utf-8"?>
<!-- Generator: Adobe Illustrator 22.1.0, SVG Export Plug-In . SVG Version: 6.00 Build 0)  -->
<svg version="1.1" id="Layer_1" xmlns="http://www.w3.org/2000/svg" xmlns:xlink="http://www.w3.org/1999/xlink" x="0px" y="0px"
	 viewBox="0 0 40 40" style="enable-background:new 0 0 40 40;" xml:space="preserve">
<g>
	<path d="M34.2,15L23,13.2V10c0-0.5-0.4-0.9-0.9-1l-16-2C5.8,7,5.6,7.1,5.3,7.3C5.1,7.4,5,7.7,5,8v24c0,0.6,0.4,1,1,1h6h4h6h4h4h4
		c0.6,0,1-0.4,1-1V16C35,15.5,34.6,15.1,34.2,15z M7,9.1l14,1.8V14v17h-4v-5c0-0.6-0.4-1-1-1h-4c-0.6,0-1,0.4-1,1v5H7V9.1z M13,31
		v-4h2v4H13z M27,31v-4h2v4H27z M33,31h-2v-5c0-0.6-0.4-1-1-1h-4c-0.6,0-1,0.4-1,1v5h-2V15.2l10,1.7V31z"/>
	<path d="M10,13.8h2c0.6,0,1-0.4,1-1s-0.4-1-1-1h-2c-0.6,0-1,0.4-1,1S9.4,13.8,10,13.8z"/>
	<path d="M10,17.8h2c0.6,0,1-0.4,1-1s-0.4-1-1-1h-2c-0.6,0-1,0.4-1,1S9.4,17.8,10,17.8z"/>
	<path d="M12,21.8c0.6,0,1-0.4,1-1c0-0.6-0.4-1-1-1h-2c-0.6,0-1,0.4-1,1c0,0.6,0.4,1,1,1H12z"/>
	<path d="M16,13.8h2c0.6,0,1-0.4,1-1s-0.4-1-1-1h-2c-0.6,0-1,0.4-1,1S15.4,13.8,16,13.8z"/>
	<path d="M16,17.8h2c0.6,0,1-0.4,1-1s-0.4-1-1-1h-2c-0.6,0-1,0.4-1,1S15.4,17.8,16,17.8z"/>
	<path d="M16,21.8h2c0.6,0,1-0.4,1-1c0-0.6-0.4-1-1-1h-2c-0.6,0-1,0.4-1,1C15,21.4,15.4,21.8,16,21.8z"/>
	<path d="M25.9,21.8h4c0.6,0,1-0.4,1-1c0-0.6-0.4-1-1-1h-4c-0.6,0-1,0.4-1,1C24.9,21.4,25.4,21.8,25.9,21.8z"/>
</g>
</svg>
