<?xml version="1.0" encoding="utf-8"?>
<!-- Generator: Adobe Illustrator 21.1.0, SVG Export Plug-In . SVG Version: 6.00 Build 0)  -->
<svg version="1.1" id="Layer_1" xmlns="http://www.w3.org/2000/svg" xmlns:xlink="http://www.w3.org/1999/xlink" x="0px" y="0px"
	 viewBox="0 0 40 40" style="enable-background:new 0 0 40 40;" xml:space="preserve">
<g>
	<g>
		<path d="M27.9,13.6l-4.7-4.7c-0.3-0.3-0.9-0.1-0.9,0.4V14c0,0.3,0.2,0.5,0.5,0.5h4.7C27.9,14.5,28.2,14,27.9,13.6z"/>
	</g>
	<path d="M28,16.5c0-0.3-0.2-0.5-0.5-0.5h-6.4c-0.3,0-0.5-0.2-0.5-0.5l0-6.2c0-0.3-0.2-0.5-0.5-0.5h-5.7c-1.3,0-2.4,1.1-2.4,2.4
		v17.6c0,1.3,1.1,2.4,2.4,2.4h11.2c1.3,0,2.4-1.1,2.4-2.4L28,16.5z M16,19.2h4c0.4,0,0.8,0.3,0.8,0.8s-0.3,0.8-0.8,0.8h-4
		c-0.4,0-0.8-0.3-0.8-0.8S15.6,19.2,16,19.2z M24,28.8h-8c-0.4,0-0.8-0.3-0.8-0.8s0.3-0.8,0.8-0.8h8c0.4,0,0.8,0.3,0.8,0.8
		S24.4,28.8,24,28.8z M24,24.8h-8c-0.4,0-0.8-0.3-0.8-0.8s0.3-0.8,0.8-0.8h8c0.4,0,0.8,0.3,0.8,0.8S24.4,24.8,24,24.8z"/>
</g>
</svg>
