<?xml version="1.0" encoding="utf-8"?>
<!-- Generator: Adobe Illustrator 21.1.0, SVG Export Plug-In . SVG Version: 6.00 Build 0)  -->
<svg version="1.1" id="Layer_1" xmlns="http://www.w3.org/2000/svg" xmlns:xlink="http://www.w3.org/1999/xlink" x="0px" y="0px"
	 viewBox="0 0 40 40" style="enable-background:new 0 0 40 40;" xml:space="preserve">
<g>
	<path d="M28.8,18.4c0-0.3-0.2-0.5-0.5-0.5s-0.5,0.2-0.5,0.5l0,11.2H12.2l0-19.1H20c0.3,0,0.5-0.2,0.5-0.5S20.3,9.5,20,9.5h-8.3
		c-0.1,0-0.3,0.1-0.4,0.1s-0.1,0.2-0.1,0.4l0,20.1c0,0.3,0.2,0.5,0.5,0.5h16.6c0.1,0,0.3-0.1,0.4-0.1s0.1-0.2,0.1-0.4L28.8,18.4z"/>
	<path d="M23.3,15.5h5c0.2,0,0.4-0.1,0.5-0.3s0-0.4-0.1-0.5l-5-5c-0.1-0.1-0.4-0.2-0.5-0.1s-0.3,0.3-0.3,0.5v5
		C22.8,15.3,23.1,15.5,23.3,15.5z M23.8,11.2l3.3,3.3h-3.3V11.2z"/>
	<path d="M15,13.9h5c0.3,0,0.5-0.2,0.5-0.5s-0.2-0.5-0.5-0.5h-5c-0.3,0-0.5,0.2-0.5,0.5S14.7,13.9,15,13.9z"/>
	<path d="M15,17.2h5c0.3,0,0.5-0.2,0.5-0.5s-0.2-0.5-0.5-0.5h-5c-0.3,0-0.5,0.2-0.5,0.5S14.7,17.2,15,17.2z"/>
	<path d="M25,19.5H15c-0.3,0-0.5,0.2-0.5,0.5s0.2,0.5,0.5,0.5h10c0.3,0,0.5-0.2,0.5-0.5S25.3,19.5,25,19.5z"/>
	<path d="M25,22.9H15c-0.3,0-0.5,0.2-0.5,0.5s0.2,0.5,0.5,0.5h10c0.3,0,0.5-0.2,0.5-0.5S25.3,22.9,25,22.9z"/>
	<path d="M25,26.2H15c-0.3,0-0.5,0.2-0.5,0.5s0.2,0.5,0.5,0.5h10c0.3,0,0.5-0.2,0.5-0.5S25.3,26.2,25,26.2z"/>
</g>
</svg>
