<svg xmlns="http://www.w3.org/2000/svg" viewBox="0 0 40 40"><path d="M29 16c0-.1 0-.3-.1-.4-.1-.1-.1-.2-.2-.3l-7.4-7.2-.1-.1c-.1 0-.2-.1-.2-.1h-.2-6.3c-1.9 0-3.4 1.5-3.4 3.4v17.6c0 1.9 1.5 3.4 3.4 3.4h11.2c1.9 0 3.4-1.5 3.4-3.4L29 16zm-7.4-4.8l3.9 3.8h-3.9v-3.8zm4 19H14.4c-.8 0-1.4-.6-1.4-1.4V11.2c0-.8.6-1.4 1.4-1.4h5.2V16c0 .3.1.5.3.7.2.2.4.3.7.3H27v11.8c0 .8-.6 1.4-1.4 1.4z"/><path d="M24 26h-8c-.6 0-1 .4-1 1s.4 1 1 1h8c.6 0 1-.4 1-1s-.4-1-1-1zM24 22h-8c-.6 0-1 .4-1 1s.4 1 1 1h8c.6 0 1-.4 1-1s-.4-1-1-1zM16 20h4c.6 0 1-.4 1-1s-.4-1-1-1h-4c-.6 0-1 .4-1 1s.4 1 1 1z"/></svg>