<?xml version="1.0" encoding="utf-8"?>
<!-- Generator: Adobe Illustrator 22.1.0, SVG Export Plug-In . SVG Version: 6.00 Build 0)  -->
<svg version="1.1" id="Layer_1" xmlns="http://www.w3.org/2000/svg" xmlns:xlink="http://www.w3.org/1999/xlink" x="0px" y="0px"
	 viewBox="0 0 40 40" style="enable-background:new 0 0 40 40;" xml:space="preserve">
<g>
	<path d="M29,16C29,16,29,16,29,16c0-0.1,0-0.3-0.1-0.4c-0.1-0.1-0.1-0.2-0.2-0.3c0,0,0,0,0,0l-7.4-7.2c0,0-0.1-0.1-0.1-0.1
		C21.1,8,21,7.9,21,7.9c-0.1,0-0.2,0-0.2,0c0,0-0.1,0-0.1,0h-6.2c-1.9,0-3.4,1.5-3.4,3.4v17.6c0,1.9,1.5,3.4,3.4,3.4h11.2
		c1.9,0,3.4-1.5,3.4-3.4L29,16z M21.6,11.2l3.9,3.8h-3.9L21.6,11.2z M25.6,30.2H14.4c-0.8,0-1.4-0.6-1.4-1.4V11.2
		c0-0.8,0.6-1.4,1.4-1.4h5.2l0,6.2c0,0.3,0.1,0.5,0.3,0.7c0.2,0.2,0.4,0.3,0.7,0.3H27l0,11.8C27,29.6,26.4,30.2,25.6,30.2z"/>
	<path d="M24,26h-8c-0.6,0-1,0.4-1,1s0.4,1,1,1h8c0.6,0,1-0.4,1-1S24.6,26,24,26z"/>
	<path d="M24,22h-8c-0.6,0-1,0.4-1,1s0.4,1,1,1h8c0.6,0,1-0.4,1-1S24.6,22,24,22z"/>
	<path d="M16,20h4c0.6,0,1-0.4,1-1s-0.4-1-1-1h-4c-0.6,0-1,0.4-1,1S15.4,20,16,20z"/>
</g>
</svg>
