<?xml version="1.0" encoding="utf-8"?>
<svg version="1.1" id="Layer_1" xmlns="http://www.w3.org/2000/svg" xmlns:xlink="http://www.w3.org/1999/xlink" x="0px" y="0px"
	 viewBox="0 0 40 40" style="enable-background:new 0 0 40 40;" xml:space="preserve">
<g>
	<path d="M30,32.6H10c-0.3,0-0.5-0.2-0.5-0.5l0-24.1c0-0.1,0.1-0.3,0.1-0.4S9.9,7.4,10,7.4h10c0.3,0,0.5,0.2,0.5,0.5
		S20.3,8.4,20,8.4h-9.5l0,23.1h19l0-13.6c0-0.3,0.2-0.5,0.5-0.5s0.5,0.2,0.5,0.5l0,14.1c0,0.1-0.1,0.3-0.1,0.4S30.1,32.6,30,32.6z"
		/>
	<path d="M30,14.4h-6c-0.3,0-0.5-0.2-0.5-0.5v-6c0-0.2,0.1-0.4,0.3-0.5c0.2-0.1,0.4,0,0.5,0.1l6,6c0.1,0.1,0.2,0.4,0.1,0.5
		S30.2,14.4,30,14.4z M24.5,13.4h4.3l-4.3-4.3V13.4z"/>
	<path d="M20,12.5h-6c-0.3,0-0.5-0.2-0.5-0.5s0.2-0.5,0.5-0.5h6c0.3,0,0.5,0.2,0.5,0.5S20.3,12.5,20,12.5z"/>
	<path d="M20,16.5h-6c-0.3,0-0.5-0.2-0.5-0.5s0.2-0.5,0.5-0.5h6c0.3,0,0.5,0.2,0.5,0.5S20.3,16.5,20,16.5z"/>
	<path d="M26,20.5H14c-0.3,0-0.5-0.2-0.5-0.5s0.2-0.5,0.5-0.5h12c0.3,0,0.5,0.2,0.5,0.5S26.3,20.5,26,20.5z"/>
	<path d="M26,24.5H14c-0.3,0-0.5-0.2-0.5-0.5s0.2-0.5,0.5-0.5h12c0.3,0,0.5,0.2,0.5,0.5S26.3,24.5,26,24.5z"/>
	<path d="M26,28.5H14c-0.3,0-0.5-0.2-0.5-0.5s0.2-0.5,0.5-0.5h12c0.3,0,0.5,0.2,0.5,0.5S26.3,28.5,26,28.5z"/>
</g>
</svg>
