<svg xmlns="http://www.w3.org/2000/svg" viewBox="0 0 40 40"><path d="M30.7 26.2l-2.8-2.8c-.3-.3-.8-.4-1.2-.2l-2.8 1.4c-.1 0-.1.1-.2.1-.5 0-2.6-1-5-3.4-2.5-2.5-3.4-4.5-3.4-5 0 0 .1-.1.1-.2l1.4-2.8c.2-.4.1-.9-.2-1.2l-2.8-2.8c-.4-.4-1-.4-1.4 0l-2.1 2.1c-1.4 1.4-1.7 3.7-.8 6.5.8 2.5 2.6 5.2 5 7.6C18 29 22.1 31 25.1 31c1.4 0 2.6-.4 3.5-1.3l2.1-2.1c.4-.4.4-1 0-1.4zm-3.5 2.1c-.8.8-2.5.9-4.4.3-2.2-.7-4.7-2.3-6.8-4.5-2.1-2.1-3.7-4.6-4.5-6.8-.7-2-.6-3.6.3-4.4l1.4-1.4 1.6 1.6-1 2.1c-1.7 2.1 3.1 7 3.6 7.6.6.6 5.5 5.3 7.6 3.6l2.1-1 1.6 1.6-1.5 1.3z"/></svg>