<?xml version="1.0" encoding="utf-8"?>
<!-- Generator: Adobe Illustrator 22.1.0, SVG Export Plug-In . SVG Version: 6.00 Build 0)  -->
<svg version="1.1" id="Layer_1" xmlns="http://www.w3.org/2000/svg" xmlns:xlink="http://www.w3.org/1999/xlink" x="0px" y="0px"
	 viewBox="0 0 40 40" style="enable-background:new 0 0 40 40;" xml:space="preserve">
<path d="M30.7,26.2l-2.8-2.8c-0.3-0.3-0.8-0.4-1.2-0.2l-2.8,1.4c-0.1,0-0.1,0.1-0.2,0.1c-0.5,0-2.6-1-5-3.4c-2.5-2.5-3.4-4.5-3.4-5
	c0,0,0.1-0.1,0.1-0.2l1.4-2.8c0.2-0.4,0.1-0.9-0.2-1.2l-2.8-2.8c-0.4-0.4-1-0.4-1.4,0l-2.1,2.1c-1.4,1.4-1.7,3.7-0.8,6.5
	c0.8,2.5,2.6,5.2,5,7.6C18,29,22.1,31,25.1,31c1.4,0,2.6-0.4,3.5-1.3l2.1-2.1C31.1,27.2,31.1,26.6,30.7,26.2z M27.2,28.3
	c-0.8,0.8-2.5,0.9-4.4,0.3c-2.2-0.7-4.7-2.3-6.8-4.5c-2.1-2.1-3.7-4.6-4.5-6.8c-0.7-2-0.6-3.6,0.3-4.4l1.4-1.4l1.6,1.6l-1,2.1
	c-1.7,2.1,3.1,7,3.6,7.6c0.6,0.6,5.5,5.3,7.6,3.6l2.1-1l1.6,1.6L27.2,28.3z"/>
</svg>
