<?xml version="1.0" encoding="utf-8"?>
<!-- Generator: Adobe Illustrator 22.1.0, SVG Export Plug-In . SVG Version: 6.00 Build 0)  -->
<svg version="1.1" id="Layer_1" xmlns="http://www.w3.org/2000/svg" xmlns:xlink="http://www.w3.org/1999/xlink" x="0px" y="0px"
	 viewBox="0 0 40 40" style="enable-background:new 0 0 40 40;" xml:space="preserve">
<path d="M30.6,13.4c-0.4-0.4-1-0.4-1.4,0l-3.3,3.3l-2.6-2.6l3.3-3.3c0.4-0.4,0.4-1,0-1.4s-1-0.4-1.4,0l-3.3,3.3l-1.5-1.5
	c-0.4-0.4-1-0.4-1.4,0c-1.3,1.3-2.1,3.1-2.1,4.9c0,1.5,0.5,3,1.4,4.2l-8.9,8.9c-0.4,0.4-0.4,1,0,1.4c0.2,0.2,0.5,0.3,0.7,0.3
	s0.5-0.1,0.7-0.3l8.9-8.9c1.2,0.9,2.7,1.4,4.2,1.4c1.8,0,3.6-0.7,4.9-2c0.2-0.2,0.3-0.4,0.3-0.7s-0.1-0.5-0.3-0.7l-1.5-1.5l3.3-3.3
	C31,14.4,31,13.8,30.6,13.4z"/>
</svg>
