<svg xmlns="http://www.w3.org/2000/svg" viewBox="0 0 40 40"><path d="M26.4 13.6c-1.7-1.7-4-2.6-6.4-2.6-2.2 0-4.2.8-5.8 2.2l-.7-.7c-.2-.2-.5-.3-.8-.2-.3.1-.4.4-.4.7v2.8c0 .2.1.4.2.5.1.1.3.2.5.2h2.8c.3 0 .5-.2.7-.4.1-.3 0-.6-.2-.8l-.7-.7c1.2-1 2.8-1.6 4.4-1.6 1.9 0 3.6.7 5 2.1 1.3 1.3 2 3 2 4.7 0 .5.5 1 1 1 .6 0 1-.5 1-1-.1-2.4-1-4.5-2.6-6.2zM27.1 23.5h-2.8c-.3 0-.5.2-.7.4-.1.3 0 .6.2.8l.7.7c-2.7 2.2-6.8 2.1-9.4-.5-1.3-1.3-2-3-2-4.7 0-.6-.5-1-1-1-.6 0-1 .5-1 1 .1 2.3 1 4.5 2.6 6.1 1.8 1.8 4.1 2.6 6.4 2.6 2.1 0 4.2-.7 5.8-2.2l.7.7c.1.1.3.2.5.2.1 0 .2 0 .3-.1.3-.1.4-.4.4-.7V24c0-.1-.3-.5-.7-.5z"/></svg>