<?xml version="1.0" encoding="utf-8"?>
<!-- Generator: Adobe Illustrator 21.1.0, SVG Export Plug-In . SVG Version: 6.00 Build 0)  -->
<svg version="1.1" id="Layer_1" xmlns="http://www.w3.org/2000/svg" xmlns:xlink="http://www.w3.org/1999/xlink" x="0px" y="0px"
	 viewBox="0 0 40 40" style="enable-background:new 0 0 40 40;" xml:space="preserve">
<g>
	<path d="M26.4,13.6c-1.7-1.7-4-2.6-6.4-2.6c-2.2,0-4.2,0.8-5.8,2.2l-0.7-0.7c-0.2-0.2-0.5-0.3-0.8-0.2c-0.3,0.1-0.4,0.4-0.4,0.7
		l0,2.8c0,0.2,0.1,0.4,0.2,0.5c0.1,0.1,0.3,0.2,0.5,0.2h0l2.8,0c0.3,0,0.5-0.2,0.7-0.4c0.1-0.3,0-0.6-0.2-0.8l-0.7-0.7
		c1.2-1,2.8-1.6,4.4-1.6c1.9,0,3.6,0.7,5,2.1c1.3,1.3,2,3,2,4.7c0,0.5,0.5,1,1,1c0,0,0,0,0,0c0.6,0,1-0.5,1-1
		C28.9,17.4,28,15.3,26.4,13.6z"/>
	<path d="M27.1,23.5l-2.8,0c-0.3,0-0.5,0.2-0.7,0.4c-0.1,0.3,0,0.6,0.2,0.8l0.7,0.7c-2.7,2.2-6.8,2.1-9.4-0.5c-1.3-1.3-2-3-2-4.7
		c0-0.6-0.5-1-1-1c-0.6,0-1,0.5-1,1c0.1,2.3,1,4.5,2.6,6.1c1.8,1.8,4.1,2.6,6.4,2.6c2.1,0,4.2-0.7,5.8-2.2l0.7,0.7
		c0.1,0.1,0.3,0.2,0.5,0.2c0.1,0,0.2,0,0.3-0.1c0.3-0.1,0.4-0.4,0.4-0.7l0-2.8C27.8,23.9,27.5,23.5,27.1,23.5z"/>
</g>
</svg>
