<?xml version="1.0" encoding="utf-8"?>
<!-- Generator: Adobe Illustrator 21.1.0, SVG Export Plug-In . SVG Version: 6.00 Build 0)  -->
<svg version="1.1" id="Layer_1" xmlns="http://www.w3.org/2000/svg" xmlns:xlink="http://www.w3.org/1999/xlink" x="0px" y="0px"
	 viewBox="0 0 40 40" style="enable-background:new 0 0 40 40;" xml:space="preserve">
<g>
	<path d="M28,15.5H12c-0.3,0-0.5-0.2-0.5-0.5s0.2-0.5,0.5-0.5h16c0.3,0,0.5,0.2,0.5,0.5S28.3,15.5,28,15.5z"/>
</g>
<g>
	<path d="M26,29.5H14c-0.3,0-0.5-0.2-0.5-0.5V17c0-0.3,0.2-0.5,0.5-0.5h12c0.3,0,0.5,0.2,0.5,0.5v12C26.5,29.3,26.3,29.5,26,29.5z
		 M14.5,28.5h11v-11h-11V28.5z"/>
</g>
<g>
	<path d="M20,26.5c-0.3,0-0.5-0.2-0.5-0.5v-6c0-0.3,0.2-0.5,0.5-0.5s0.5,0.2,0.5,0.5v6C20.5,26.3,20.3,26.5,20,26.5z"/>
</g>
<g>
	<path d="M17,26.5c-0.3,0-0.5-0.2-0.5-0.5v-6c0-0.3,0.2-0.5,0.5-0.5s0.5,0.2,0.5,0.5v6C17.5,26.3,17.3,26.5,17,26.5z"/>
</g>
<g>
	<path d="M23,26.5c-0.3,0-0.5-0.2-0.5-0.5v-6c0-0.3,0.2-0.5,0.5-0.5s0.5,0.2,0.5,0.5v6C23.5,26.3,23.3,26.5,23,26.5z"/>
</g>
<g>
	<path d="M24,13.5c-0.3,0-0.5-0.2-0.5-0.5v-1.5h-7V13c0,0.3-0.2,0.5-0.5,0.5s-0.5-0.2-0.5-0.5v-2c0-0.3,0.2-0.5,0.5-0.5h8
		c0.3,0,0.5,0.2,0.5,0.5v2C24.5,13.3,24.3,13.5,24,13.5z"/>
</g>
</svg>
