<?xml version="1.0" encoding="utf-8"?>
<!-- Generator: Adobe Illustrator 21.1.0, SVG Export Plug-In . SVG Version: 6.00 Build 0)  -->
<svg version="1.1" id="Layer_1" xmlns="http://www.w3.org/2000/svg" xmlns:xlink="http://www.w3.org/1999/xlink" x="0px" y="0px"
	 viewBox="0 0 40 40" style="enable-background:new 0 0 40 40;" xml:space="preserve">
<g>
	<path d="M20,9C13.9,9,9,13.9,9,20s4.9,11,11,11s11-4.9,11-11S26.1,9,20,9z M20,29c-5,0-9-4-9-9c0-5,4-9,9-9c5,0,9,4,9,9
		C29,25,25,29,20,29z"/>
	<path d="M25,19H15c-0.6,0-1,0.4-1,1s0.4,1,1,1h10c0.6,0,1-0.4,1-1S25.6,19,25,19z"/>
</g>
</svg>
