<?xml version="1.0" encoding="utf-8"?>
<!-- Generator: Adobe Illustrator 21.1.0, SVG Export Plug-In . SVG Version: 6.00 Build 0)  -->
<svg version="1.1" id="Layer_1" xmlns="http://www.w3.org/2000/svg" xmlns:xlink="http://www.w3.org/1999/xlink" x="0px" y="0px"
	 viewBox="0 0 40 40" style="enable-background:new 0 0 40 40;" xml:space="preserve">
<g>
	<path d="M18.5,18v-6c0-0.3-0.2-0.5-0.5-0.5h-6c-0.3,0-0.5,0.2-0.5,0.5v6c0,0.3,0.2,0.5,0.5,0.5h6C18.3,18.5,18.5,18.3,18.5,18z
		 M17.5,17.5h-5v-5h5V17.5z"/>
	<path d="M28,14.5h-3c-0.3,0-0.5,0.2-0.5,0.5s0.2,0.5,0.5,0.5h2.5v9h-4V22c0-0.3-0.2-0.5-0.5-0.5h-6c-0.3,0-0.5,0.2-0.5,0.5v6
		c0,0.3,0.2,0.5,0.5,0.5h6c0.3,0,0.5-0.2,0.5-0.5v-2.5H28c0.3,0,0.5-0.2,0.5-0.5V15C28.5,14.7,28.3,14.5,28,14.5z M22.5,27.5h-5v-5
		h5V27.5z"/>
	<path d="M22.6,17.4c0.1,0.1,0.2,0.1,0.4,0.1s0.3,0,0.4-0.1c0.2-0.2,0.2-0.5,0-0.7L21.7,15l1.6-1.6c0.2-0.2,0.2-0.5,0-0.7
		s-0.5-0.2-0.7,0l-2,2c-0.2,0.2-0.2,0.5,0,0.7L22.6,17.4z"/>
</g>
</svg>
