<?xml version="1.0" encoding="utf-8"?>
<!-- Generator: Adobe Illustrator 21.1.0, SVG Export Plug-In . SVG Version: 6.00 Build 0)  -->
<svg version="1.1" id="Layer_1" xmlns="http://www.w3.org/2000/svg" xmlns:xlink="http://www.w3.org/1999/xlink" x="0px" y="0px"
	 viewBox="0 0 40 40" style="enable-background:new 0 0 40 40;" xml:space="preserve">
<g>
	<path d="M17.5,17v-6c0-1.1-0.9-2-2-2h-6c-1.1,0-2,0.9-2,2v6c0,1.1,0.9,2,2,2h6C16.6,19,17.5,18.1,17.5,17z M9.5,11h6l0,6h-6V11z"/>
	<path d="M31.5,12h-6v-1c0-0.3-0.2-0.7-0.5-0.9s-0.7-0.2-1,0l-4,2c-0.3,0.2-0.6,0.5-0.6,0.9s0.2,0.7,0.6,0.9l4,2
		c0.1,0.1,0.3,0.1,0.4,0.1c0.2,0,0.4-0.1,0.5-0.1c0.3-0.2,0.5-0.5,0.5-0.9v-1h5v11h-5v-2c0-1.1-0.9-2-2-2h-6c-1.1,0-2,0.9-2,2v6
		c0,1.1,0.9,2,2,2h6c1.1,0,2-0.9,2-2v-2h6c0.6,0,1-0.4,1-1V13C32.5,12.4,32.1,12,31.5,12z M17.5,29v-6h6l0,6H17.5z"/>
</g>
</svg>
