<?xml version="1.0" encoding="utf-8"?>
<!-- Generator: Adobe Illustrator 21.1.0, SVG Export Plug-In . SVG Version: 6.00 Build 0)  -->
<svg version="1.1" id="Layer_1" xmlns="http://www.w3.org/2000/svg" xmlns:xlink="http://www.w3.org/1999/xlink" x="0px" y="0px"
	 viewBox="0 0 40 40" style="enable-background:new 0 0 40 40;" xml:space="preserve">
<g>
	<path d="M16,11h-4c-0.6,0-1,0.4-1,1s0.4,1,1,1h4c0.6,0,1-0.4,1-1S16.6,11,16,11z"/>
	<path d="M24,11L24,11c-0.6,0-1,0.4-1,1s0.5,1,1,1c0.6,0,1-0.4,1-1S24.6,11,24,11z"/>
	<path d="M29,12c0-0.6-0.4-1-1-1h0c-0.6,0-1,0.4-1,1s0.5,1,1,1C28.6,13,29,12.6,29,12z"/>
	<path d="M28,25c2.8,0,5-2.2,5-5c0-1.6-0.8-3.1-2-4c1.2-0.9,2-2.4,2-4c0-2.8-2.2-5-5-5H12c-2.8,0-5,2.2-5,5c0,1.6,0.8,3.1,2,4
		c-1.2,0.9-2,2.4-2,4c0,2.8,2.2,5,5,5h7v2.2c-0.8,0.3-1.5,1-1.8,1.8H8c-0.6,0-1,0.4-1,1s0.4,1,1,1h9.2c0.4,1.2,1.5,2,2.8,2
		s2.4-0.8,2.8-2H32c0.6,0,1-0.4,1-1s-0.4-1-1-1h-9.2c-0.3-0.8-1-1.5-1.8-1.8V25H28z M20,31c-0.6,0-1-0.4-1-1s0.4-1,1-1s1,0.4,1,1
		S20.6,31,20,31z M9,12c0-1.7,1.3-3,3-3h16c1.7,0,3,1.3,3,3s-1.3,3-3,3H12C10.3,15,9,13.7,9,12z M9,20c0-1.7,1.3-3,3-3h16
		c1.7,0,3,1.3,3,3s-1.3,3-3,3H12C10.3,23,9,21.7,9,20z"/>
	<path d="M16,19h-4c-0.6,0-1,0.4-1,1s0.4,1,1,1h4c0.6,0,1-0.4,1-1S16.6,19,16,19z"/>
	<path d="M24,21c0.6,0,1-0.4,1-1s-0.4-1-1-1h0c-0.6,0-1,0.4-1,1S23.5,21,24,21z"/>
	<path d="M28,21c0.6,0,1-0.4,1-1s-0.4-1-1-1h0c-0.6,0-1,0.4-1,1S27.5,21,28,21z"/>
</g>
</svg>
