<svg xmlns="http://www.w3.org/2000/svg" viewBox="0 0 40 40"><path d="M16 11h-4c-.6 0-1 .4-1 1s.4 1 1 1h4c.6 0 1-.4 1-1s-.4-1-1-1zM24 11c-.6 0-1 .4-1 1s.5 1 1 1c.6 0 1-.4 1-1s-.4-1-1-1zM29 12c0-.6-.4-1-1-1s-1 .4-1 1 .5 1 1 1c.6 0 1-.4 1-1z"/><path d="M28 25c2.8 0 5-2.2 5-5 0-1.6-.8-3.1-2-4 1.2-.9 2-2.4 2-4 0-2.8-2.2-5-5-5H12c-2.8 0-5 2.2-5 5 0 1.6.8 3.1 2 4-1.2.9-2 2.4-2 4 0 2.8 2.2 5 5 5h7v2.2c-.8.3-1.5 1-1.8 1.8H8c-.6 0-1 .4-1 1s.4 1 1 1h9.2c.4 1.2 1.5 2 2.8 2s2.4-.8 2.8-2H32c.6 0 1-.4 1-1s-.4-1-1-1h-9.2c-.3-.8-1-1.5-1.8-1.8V25h7zm-8 6c-.6 0-1-.4-1-1s.4-1 1-1 1 .4 1 1-.4 1-1 1zM9 12c0-1.7 1.3-3 3-3h16c1.7 0 3 1.3 3 3s-1.3 3-3 3H12c-1.7 0-3-1.3-3-3zm0 8c0-1.7 1.3-3 3-3h16c1.7 0 3 1.3 3 3s-1.3 3-3 3H12c-1.7 0-3-1.3-3-3z"/><path d="M16 19h-4c-.6 0-1 .4-1 1s.4 1 1 1h4c.6 0 1-.4 1-1s-.4-1-1-1zM24 21c.6 0 1-.4 1-1s-.4-1-1-1-1 .4-1 1 .5 1 1 1zM28 21c.6 0 1-.4 1-1s-.4-1-1-1-1 .4-1 1 .5 1 1 1z"/></svg>