<svg xmlns="http://www.w3.org/2000/svg" viewBox="0 0 40 40">
    <path d="M30 18.2h-1.5c-.2-1-.6-2-1.2-2.9l1.1-1.1c.4-.4.4-1 0-1.4l-1.2-1.2c-.4-.4-1-.4-1.4 0l-1.1 1.1c-.9-.6-1.8-1-2.9-1.2V10c0-.6-.4-1-1-1h-1.7c-.6 0-1 .4-1 1v1.5c-1 .2-2 .6-2.9 1.2l-1.1-1.1c-.4-.4-1-.4-1.4 0l-1.2 1.2c-.4.4-.4 1 0 1.4l1.1 1.1c-.6.9-1 1.8-1.2 2.9H10c-.6 0-1 .4-1 1v1.7c0 .6.4 1 1 1h1.5c.2 1 .6 2 1.2 2.9l-1.1 1.1c-.4.4-.4 1 0 1.4l1.2 1.2c.4.4 1 .4 1.4 0l1.1-1.1c.9.6 1.8 1 2.9 1.2V30c0 .6.4 1 1 1h1.7c.6 0 1-.4 1-1v-1.5c1-.2 2-.6 2.9-1.2l1.1 1.1c.4.4 1 .4 1.4 0l1.2-1.2c.4-.4.4-1 0-1.4l-1.1-1.1c.6-.9 1-1.8 1.2-2.9H30c.6 0 1-.4 1-1v-1.7c0-.5-.4-.9-1-.9zm-10 6.2c-2.4 0-4.4-2-4.4-4.4s2-4.4 4.4-4.4 4.4 2 4.4 4.4-2 4.4-4.4 4.4z"/>
</svg>
