<?xml version="1.0" encoding="utf-8"?>
<!-- Generator: Adobe Illustrator 21.1.0, SVG Export Plug-In . SVG Version: 6.00 Build 0)  -->
<svg version="1.1" id="Layer_1" xmlns="http://www.w3.org/2000/svg" xmlns:xlink="http://www.w3.org/1999/xlink" x="0px" y="0px"
	 viewBox="0 0 40 40" style="enable-background:new 0 0 40 40;" xml:space="preserve">
<path d="M30,18.2h-1.5c-0.2-1-0.6-2-1.2-2.9l1.1-1.1c0.4-0.4,0.4-1,0-1.4l-1.2-1.2c-0.4-0.4-1-0.4-1.4,0l-1.1,1.1
	c-0.9-0.6-1.8-1-2.9-1.2V10c0-0.6-0.4-1-1-1h-1.7c-0.6,0-1,0.4-1,1v1.5c-1,0.2-2,0.6-2.9,1.2l-1.1-1.1c-0.4-0.4-1-0.4-1.4,0
	l-1.2,1.2c-0.4,0.4-0.4,1,0,1.4l1.1,1.1c-0.6,0.9-1,1.8-1.2,2.9H10c-0.6,0-1,0.4-1,1v1.7c0,0.6,0.4,1,1,1h1.5c0.2,1,0.6,2,1.2,2.9
	l-1.1,1.1c-0.4,0.4-0.4,1,0,1.4l1.2,1.2c0.4,0.4,1,0.4,1.4,0l1.1-1.1c0.9,0.6,1.8,1,2.9,1.2V30c0,0.6,0.4,1,1,1h1.7c0.6,0,1-0.4,1-1
	v-1.5c1-0.2,2-0.6,2.9-1.2l1.1,1.1c0.4,0.4,1,0.4,1.4,0l1.2-1.2c0.4-0.4,0.4-1,0-1.4l-1.1-1.1c0.6-0.9,1-1.8,1.2-2.9H30
	c0.6,0,1-0.4,1-1v-1.7C31,18.6,30.6,18.2,30,18.2z M20,24.4c-2.4,0-4.4-2-4.4-4.4s2-4.4,4.4-4.4s4.4,2,4.4,4.4S22.4,24.4,20,24.4z"
	/>
</svg>
