<?xml version="1.0" encoding="utf-8"?>
<!-- Generator: Adobe Illustrator 21.1.0, SVG Export Plug-In . SVG Version: 6.00 Build 0)  -->
<svg version="1.1" id="Layer_1" xmlns="http://www.w3.org/2000/svg" xmlns:xlink="http://www.w3.org/1999/xlink" x="0px" y="0px"
	 viewBox="0 0 40 40" style="enable-background:new 0 0 40 40;" xml:space="preserve">
<g>
	<path d="M20,28.5c-4.7,0-8.5-3.8-8.5-8.5c0-4.7,3.8-8.5,8.5-8.5c4.7,0,8.5,3.8,8.5,8.5C28.5,24.7,24.7,28.5,20,28.5z M20,12.5
		c-4.1,0-7.5,3.4-7.5,7.5s3.4,7.5,7.5,7.5s7.5-3.4,7.5-7.5S24.1,12.5,20,12.5z"/>
	<path d="M20,24.5c-2.5,0-4.5-2-4.5-4.5s2-4.5,4.5-4.5c0.3,0,0.5,0.2,0.5,0.5s-0.2,0.5-0.5,0.5c-1.9,0-3.5,1.6-3.5,3.5
		s1.6,3.5,3.5,3.5s3.5-1.6,3.5-3.5c0-0.3,0.2-0.5,0.5-0.5s0.5,0.2,0.5,0.5C24.5,22.5,22.5,24.5,20,24.5z"/>
	<path d="M22,10.5c-0.3,0-0.5-0.2-0.5-0.5V9c0-0.3-0.2-0.5-0.5-0.5h-2c-0.3,0-0.5,0.2-0.5,0.5v1c0,0.3-0.2,0.5-0.5,0.5
		s-0.5-0.2-0.5-0.5V9c0-0.8,0.7-1.5,1.5-1.5h2c0.8,0,1.5,0.7,1.5,1.5v1C22.5,10.3,22.3,10.5,22,10.5z"/>
	<path d="M21,32.5h-2c-0.8,0-1.5-0.7-1.5-1.5v-1c0-0.3,0.2-0.5,0.5-0.5s0.5,0.2,0.5,0.5v1c0,0.3,0.2,0.5,0.5,0.5h2
		c0.3,0,0.5-0.2,0.5-0.5v-1c0-0.3,0.2-0.5,0.5-0.5s0.5,0.2,0.5,0.5v1C22.5,31.8,21.8,32.5,21,32.5z"/>
	<path d="M10,22.5H9c-0.8,0-1.5-0.7-1.5-1.5v-2c0-0.8,0.7-1.5,1.5-1.5h1c0.3,0,0.5,0.2,0.5,0.5s-0.2,0.5-0.5,0.5H9
		c-0.3,0-0.5,0.2-0.5,0.5v2c0,0.3,0.2,0.5,0.5,0.5h1c0.3,0,0.5,0.2,0.5,0.5S10.3,22.5,10,22.5z"/>
	<path d="M31,22.5h-1c-0.3,0-0.5-0.2-0.5-0.5s0.2-0.5,0.5-0.5h1c0.3,0,0.5-0.2,0.5-0.5v-2c0-0.3-0.2-0.5-0.5-0.5h-1
		c-0.3,0-0.5-0.2-0.5-0.5s0.2-0.5,0.5-0.5h1c0.8,0,1.5,0.7,1.5,1.5v2C32.5,21.8,31.8,22.5,31,22.5z"/>
	<path d="M12.9,30c-0.4,0-0.8-0.1-1.1-0.4l-1.4-1.4c-0.6-0.6-0.6-1.5,0-2.1l0.7-0.7c0.2-0.2,0.5-0.2,0.7,0s0.2,0.5,0,0.7l-0.7,0.7
		c-0.2,0.2-0.2,0.5,0,0.7l1.4,1.4c0.2,0.2,0.5,0.2,0.7,0l0.7-0.7c0.2-0.2,0.5-0.2,0.7,0s0.2,0.5,0,0.7L14,29.5
		C13.7,29.8,13.3,30,12.9,30z"/>
	<path d="M28.5,14.8c-0.1,0-0.3,0-0.4-0.1c-0.2-0.2-0.2-0.5,0-0.7l0.7-0.7c0.2-0.2,0.2-0.5,0-0.7l-1.4-1.4c-0.2-0.2-0.5-0.2-0.7,0
		L26,11.9c-0.2,0.2-0.5,0.2-0.7,0s-0.2-0.5,0-0.7l0.7-0.7c0.6-0.6,1.5-0.6,2.1,0l1.4,1.4c0.6,0.6,0.6,1.5,0,2.1l-0.7,0.7
		C28.7,14.8,28.6,14.8,28.5,14.8z"/>
	<path d="M11.5,14.8c-0.1,0-0.3,0-0.4-0.1L10.5,14c-0.6-0.6-0.6-1.5,0-2.1l1.4-1.4c0.6-0.6,1.5-0.6,2.1,0l0.7,0.7
		c0.2,0.2,0.2,0.5,0,0.7s-0.5,0.2-0.7,0l-0.7-0.7c-0.2-0.2-0.5-0.2-0.7,0l-1.4,1.4c-0.2,0.2-0.2,0.5,0,0.7l0.7,0.7
		c0.2,0.2,0.2,0.5,0,0.7C11.8,14.8,11.6,14.8,11.5,14.8z"/>
	<path d="M27.1,30c-0.4,0-0.8-0.1-1.1-0.4l-0.7-0.7c-0.2-0.2-0.2-0.5,0-0.7s0.5-0.2,0.7,0l0.7,0.7c0.2,0.2,0.5,0.2,0.7,0l1.4-1.4
		c0.2-0.2,0.2-0.5,0-0.7L28.1,26c-0.2-0.2-0.2-0.5,0-0.7s0.5-0.2,0.7,0l0.7,0.7c0.6,0.6,0.6,1.5,0,2.1l-1.4,1.4
		C27.8,29.8,27.5,30,27.1,30z"/>
</g>
</svg>
