<svg xmlns="http://www.w3.org/2000/svg" viewBox="0 0 40 40">
    <path d="M13 11.2V10c0-.6-.4-1-1-1s-1 .4-1 1v1.2c-1.4.4-2.5 1.8-2.5 3.3s1.1 2.9 2.5 3.3V30c0 .6.4 1 1 1s1-.4 1-1V17.8c1.4-.4 2.5-1.8 2.5-3.3s-1.1-2.9-2.5-3.3zM12 16c-.8 0-1.5-.7-1.5-1.5S11.2 13 12 13s1.5.7 1.5 1.5S12.8 16 12 16zm19.5 2.5c0-1.6-1.1-2.9-2.5-3.3V10c0-.6-.4-1-1-1s-1 .4-1 1v5.2c-1.4.4-2.5 1.8-2.5 3.3s1.1 2.9 2.5 3.3V30c0 .6.4 1 1 1s1-.4 1-1v-8.2c1.4-.4 2.5-1.7 2.5-3.3zM28 20c-.8 0-1.5-.7-1.5-1.5S27.2 17 28 17s1.5.7 1.5 1.5S28.8 20 28 20zm-7 1.2V10c0-.6-.4-1-1-1s-1 .4-1 1v11.2c-1.4.4-2.5 1.8-2.5 3.3s1.1 2.9 2.5 3.3V30c0 .6.4 1 1 1s1-.4 1-1v-2.2c1.4-.4 2.5-1.8 2.5-3.3s-1.1-2.9-2.5-3.3zM20 26c-.8 0-1.5-.7-1.5-1.5S19.2 23 20 23s1.5.7 1.5 1.5S20.8 26 20 26z"/>
</svg>
