<?xml version="1.0" encoding="utf-8"?>
<!-- Generator: Adobe Illustrator 21.1.0, SVG Export Plug-In . SVG Version: 6.00 Build 0)  -->
<svg version="1.1" id="Layer_1" xmlns="http://www.w3.org/2000/svg" xmlns:xlink="http://www.w3.org/1999/xlink" x="0px" y="0px"
	 viewBox="0 0 40 40" style="enable-background:new 0 0 40 40;" xml:space="preserve">
<path d="M31.7,13.2c-0.4-0.4-1.1-0.4-1.5,0l-0.5,0.5c-0.3,0.3-0.7,0.4-1,0.3l-1.5-0.4c-0.4-0.1-0.7-0.4-0.8-0.8L26,11.3
	c-0.1-0.4,0-0.8,0.3-1l0.5-0.5c0.4-0.4,0.4-1.1,0-1.5c-0.5-0.5-1.3-0.4-1.7,0.2c-1,1.5-1.3,3.2-0.8,4.6L13.1,24.3
	c-1.4-0.4-3.1-0.2-4.6,0.8c-0.6,0.4-0.7,1.2-0.2,1.7c0.4,0.4,1.1,0.4,1.5,0l0.5-0.5c0.3-0.3,0.7-0.4,1-0.3l1.5,0.4
	c0.4,0.1,0.7,0.4,0.8,0.8l0.4,1.5c0.1,0.4,0,0.8-0.3,1l-0.5,0.5c-0.4,0.4-0.4,1.1,0,1.5c0.5,0.5,1.3,0.4,1.7-0.2
	c1-1.5,1.3-3.2,0.8-4.6l11.2-11.2c1.4,0.4,3.1,0.2,4.6-0.8C32.1,14.5,32.2,13.7,31.7,13.2z"/>
</svg>
