<svg xmlns="http://www.w3.org/2000/svg" viewBox="0 0 40 40"><path d="M20.5 11c-.9-.5-1.8-.6-2.6-.3-.7.3-1.3.8-1.8 1.6l-8.6 7.4c-1.2.6-1.6 2.6-.9 4.8.3 1 .8 1.9 1.4 2.5.6.6 1.2.9 1.9.9h1l1.5 4.7c.1.4.5.7.9.7l3.2.1c.3 0 .6-.1.8-.4.2-.3.2-.6.1-.9l-1.3-4 4.6.1c.5.2 1 .4 1.5.4.3 0 .6-.1.9-.2 2.6-.9 3.5-5.5 2-10.4-.8-3.4-2.7-6-4.6-7zm1 11.6c-.9.3-2-.9-2.6-2.6-.6-1.7-.3-3.4.6-3.6s2 .9 2.6 2.6.3 3.3-.6 3.6zM8.4 21.5c.1 0 .2-.1.3-.2l6.4-5.5c-.1 1.6.1 3.4.7 5.3s1.5 3.6 2.5 4.9l-3.4-.1h-.1l-3.2-.1h-1.3-.2-.1-.1c-.2 0-.9-.6-1.4-2-.4-1.3-.2-2.2-.1-2.3zm6.7 9.7H14l-1.1-3.4H14l1.1 3.4z"/><path d="M23.3 8.2c-.4-.4-1.1-.3-1.4.1-.4.4-.3 1.1.1 1.4 1.8 1.5 3.5 4.4 4.5 7.6.9 3.1 1.2 6.3.6 8.7-.1.6.2 1.1.8 1.2h.2c.5 0 .9-.3 1-.8.7-2.7.4-6.3-.6-9.8-1.1-3.5-3-6.6-5.2-8.4zM32.8 15.6c-1.1-3.7-3-6.9-5.2-8.6-.4-.4-1.1-.3-1.4.1-.4.4-.3 1.1.1 1.4 1.8 1.5 3.5 4.4 4.5 7.6.9 3.2 1.2 6.3.6 8.7-.1.6.2 1.1.8 1.2h.2c.5 0 .9-.3 1-.8.7-2.5.4-6.1-.6-9.6z"/></svg>