<?xml version="1.0" encoding="utf-8"?>
<!-- Generator: Adobe Illustrator 21.1.0, SVG Export Plug-In . SVG Version: 6.00 Build 0)  -->
<svg version="1.1" id="Layer_1" xmlns="http://www.w3.org/2000/svg" xmlns:xlink="http://www.w3.org/1999/xlink" x="0px" y="0px"
	 viewBox="0 0 40 40" style="enable-background:new 0 0 40 40;" xml:space="preserve">
<g>
	<path d="M20.5,11c-0.9-0.5-1.8-0.6-2.6-0.3c-0.7,0.3-1.3,0.8-1.8,1.6l-8.6,7.4c-1.2,0.6-1.6,2.6-0.9,4.8c0.3,1,0.8,1.9,1.4,2.5
		c0.6,0.6,1.2,0.9,1.9,0.9c0.1,0,0.2,0,0.3,0l0.7,0l1.5,4.7c0.1,0.4,0.5,0.7,0.9,0.7l3.2,0.1c0,0,0,0,0,0c0.3,0,0.6-0.1,0.8-0.4
		c0.2-0.3,0.2-0.6,0.1-0.9l-1.3-4l4.6,0.1c0.5,0.2,1,0.4,1.5,0.4c0.3,0,0.6-0.1,0.9-0.2c2.6-0.9,3.5-5.5,2-10.4
		C24.3,14.6,22.4,12,20.5,11z M21.5,22.6c-0.9,0.3-2-0.9-2.6-2.6c-0.6-1.7-0.3-3.4,0.6-3.6s2,0.9,2.6,2.6S22.4,22.3,21.5,22.6z
		 M8.4,21.5C8.4,21.5,8.4,21.5,8.4,21.5c0.1,0,0.2-0.1,0.3-0.2c0,0,0,0,0,0c0,0,0,0,0,0l6.4-5.5c-0.1,1.6,0.1,3.4,0.7,5.3
		c0.6,1.9,1.5,3.6,2.5,4.9l-3.4-0.1c0,0-0.1,0-0.1,0l-3.2-0.1c0,0,0,0,0,0l-1.3,0c0,0-0.1,0-0.1,0l-0.1,0c0,0,0,0,0,0
		c0,0-0.1,0-0.1,0c0,0-0.1,0-0.1,0c-0.2,0-0.9-0.6-1.4-2C8.1,22.5,8.3,21.6,8.4,21.5z M15.1,31.2l-1.1,0l-1.1-3.4l1.1,0L15.1,31.2z"
		/>
	<path d="M23.3,8.2c-0.4-0.4-1.1-0.3-1.4,0.1c-0.4,0.4-0.3,1.1,0.1,1.4c1.8,1.5,3.5,4.4,4.5,7.6c0.9,3.1,1.2,6.3,0.6,8.7
		c-0.1,0.6,0.2,1.1,0.8,1.2c0.1,0,0.2,0,0.2,0c0.5,0,0.9-0.3,1-0.8c0.7-2.7,0.4-6.3-0.6-9.8C27.4,13.1,25.5,10,23.3,8.2z"/>
	<path d="M32.8,15.6c-1.1-3.7-3-6.9-5.2-8.6c-0.4-0.4-1.1-0.3-1.4,0.1c-0.4,0.4-0.3,1.1,0.1,1.4c1.8,1.5,3.5,4.4,4.5,7.6
		c0.9,3.2,1.2,6.3,0.6,8.7c-0.1,0.6,0.2,1.1,0.8,1.2c0.1,0,0.2,0,0.2,0c0.5,0,0.9-0.3,1-0.8C34.1,22.7,33.8,19.1,32.8,15.6z"/>
</g>
</svg>
