<?xml version="1.0" encoding="utf-8"?>
<!-- Generator: Adobe Illustrator 21.1.0, SVG Export Plug-In . SVG Version: 6.00 Build 0)  -->
<svg version="1.1" id="Layer_1" xmlns="http://www.w3.org/2000/svg" xmlns:xlink="http://www.w3.org/1999/xlink" x="0px" y="0px"
	 viewBox="0 0 40 40" style="enable-background:new 0 0 40 40;" xml:space="preserve">
<path d="M30,17.6c-0.1-0.4-0.4-0.6-0.8-0.7l-5.7-0.8l-2.6-5.2c-0.3-0.7-1.5-0.7-1.8,0l-2.6,5.2l-5.7,0.8c-0.4,0.1-0.7,0.3-0.8,0.7
	c-0.1,0.4,0,0.8,0.3,1l4.2,4.1l-1,5.7c-0.1,0.4,0.1,0.8,0.4,1c0.2,0.1,0.4,0.2,0.6,0.2c0.2,0,0.3,0,0.5-0.1l5.1-2.7l5.1,2.7
	c0.3,0.2,0.7,0.1,1.1-0.1c0.3-0.2,0.5-0.6,0.4-1l-1-5.7l4.2-4C30,18.3,30.1,17.9,30,17.6z M23.8,21.6c-0.2,0.2-0.3,0.6-0.3,0.9
	l0.7,4.2l-3.8-2c-0.3-0.2-0.6-0.2-0.9,0l-3.8,2l0.7-4.2c0.1-0.3-0.1-0.7-0.3-0.9l-3.1-3l4.3-0.6c0.3,0,0.6-0.3,0.8-0.5l1.9-3.9
	l1.9,3.8c0.1,0.3,0.4,0.5,0.8,0.5l4.3,0.6L23.8,21.6z"/>
</svg>
