<?xml version="1.0" encoding="utf-8"?>
<!-- Generator: Adobe Illustrator 21.1.0, SVG Export Plug-In . SVG Version: 6.00 Build 0)  -->
<svg version="1.1" id="Layer_1" xmlns="http://www.w3.org/2000/svg" xmlns:xlink="http://www.w3.org/1999/xlink" x="0px" y="0px"
	 viewBox="0 0 40 40" style="enable-background:new 0 0 40 40;" xml:space="preserve">
<path d="M32,31h-1.1v-3v-8.1c1.2-0.9,2-2.3,2-3.9c0,0,0,0,0,0c0-0.1,0-0.2-0.1-0.3c0-0.1-0.1-0.2-0.2-0.3l-8-8
	c-0.1-0.1-0.2-0.2-0.3-0.2c-0.1,0-0.2-0.1-0.3-0.1c0,0,0,0,0,0h-8c0,0,0,0,0,0c-0.1,0-0.2,0-0.3,0.1c-0.1,0-0.2,0.1-0.3,0.2l-8,8
	c-0.2,0.2-0.3,0.4-0.3,0.6c0,1.6,0.8,3,2,3.9V31H8c-0.6,0-1,0.4-1,1s0.4,1,1,1h24c0.6,0,1-0.4,1-1S32.6,31,32,31z M29.1,27.1h-4.2
	v-7.3c0.8,0.7,1.9,1.1,3.1,1.1c0.4,0,0.7-0.1,1.1-0.1V27.1z M28,19.1c-1.4,0-2.5-0.9-2.9-2.2h5.9C30.5,18.2,29.4,19.1,28,19.1z
	 M23.6,8.9l6.2,6.2h-5.2l-3.1-6.2H23.6z M22.5,15.1h-5l2.5-5L22.5,15.1z M22.9,16.9c-0.4,1.3-1.5,2.2-2.9,2.2s-2.5-0.9-2.9-2.2H22.9
	z M16.4,8.9h2.1l-3.1,6.2h-5.2L16.4,8.9z M14.9,16.9c-0.4,1.3-1.6,2.2-2.9,2.2c-1.4,0-2.5-0.9-2.9-2.2H14.9z M10.9,20.8
	c0.4,0.1,0.7,0.1,1.1,0.1c1.7,0,3.1-0.8,4-2.1c0.9,1.3,2.3,2.1,4,2.1c1.2,0,2.2-0.4,3.1-1.1V28c0,0.5,0.4,0.9,0.9,0.9h5.1V31h-8.2
	v-7c0-0.5-0.4-0.9-0.9-0.9h-5.3c-0.5,0-0.9,0.4-0.9,0.9v7h-2.8V20.8z M15.6,31v-6.1h3.5V31H15.6z"/>
</svg>
