<svg xmlns="http://www.w3.org/2000/svg" viewBox="0 0 40 40"><path d="M32 31h-1.1V19.9c1.2-.9 2-2.3 2-3.9 0-.1 0-.2-.1-.3 0-.1-.1-.2-.2-.3l-8-8c-.1-.1-.2-.2-.3-.2-.1 0-.2-.1-.3-.1h-8c-.1 0-.2 0-.3.1-.1 0-.2.1-.3.2l-8 8c-.2.2-.3.4-.3.6 0 1.6.8 3 2 3.9V31H8c-.6 0-1 .4-1 1s.4 1 1 1h24c.6 0 1-.4 1-1s-.4-1-1-1zm-2.9-3.9h-4.2v-7.3c.8.7 1.9 1.1 3.1 1.1.4 0 .7-.1 1.1-.1v6.3zm-1.1-8c-1.4 0-2.5-.9-2.9-2.2H31c-.5 1.3-1.6 2.2-3 2.2zM23.6 8.9l6.2 6.2h-5.2l-3.1-6.2h2.1zm-1.1 6.2h-5l2.5-5 2.5 5zm.4 1.8c-.4 1.3-1.5 2.2-2.9 2.2s-2.5-.9-2.9-2.2h5.8zm-6.5-8h2.1l-3.1 6.2h-5.2l6.2-6.2zm-1.5 8c-.4 1.3-1.6 2.2-2.9 2.2-1.4 0-2.5-.9-2.9-2.2h5.8zm-4 3.9c.4.1.7.1 1.1.1 1.7 0 3.1-.8 4-2.1.9 1.3 2.3 2.1 4 2.1 1.2 0 2.2-.4 3.1-1.1V28c0 .5.4.9.9.9h5.1V31h-8.2v-7c0-.5-.4-.9-.9-.9h-5.3c-.5 0-.9.4-.9.9v7H11V20.8zM15.6 31v-6.1h3.5V31h-3.5z"/></svg>