<svg xmlns="http://www.w3.org/2000/svg" viewBox="0 0 40 40">
    <path d="M31.2 14h-17v-4c0-.6-.4-1-1-1h-2c-1.9 0-3.5 1.6-3.5 3.5v15c0 1.9 1.6 3.5 3.5 3.5h20c.6 0 1-.4 1-1V15c0-.6-.4-1-1-1zm-20 10c-.5 0-1 .1-1.5.4V12.5c0-.8.7-1.5 1.5-1.5h1v13h-1zm-1.4 3.5c0-.8.7-1.5 1.5-1.5h2c.6 0 1-.4 1-1v-9h16v13h-19c-.9 0-1.5-.7-1.5-1.5z"/>
    <path d="M17.2 26.5h10.4c.1-.1.1-.1.1-.2v-.2c0-.1-.1-.1-.1-.2l-1.7-1.2-5-3.5-3.3-2.3h-.5l-.1.1v.1l-.1.1v7.2c-.1-.1.1.1.3.1zm.6-1V20l4.2 2.9 3.7 2.6h-7.9z"/>
    <circle cx="19.2" cy="19" r=".5"/>
    <circle cx="21.2" cy="19" r=".5"/>
    <circle cx="25.2" cy="19" r=".5"/>
    <circle cx="23.2" cy="19" r=".5"/>
    <path d="M26.9 19.3c0 .1.1.1.2.1h.4c.1 0 .1-.1.2-.1 0 0 .1-.1.1-.2v-.4c0-.1-.1-.1-.1-.2s-.1-.1-.2-.1c-.1-.1-.3-.1-.4 0-.1 0-.1.1-.2.1 0 0-.1.1-.1.2v.4c0 .1 0 .2.1.2z"/>
    <circle cx="27.2" cy="24.2" r=".5"/>
    <circle cx="27.2" cy="22.5" r=".5"/>
    <circle cx="27.2" cy="20.8" r=".5"/>
</svg>
