<svg xmlns="http://www.w3.org/2000/svg" viewBox="0 0 40 40">
    <path d="M19 20.8c0-.1 0-.1-.1-.2v-.1s0-.1-.1-.1c0-.1-.1-.1-.1-.2 0 0-.1-.1-.2-.1l-.1-.1-6-3c-.5-.2-1.1 0-1.3.4s0 1.1.4 1.3l4.2 2.1-4.2 2.1c-.5.2-.7.8-.4 1.3.2.4.5.6.9.6.1 0 .3 0 .4-.1l6-3c.1-.1.2-.1.3-.2v-.1s.1-.1.1-.2v-.1c0-.1 0-.1.1-.2v-.2c.1.2.1.2.1.1zm9 4.2h-8c-.6 0-1 .4-1 1s.4 1 1 1h8c.6 0 1-.4 1-1s-.4-1-1-1z"/>
    <path d="M33 10c0-.6-.4-1-1-1H8c-.6 0-1 .4-1 1v20c0 .5.4 1 1 1h24c.5 0 1-.4 1-1V10zM9 29V15h22v14H9z"/>
</svg>
