<?xml version="1.0" encoding="utf-8"?>
<!-- Generator: Adobe Illustrator 22.1.0, SVG Export Plug-In . SVG Version: 6.00 Build 0)  -->
<svg version="1.1" id="Layer_1" xmlns="http://www.w3.org/2000/svg" xmlns:xlink="http://www.w3.org/1999/xlink" x="0px" y="0px"
	 viewBox="0 0 40 40" style="enable-background:new 0 0 40 40;" xml:space="preserve">
<g>
	<path d="M19,20.8c0-0.1,0-0.1-0.1-0.2c0,0,0,0,0-0.1c0,0,0-0.1-0.1-0.1c0-0.1-0.1-0.1-0.1-0.2c0,0-0.1-0.1-0.2-0.1
		c0,0-0.1-0.1-0.1-0.1l-6-3c-0.5-0.2-1.1,0-1.3,0.4s0,1.1,0.4,1.3l4.2,2.1l-4.2,2.1c-0.5,0.2-0.7,0.8-0.4,1.3
		c0.2,0.4,0.5,0.6,0.9,0.6c0.1,0,0.3,0,0.4-0.1l6-3c0,0,0,0,0,0c0.1-0.1,0.2-0.1,0.3-0.2c0,0,0,0,0-0.1c0,0,0.1-0.1,0.1-0.2
		c0,0,0,0,0-0.1c0-0.1,0-0.1,0.1-0.2c0-0.1,0-0.1,0-0.2C19,20.9,19,20.9,19,20.8z"/>
	<path d="M28,25h-8c-0.6,0-1,0.4-1,1s0.4,1,1,1h8c0.6,0,1-0.4,1-1S28.6,25,28,25z"/>
	<path d="M33,10c0-0.6-0.4-1-1-1H8c-0.6,0-1,0.4-1,1v4c0,0.1,0,0.2,0,0.2V30c0,0.5,0.4,1,1,1h24c0.5,0,1-0.4,1-1V14.2
		c0-0.1,0-0.1,0-0.2V10z M9,29V15H31v14H9z"/>
</g>
</svg>
