<?xml version="1.0" encoding="utf-8"?>
<svg version="1.1" xmlns="http://www.w3.org/2000/svg" xmlns:xlink="http://www.w3.org/1999/xlink" x="0px" y="0px"
	 viewBox="0 0 40 40" style="enable-background:new 0 0 40 40;" xml:space="preserve">
<g>
	<path d="M18.7,25.9c-0.7,0-1.3-0.3-1.8-0.7l-4.3-4.3c-0.2-0.2-0.2-0.5,0-0.7s0.5-0.2,0.7,0l4.3,4.3c0.3,0.3,0.8,0.5,1.2,0.4
		c0.4,0,0.9-0.3,1.1-0.7l6.6-10c0.2-0.2,0.5-0.3,0.7-0.1c0.2,0.2,0.3,0.5,0.1,0.7l-6.6,10c-0.4,0.6-1.1,1-1.8,1.1
		C18.9,25.9,18.8,25.9,18.7,25.9z"/>
</g>
</svg>
