<?xml version="1.0" encoding="utf-8"?>
<!-- Generator: Adobe Illustrator 21.1.0, SVG Export Plug-In . SVG Version: 6.00 Build 0)  -->
<svg version="1.1" id="Layer_1" xmlns="http://www.w3.org/2000/svg" xmlns:xlink="http://www.w3.org/1999/xlink" x="0px" y="0px"
	 viewBox="0 0 40 40" style="enable-background:new 0 0 40 40;" xml:space="preserve">
<style type="text/css">
	.st0{fill:none;stroke:#000000;stroke-width:2;stroke-linecap:round;stroke-linejoin:round;stroke-miterlimit:10;}
</style>
<polyline class="st0" points="301.4,264.2 307.1,258.6 309.9,261.4 309.9,252.9 301.4,252.9 304.2,255.8 295.8,264.2 298.6,267.1 
	290.1,267.1 290.1,258.6 292.9,261.4 298.6,255.8 "/>
<g>
	<path d="M18.6,28.1h-8.5c-0.6,0-1-0.4-1-1v-8.5c0-0.4,0.2-0.8,0.6-0.9c0.4-0.2,0.8-0.1,1.1,0.2l2.1,2.1l5-4.9c0.4-0.4,1-0.4,1.4,0
		s0.4,1,0,1.4l-5.7,5.7c-0.4,0.4-1,0.4-1.4,0L11.1,21v5.1h5.1l-1.1-1.1c-0.4-0.4-0.4-1,0-1.4l7.8-7.8l-2.1-2.1
		c-0.3-0.3-0.4-0.7-0.2-1.1s0.5-0.6,0.9-0.6h8.5c0.6,0,1,0.4,1,1v8.5c0,0.4-0.2,0.8-0.6,0.9c-0.4,0.2-0.8,0.1-1.1-0.2L27.1,20
		l-5,4.9c-0.4,0.4-1,0.4-1.4,0s-0.4-1,0-1.4l5.7-5.7c0.4-0.4,1-0.4,1.4,0l1.1,1.1v-5.1h-5.1l1.1,1.1c0.4,0.4,0.4,1,0,1.4l-7.8,7.8
		l2.1,2.1c0.3,0.3,0.4,0.7,0.2,1.1S19,28.1,18.6,28.1z"/>
</g>
</svg>
