<svg xmlns="http://www.w3.org/2000/svg" viewBox="0 0 40 40">
    <path d="M11.2 8L8 18h3l.6-2.1h2.9L15 18h3L14.8 8h-3.6zm.8 5.9l.5-2 .4-1.6.4 1.6.5 2H12zm17.8 14.8c0-.8-.1-1.8-.1-2.9.8-.1 1.6-.2 2.1-.3l-.1-1.5c-.6.2-1.2.3-2 .4v-2.1c.2 0 .3-.1.3-.3h-1.9c0 .9 0 1.7.1 2.6h-2.5v1.3h2.6c0 .8.1 1.8.1 2.4-.2 0-.5-.1-.7-.1-1.2 0-2.3.7-2.3 1.9 0 1.1.9 1.9 2.3 1.9 1 0 2.1-.2 2.2-1.7.5.3 1 .7 1.4 1.1L32 30c-.6-.5-1.4-1-2.2-1.3zm-2.1 2.1c-.6 0-1.1-.2-1.1-.7 0-.5.5-.7 1.1-.7.3 0 .6.1.8.1v.3c0 .6-.3 1-.8 1zm-4.2-1.5v-1c0-1.3 0-3.1.7-5.7.2 0 .3-.1.3-.2l-1.8-.3c-.3 1.8-.6 3.6-.6 5.3 0 1.6.2 3.6.5 4.4l1.4-.1c0-.2-.1-.3-.1-.5s0-.4.1-.6c.2-.7.7-1.6 1-2.2l-.8-1c-.2.4-.6 1.4-.7 1.9zM17 27.5h-3.5v-4.8H15c.3 0 .5-.2.7-.4.1-.3 0-.6-.2-.8l-2-2c-.3-.3-.7-.3-1 0l-2 2c-.2.2-.3.5-.2.8.1.3.4.4.7.4h1.5V28c0 .3.2.5.5.5h4c.3 0 .5-.2.5-.5s-.2-.5-.5-.5zm9.5-12.2H25c-.3 0-.5.2-.7.4s0 .6.2.8l2 2c.1.1.3.2.5.2s.4-.1.5-.2l2-2c.2-.2.3-.5.2-.8s-.4-.4-.7-.4h-1.5V12c0-.3-.2-.5-.5-.5h-7c-.3 0-.5.2-.5.5s.2.5.5.5h6.5v2.8z"/>
</svg>
