<?xml version="1.0" encoding="utf-8"?>
<!-- Generator: Adobe Illustrator 21.1.0, SVG Export Plug-In . SVG Version: 6.00 Build 0)  -->
<svg version="1.1" id="Layer_1" xmlns="http://www.w3.org/2000/svg" xmlns:xlink="http://www.w3.org/1999/xlink" x="0px" y="0px"
	 viewBox="0 0 40 40" style="enable-background:new 0 0 40 40;" xml:space="preserve">
<g>
	<path d="M11.2,8L8,18h3l0.6-2.1h2.9L15,18H18L14.8,8H11.2z M12,13.9l0.5-2l0.4-1.6h0l0.4,1.6l0.5,2H12z"/>
	<path d="M23.5,29.3c0-0.2,0-0.6,0-1c0-1.3,0-3.1,0.7-5.7c0.2,0,0.3-0.1,0.3-0.2l-1.8-0.3c-0.3,1.8-0.6,3.6-0.6,5.3
		c0,1.6,0.2,3.6,0.5,4.4l1.4-0.1c0-0.2-0.1-0.3-0.1-0.5c0-0.2,0-0.4,0.1-0.6c0.2-0.7,0.7-1.6,1-2.2l-0.8-1
		C24,27.8,23.6,28.8,23.5,29.3z"/>
	<path d="M29.8,28.7c0-0.8-0.1-1.8-0.1-2.9c0.8-0.1,1.6-0.2,2.1-0.3L31.7,24c-0.6,0.2-1.2,0.3-2,0.4l0-2.1c0.2,0,0.3-0.1,0.3-0.3
		L28.1,22c0,0.9,0,1.7,0.1,2.6c-0.6,0-1.2,0-1.8,0c-0.2,0-0.5,0-0.7,0l0,1.3h1.6c0.3,0,0.7,0,1,0c0,0.8,0.1,1.8,0.1,2.4
		c-0.2,0-0.5-0.1-0.7-0.1c-1.2,0-2.3,0.7-2.3,1.9c0,1.1,0.9,1.9,2.3,1.9c1,0,2.1-0.2,2.2-1.7c0.5,0.3,1,0.7,1.4,1.1L32,30
		C31.4,29.5,30.6,29,29.8,28.7z M27.7,30.8c-0.6,0-1.1-0.2-1.1-0.7c0-0.5,0.5-0.7,1.1-0.7c0.3,0,0.6,0.1,0.8,0.1c0,0.1,0,0.2,0,0.3
		C28.5,30.4,28.2,30.8,27.7,30.8z"/>
	<path d="M17,27h-3v-4.3h1c0.3,0,0.5-0.2,0.7-0.4c0.1-0.3,0-0.6-0.2-0.8l-2-2c-0.3-0.3-0.7-0.3-1,0l-2,2c-0.2,0.2-0.3,0.5-0.2,0.8
		c0.1,0.3,0.4,0.4,0.7,0.4h1V28c0,0.6,0.4,1,1,1h4c0.6,0,1-0.4,1-1S17.6,27,17,27z"/>
	<path d="M26,15.3h-1c-0.3,0-0.5,0.2-0.7,0.4c-0.1,0.3,0,0.6,0.2,0.8l2,2c0.1,0.1,0.3,0.2,0.5,0.2s0.4-0.1,0.5-0.2l2-2
		c0.2-0.2,0.3-0.5,0.2-0.8c-0.1-0.3-0.4-0.4-0.7-0.4h-1V12c0-0.6-0.4-1-1-1h-7c-0.6,0-1,0.4-1,1s0.4,1,1,1h6V15.3z"/>
</g>
</svg>
