<svg xmlns="http://www.w3.org/2000/svg" viewBox="0 0 40 40">
    <path d="M301.4 264.2l5.7-5.6 2.8 2.8v-8.5h-8.5l2.8 2.9-8.4 8.4 2.8 2.9h-8.5v-8.5l2.8 2.8 5.7-5.6" />
    <path d="M18.6 28.1h-8.5c-.6 0-1-.4-1-1v-8.5c0-.4.2-.8.6-.9.4-.2.8-.1 1.1.2l2.1 2.1 5-4.9c.4-.4 1-.4 1.4 0s.4 1 0 1.4l-5.7 5.7c-.4.4-1 .4-1.4 0L11.1 21v5.1h5.1L15.1 25c-.4-.4-.4-1 0-1.4l7.8-7.8-2.1-2.1c-.3-.3-.4-.7-.2-1.1s.5-.6.9-.6H30c.6 0 1 .4 1 1v8.5c0 .4-.2.8-.6.9-.4.2-.8.1-1.1-.2L27.1 20l-5 4.9c-.4.4-1 .4-1.4 0s-.4-1 0-1.4l5.7-5.7c.4-.4 1-.4 1.4 0l1.1 1.1v-5.1h-5.1l1.1 1.1c.4.4.4 1 0 1.4l-7.8 7.8 2.1 2.1c.3.3.4.7.2 1.1s-.4.8-.8.8z" />
</svg>
