<?xml version="1.0" encoding="utf-8"?>
<!-- Generator: Adobe Illustrator 22.1.0, SVG Export Plug-In . SVG Version: 6.00 Build 0)  -->
<svg version="1.1" id="Layer_1" xmlns="http://www.w3.org/2000/svg" xmlns:xlink="http://www.w3.org/1999/xlink" x="0px" y="0px"
	 viewBox="0 0 40 40" style="enable-background:new 0 0 40 40;" xml:space="preserve">
<g>
	<path d="M26.8,12.3c-1.5-1.8-3.7-2.8-6.1-2.8c-3.6,0-6.7,2.4-7.7,5.7c-0.2,0-0.5-0.1-0.8-0.1c-2.9,0-5.2,2.3-5.2,5.2
		c0,2.9,2.3,5.2,5.2,5.2H16c0.6,0,1-0.4,1-1s-0.4-1-1-1h-3.8c-1.8,0-3.2-1.5-3.2-3.2c0-1.8,1.5-3.2,3.2-3.2c0.4,0,0.8,0.1,1.1,0.2
		c0.3,0.1,0.6,0.1,0.9-0.1c0.3-0.2,0.4-0.4,0.5-0.7c0-0.1,0-0.1,0-0.2c0.6-2.8,3.1-4.8,5.9-4.8c1.9,0,3.7,0.9,4.8,2.4
		c0.2,0.3,0.5,0.4,0.8,0.4c2.6,0,4.6,2.1,4.6,4.6s-2.1,4.6-4.6,4.6H24c-0.6,0-1,0.4-1,1s0.4,1,1,1h2.4c3.7,0,6.6-3,6.6-6.6
		C33,15.4,30.3,12.6,26.8,12.3z"/>
	<path d="M24,21.2c0.3,0,0.5-0.2,0.7-0.4c0.1-0.3,0-0.6-0.2-0.8l-4-4c-0.3-0.3-0.7-0.3-1,0l-4,4c-0.2,0.2-0.3,0.5-0.2,0.8
		c0.1,0.3,0.4,0.4,0.7,0.4h0l3,0l0,8.3c0,0.6,0.4,1,1,1h0c0.6,0,1-0.4,1-1l0-8.3L24,21.2z"/>
</g>
</svg>
