<svg xmlns="http://www.w3.org/2000/svg" viewBox="0 0 40 40">
    <path d="M26.8 12.3c-1.5-1.8-3.7-2.8-6.1-2.8-3.6 0-6.7 2.4-7.7 5.7-.2 0-.5-.1-.8-.1-2.9 0-5.2 2.3-5.2 5.2 0 2.9 2.3 5.2 5.2 5.2H16c.6 0 1-.4 1-1s-.4-1-1-1h-3.8C10.4 23.5 9 22 9 20.3c0-1.8 1.5-3.2 3.2-3.2.4 0 .8.1 1.1.2.3.1.6.1.9-.1.3-.2.4-.4.5-.7v-.2c.6-2.8 3.1-4.8 5.9-4.8 1.9 0 3.7.9 4.8 2.4.2.3.5.4.8.4 2.6 0 4.6 2.1 4.6 4.6s-2.1 4.6-4.6 4.6H24c-.6 0-1 .4-1 1s.4 1 1 1h2.4c3.7 0 6.6-3 6.6-6.6 0-3.5-2.7-6.3-6.2-6.6z"/>
    <path d="M24 21.2c.3 0 .5-.2.7-.4.1-.3 0-.6-.2-.8l-4-4c-.3-.3-.7-.3-1 0l-4 4c-.2.2-.3.5-.2.8.1.3.4.4.7.4h3v8.3c0 .6.4 1 1 1s1-.4 1-1v-8.3h3z"/>
</svg>
