<svg xmlns="http://www.w3.org/2000/svg" viewBox="0 0 40 40"><path d="M26.842 11.779a7.968 7.968 0 0 0-6.136-2.842c-3.562 0-6.696 2.366-7.71 5.703A5.242 5.242 0 0 0 7 19.819a5.242 5.242 0 0 0 5.235 5.236H16a1 1 0 1 0 0-2h-3.765A3.239 3.239 0 0 1 9 19.819a3.238 3.238 0 0 1 3.235-3.235c.396 0 .779.071 1.137.212a1.002 1.002 0 0 0 1.357-.789 6.08 6.08 0 0 1 5.978-5.071c1.923 0 3.687.883 4.839 2.423.189.252.492.401.808.401 2.562 0 4.647 2.084 4.647 4.647s-2.085 4.647-4.647 4.647H24a1 1 0 1 0 0 2h2.353A6.655 6.655 0 0 0 33 18.407c0-3.498-2.717-6.374-6.158-6.628z"/><path d="M24 20.768a.707.707 0 0 0 .5-1.208l-4.002-3.998a.706.706 0 0 0-1 0L15.5 19.565a.707.707 0 0 0 .5 1.208l3-.001.005 9.293a1 1 0 0 0 1 .999h.001a1 1 0 0 0 .999-1.001L21 20.771l3-.003z"/></svg>