<?xml version="1.0" encoding="utf-8"?>
<!-- Generator: Adobe Illustrator 22.1.0, SVG Export Plug-In . SVG Version: 6.00 Build 0)  -->
<svg version="1.1" id="Layer_1" xmlns="http://www.w3.org/2000/svg" xmlns:xlink="http://www.w3.org/1999/xlink" x="0px" y="0px"
	 viewBox="0 0 40 40" style="enable-background:new 0 0 40 40;" xml:space="preserve">
<g>
	<path d="M26.842,11.779c-1.531-1.812-3.74-2.842-6.136-2.842c-3.562,0-6.696,2.366-7.71,5.703c-0.25-0.037-0.504-0.056-0.761-0.056
		C9.349,14.584,7,16.933,7,19.819c0,2.887,2.349,5.236,5.235,5.236H16c0.552,0,1-0.447,1-1s-0.448-1-1-1h-3.765
		C10.451,23.055,9,21.604,9,19.819c0-1.784,1.451-3.235,3.235-3.235c0.396,0,0.779,0.071,1.137,0.212
		c0.284,0.112,0.604,0.088,0.87-0.066c0.264-0.154,0.444-0.42,0.487-0.723c0.01-0.07,0.02-0.135,0.04-0.224
		c0.573-2.809,3.07-4.847,5.938-4.847c1.923,0,3.687,0.883,4.839,2.423c0.189,0.252,0.492,0.401,0.808,0.401
		c2.562,0,4.647,2.084,4.647,4.647s-2.085,4.647-4.647,4.647H24c-0.553,0-1,0.447-1,1s0.447,1,1,1h2.353
		c3.665,0,6.647-2.982,6.647-6.647C33,14.909,30.283,12.033,26.842,11.779z"/>
	<path d="M24,20.768c0.286,0,0.544-0.173,0.653-0.437c0.109-0.265,0.049-0.569-0.153-0.771l-4.002-3.998
		c-0.278-0.277-0.724-0.276-1,0L15.5,19.565c-0.202,0.203-0.263,0.507-0.153,0.771c0.11,0.265,0.368,0.437,0.653,0.437h0l3-0.001
		l0.005,9.293c0,0.552,0.448,0.999,1,0.999c0,0,0,0,0.001,0c0.552,0,0.999-0.448,0.999-1.001l-0.005-9.292L24,20.768z"/>
</g>
</svg>
