<?xml version="1.0" encoding="utf-8"?>
<!-- Generator: Adobe Illustrator 21.1.0, SVG Export Plug-In . SVG Version: 6.00 Build 0)  -->
<svg version="1.1" id="Layer_1" xmlns="http://www.w3.org/2000/svg" xmlns:xlink="http://www.w3.org/1999/xlink" x="0px" y="0px"
	 viewBox="0 0 40 40" style="enable-background:new 0 0 40 40;" xml:space="preserve">
<path d="M24.8,22.1C26.2,20.8,27,19,27,17c0-3.9-3.1-7-7-7c-3.9,0-7,3.1-7,7c0,2,0.8,3.8,2.2,5.1C12.8,22.5,11,24.5,11,27v2
	c0,0.6,0.4,1,1,1h16c0.6,0,1-0.4,1-1v-2C29,24.5,27.2,22.5,24.8,22.1z M15,17c0-2.8,2.2-5,5-5s5,2.2,5,5s-2.2,5-5,5S15,19.8,15,17z
	 M27,28H13v-1c0-1.7,1.3-3,3-3h8c1.7,0,3,1.3,3,3V28z"/>
</svg>
