<?xml version="1.0" encoding="utf-8"?>
<!-- Generator: Adobe Illustrator 21.1.0, SVG Export Plug-In . SVG Version: 6.00 Build 0)  -->
<svg version="1.1" id="Layer_1" xmlns="http://www.w3.org/2000/svg" xmlns:xlink="http://www.w3.org/1999/xlink" x="0px" y="0px"
	 viewBox="0 0 40 40" style="enable-background:new 0 0 40 40;" xml:space="preserve">
<path d="M23.2,22.2c1.6-1,2.6-2.8,2.6-4.9c0-3.2-2.6-5.8-5.8-5.8s-5.8,2.6-5.8,5.8c0,2,1,3.8,2.6,4.9c-3,0.3-5.3,2.8-5.3,5.8
	c0,0.3,0.2,0.5,0.5,0.5s0.5-0.2,0.5-0.5c0-2.7,2.2-4.8,4.8-4.8h5.3c2.5,0,4.6,1.9,4.8,4.3H16c-0.3,0-0.5,0.2-0.5,0.5
	s0.2,0.5,0.5,0.5h12c0.3,0,0.5-0.2,0.5-0.5C28.5,25,26.2,22.5,23.2,22.2z M15.2,17.3c0-2.7,2.2-4.8,4.8-4.8s4.8,2.2,4.8,4.8
	s-2.2,4.8-4.8,4.8S15.2,20,15.2,17.3z"/>
</svg>
