<?xml version="1.0" encoding="utf-8"?>
<!-- Generator: Adobe Illustrator 22.1.0, SVG Export Plug-In . SVG Version: 6.00 Build 0)  -->
<svg version="1.1" id="Layer_1" xmlns="http://www.w3.org/2000/svg" xmlns:xlink="http://www.w3.org/1999/xlink" x="0px" y="0px"
	 viewBox="0 0 40 40" style="enable-background:new 0 0 40 40;" xml:space="preserve">
<g>
	<path d="M32.793,19.391C32.562,19.089,27.039,12,20,12c-7.04,0-12.562,7.089-12.793,7.391c-0.275,0.359-0.275,0.858,0,1.218
		C7.438,20.911,12.96,28,20,28c7.039,0,12.562-7.089,12.793-7.391C33.069,20.25,33.069,19.75,32.793,19.391z M20,26
		c-4.938,0-9.252-4.365-10.695-6.001C10.745,18.363,15.048,14,20,14c4.938,0,9.252,4.365,10.695,6.001
		C29.255,21.638,24.951,26,20,26z"/>
	<path d="M20,16c-2.206,0-4,1.794-4,4c0,2.206,1.794,4,4,4c2.206,0,4-1.794,4-4C24,17.794,22.206,16,20,16z M20,22
		c-1.103,0-2-0.897-2-2c0-1.103,0.897-2,2-2c1.103,0,2,0.897,2,2C22,21.103,21.103,22,20,22z"/>
</g>
</svg>
