<svg xmlns="http://www.w3.org/2000/svg" viewBox="0 0 40 40"><path d="M32.793 19.391C32.562 19.089 27.039 12 20 12c-7.04 0-12.562 7.089-12.793 7.391a1.002 1.002 0 0 0 0 1.218C7.438 20.911 12.96 28 20 28c7.039 0 12.562-7.089 12.793-7.391a1 1 0 0 0 0-1.218zM20 26c-4.938 0-9.252-4.365-10.695-6.001C10.745 18.363 15.048 14 20 14c4.938 0 9.252 4.365 10.695 6.001C29.255 21.638 24.951 26 20 26z"/><path d="M20 16c-2.206 0-4 1.794-4 4s1.794 4 4 4 4-1.794 4-4-1.794-4-4-4zm0 6c-1.103 0-2-.897-2-2s.897-2 2-2 2 .897 2 2-.897 2-2 2z"/></svg>