<?xml version="1.0" encoding="utf-8"?>
<!-- Generator: Adobe Illustrator 22.1.0, SVG Export Plug-In . SVG Version: 6.00 Build 0)  -->
<svg version="1.1" id="Layer_1" xmlns="http://www.w3.org/2000/svg" xmlns:xlink="http://www.w3.org/1999/xlink" x="0px" y="0px"
	 viewBox="0 0 40 40" style="enable-background:new 0 0 40 40;" xml:space="preserve">
<g>
	<path d="M32,15h-1v-5c0-0.552-0.447-1-1-1H8c-0.552,0-1,0.448-1,1v20c0,0.553,0.448,1,1,1h22c0.553,0,1-0.447,1-1v-5h1
		c0.553,0,1-0.447,1-1v-8C33,15.448,32.553,15,32,15z M29,29H9V11h20v4h-5c-2.757,0-5,2.243-5,5s2.243,5,5,5h5V29z M31,23h-7
		c-1.654,0-3-1.346-3-3s1.346-3,3-3h7V23z"/>
	<path d="M23,20c0,0.552,0.447,1,1,1h4c0.553,0,1-0.448,1-1s-0.447-1-1-1h-4C23.447,19,23,19.448,23,20z"/>
</g>
</svg>
