<svg xmlns="http://www.w3.org/2000/svg" viewBox="0 0 40 40">
    <path d="M20 7C12.8 7 7 12.8 7 20s5.8 13 13 13 13-5.8 13-13S27.2 7 20 7zm10 8.5h-5.8c-.3-2.5-.9-4.8-1.8-6.2 3.4.7 6.2 3.1 7.6 6.2zm1 4.5c0 1.2-.2 2.4-.6 3.5h-6.1c.1-1.1.2-2.3.2-3.5s-.1-2.4-.2-3.5h6.1c.4 1.1.6 2.3.6 3.5zM20 31c-.3 0-.7 0-1-.1-.9-1-1.8-3.3-2.2-6.4h6.4c-.4 3.2-1.3 5.5-2.2 6.4-.3.1-.7.1-1 .1zm-3.3-7.5c-.1-1.1-.2-2.3-.2-3.5s.1-2.4.2-3.5h6.7c.1 1.1.2 2.3.2 3.5s-.1 2.4-.2 3.5h-6.7zM9 20c0-1.2.2-2.4.6-3.5h6.1c-.1 1.1-.2 2.3-.2 3.5s.1 2.4.2 3.5H9.6C9.2 22.4 9 21.2 9 20zM20 9c.3 0 .7 0 1 .1.9 1 1.8 3.3 2.2 6.4h-6.4c.4-3.2 1.3-5.5 2.2-6.4.3-.1.7-.1 1-.1zm-2.4.3c-.9 1.5-1.5 3.7-1.8 6.2H10c1.4-3.1 4.2-5.5 7.6-6.2zM10 24.5h5.8c.3 2.5.9 4.8 1.8 6.2-3.4-.7-6.2-3.1-7.6-6.2zm12.4 6.2c.9-1.5 1.5-3.7 1.8-6.2H30c-1.4 3.1-4.2 5.5-7.6 6.2z"/>
</svg>
