<svg xmlns="http://www.w3.org/2000/svg" viewBox="0 0 40 40"><path d="M32 25c.6-1.5 1-3.2 1-5 0-1.8-.4-3.5-1-5-2-4.7-6.6-8-12-8s-10 3.3-12 8c-.6 1.5-1 3.2-1 5 0 1.8.4 3.5 1 5 2 4.7 6.6 8 12 8s10-3.3 12-8zm-12 6c-.7 0-2-2.1-2.6-6h5.3c-.7 3.9-2 6-2.7 6zm-2.9-8c-.1-.9-.1-1.9-.1-3s0-2.1.1-3h5.7c.1.9.1 1.9.1 3s0 2.1-.1 3h-5.7zM9 20c0-1 .2-2 .4-3h5.7c-.1 1-.1 2-.1 3s0 2 .1 3H9.4c-.2-1-.4-2-.4-3zM20 9c.7 0 2 2.1 2.6 6h-5.3c.7-3.9 2-6 2.7-6zm4.9 8h5.7c.3 1 .4 2 .4 3s-.2 2-.4 3h-5.7c.1-1 .1-2 .1-3s0-2-.1-3zm4.9-2h-5.1c-.3-2.2-.9-4.1-1.6-5.6 2.9.9 5.3 2.9 6.7 5.6zM17 9.4c-.7 1.4-1.3 3.4-1.6 5.6h-5.1c1.3-2.7 3.7-4.7 6.7-5.6zM10.2 25h5.1c.3 2.2.9 4.1 1.6 5.6-2.9-.9-5.3-2.9-6.7-5.6zM23 30.6c.7-1.4 1.3-3.4 1.6-5.6h5.1c-1.3 2.7-3.7 4.7-6.7 5.6z"/></svg>