<svg xmlns="http://www.w3.org/2000/svg" xmlns:xlink="http://www.w3.org/1999/xlink"><defs><style>
    .sprite-symbol-usage {display: none;}
    .sprite-symbol-usage:target {display: inline;}
  </style><symbol viewBox="0 0 40 40" id="arrow-left">
<g>
	<path d="M16.3,18.2l7.1-7.1c0.2-0.2,0.5-0.2,0.7,0c0.2,0.2,0.2,0.5,0,0.7L17,18.9c-0.6,0.6-0.6,1.5,0,2.1l7.1,7.1
		c0.2,0.2,0.2,0.5,0,0.7c-0.2,0.2-0.5,0.2-0.7,0l-7.1-7.1c-0.5-0.5-0.7-1.2-0.7-1.8S15.8,18.6,16.3,18.2z" />
</g>
</symbol><symbol viewBox="0 0 40 40" id="add">
<path d="M20.5,20.4h5.1c0.3,0,0.5-0.2,0.5-0.5c0-0.3-0.2-0.5-0.5-0.5h-5.1v-5.1c0-0.3-0.2-0.5-0.5-0.5s-0.5,0.2-0.5,0.5l0,5.1h-5.1
	c-0.3,0-0.5,0.2-0.5,0.5c0,0.1,0.1,0.2,0.2,0.4c0.1,0.1,0.2,0.2,0.4,0.2h5.1v5.1c0,0.1,0.1,0.2,0.2,0.4s0.2,0.2,0.4,0.2
	c0.3,0,0.5-0.2,0.5-0.5L20.5,20.4z" />
</symbol><symbol viewBox="0 0 40 40" id="arrow-down">
<g>
	<path d="M20,24.3c-0.6,0-1.3-0.2-1.8-0.7l-7.1-7.1c-0.2-0.2-0.2-0.5,0-0.7s0.5-0.2,0.7,0l7.1,7.1c0.6,0.6,1.5,0.6,2.1,0l7.1-7.1
		c0.2-0.2,0.5-0.2,0.7,0s0.2,0.5,0,0.7l-7.1,7.1C21.3,24.1,20.6,24.3,20,24.3z" />
</g>
</symbol><symbol viewBox="0 0 40 40" id="arrow-right">
<g>
	<path d="M24.3,19.9c0,0.6-0.2,1.3-0.7,1.8l-7.1,7.1c-0.2,0.2-0.5,0.2-0.7,0c-0.2-0.2-0.2-0.5,0-0.7l7.1-7.1c0.6-0.6,0.6-1.5,0-2.1
		l-7.1-7.1c-0.2-0.2-0.2-0.5,0-0.7s0.5-0.2,0.7,0l7.1,7.1C24.1,18.6,24.3,19.3,24.3,19.9z" />
</g>
</symbol><symbol viewBox="0 0 40 40" id="cross">
<path d="M20.7,20l3.6-3.6c0.2-0.2,0.2-0.5,0-0.7s-0.5-0.2-0.7,0L20,19.3l-3.6-3.6c-0.2-0.2-0.5-0.2-0.7,0s-0.2,0.5,0,0.7l3.6,3.6
	l-3.6,3.6c-0.2,0.2-0.2,0.5,0,0.7c0.1,0.1,0.2,0.1,0.4,0.1s0.3,0,0.4-0.1l3.6-3.6l3.6,3.6c0.1,0.1,0.2,0.1,0.4,0.1s0.3,0,0.4-0.1
	c0.2-0.2,0.2-0.5,0-0.7L20.7,20z" />
</symbol><symbol viewBox="0 0 40 40" id="arrow-up">
<g>
	<path d="M21.7,16.3l7.1,7.1c0.2,0.2,0.2,0.5,0,0.7c-0.2,0.2-0.5,0.2-0.7,0L21,17c-0.6-0.6-1.5-0.6-2.1,0l-7.1,7.1
		c-0.2,0.2-0.5,0.2-0.7,0c-0.2-0.2-0.2-0.5,0-0.7l7.1-7.1c0.5-0.5,1.2-0.7,1.8-0.7S21.3,15.8,21.7,16.3z" />
</g>
</symbol><symbol viewBox="0 0 40 40" id="lock">
<g>
	<path d="M25.3,29H14.7c-0.3,0-0.5-0.2-0.5-0.5v-8c0-0.3,0.2-0.5,0.5-0.5h10.7c0.3,0,0.5,0.2,0.5,0.5v8C25.8,28.8,25.6,29,25.3,29z
		 M15.2,28h9.7v-7h-9.7V28z" />
</g>
<g>
	<path d="M24,17.5c-0.3,0-0.5-0.2-0.5-0.5c0-1.9-1.6-3.5-3.5-3.5s-3.5,1.6-3.5,3.5c0,0.3-0.2,0.5-0.5,0.5s-0.5-0.2-0.5-0.5
		c0-2.5,2-4.5,4.5-4.5s4.5,2,4.5,4.5C24.5,17.3,24.3,17.5,24,17.5z" />
</g>
<g>
	<path d="M20,26c-0.3,0-0.5-0.2-0.5-0.5v-2c0-0.3,0.2-0.5,0.5-0.5s0.5,0.2,0.5,0.5v2C20.5,25.8,20.3,26,20,26z" />
</g>
</symbol><symbol viewBox="0 0 40 40" id="mail">
<g>
	<path d="M28,17.5c-0.3,0-0.5,0.2-0.5,0.5v7.5h-15v-11H28c0.3,0,0.5-0.2,0.5-0.5s-0.2-0.5-0.5-0.5H12c-0.3,0-0.5,0.2-0.5,0.5v12
		c0,0.3,0.2,0.5,0.5,0.5h16c0.3,0,0.5-0.2,0.5-0.5v-8C28.5,17.7,28.3,17.5,28,17.5z" />
	<path d="M23.6,17.6L20,21.3l-3.6-3.6c-0.2-0.2-0.5-0.2-0.7,0s-0.2,0.5,0,0.7l4,4c0.1,0.1,0.2,0.1,0.4,0.1s0.3,0,0.4-0.1l4-4
		c0.2-0.2,0.2-0.5,0-0.7S23.8,17.5,23.6,17.6z" />
</g>
</symbol><symbol viewBox="0 0 40 40" id="page">
<g>
	<path d="M28.8,18.4c0-0.3-0.2-0.5-0.5-0.5s-0.5,0.2-0.5,0.5l0,11.2H12.2l0-19.1H20c0.3,0,0.5-0.2,0.5-0.5S20.3,9.5,20,9.5h-8.3
		c-0.1,0-0.3,0.1-0.4,0.1s-0.1,0.2-0.1,0.4l0,20.1c0,0.3,0.2,0.5,0.5,0.5h16.6c0.1,0,0.3-0.1,0.4-0.1s0.1-0.2,0.1-0.4L28.8,18.4z" />
	<path d="M23.3,15.5h5c0.2,0,0.4-0.1,0.5-0.3s0-0.4-0.1-0.5l-5-5c-0.1-0.1-0.4-0.2-0.5-0.1s-0.3,0.3-0.3,0.5v5
		C22.8,15.3,23.1,15.5,23.3,15.5z M23.8,11.2l3.3,3.3h-3.3V11.2z" />
	<path d="M15,13.9h5c0.3,0,0.5-0.2,0.5-0.5s-0.2-0.5-0.5-0.5h-5c-0.3,0-0.5,0.2-0.5,0.5S14.7,13.9,15,13.9z" />
	<path d="M15,17.2h5c0.3,0,0.5-0.2,0.5-0.5s-0.2-0.5-0.5-0.5h-5c-0.3,0-0.5,0.2-0.5,0.5S14.7,17.2,15,17.2z" />
	<path d="M25,19.5H15c-0.3,0-0.5,0.2-0.5,0.5s0.2,0.5,0.5,0.5h10c0.3,0,0.5-0.2,0.5-0.5S25.3,19.5,25,19.5z" />
	<path d="M25,22.9H15c-0.3,0-0.5,0.2-0.5,0.5s0.2,0.5,0.5,0.5h10c0.3,0,0.5-0.2,0.5-0.5S25.3,22.9,25,22.9z" />
	<path d="M25,26.2H15c-0.3,0-0.5,0.2-0.5,0.5s0.2,0.5,0.5,0.5h10c0.3,0,0.5-0.2,0.5-0.5S25.3,26.2,25,26.2z" />
</g>
</symbol><symbol viewBox="0 0 40 40" id="remove">
<g>
	<path d="M28,15.5H12c-0.3,0-0.5-0.2-0.5-0.5s0.2-0.5,0.5-0.5h16c0.3,0,0.5,0.2,0.5,0.5S28.3,15.5,28,15.5z" />
</g>
<g>
	<path d="M26,29.5H14c-0.3,0-0.5-0.2-0.5-0.5V17c0-0.3,0.2-0.5,0.5-0.5h12c0.3,0,0.5,0.2,0.5,0.5v12C26.5,29.3,26.3,29.5,26,29.5z
		 M14.5,28.5h11v-11h-11V28.5z" />
</g>
<g>
	<path d="M20,26.5c-0.3,0-0.5-0.2-0.5-0.5v-6c0-0.3,0.2-0.5,0.5-0.5s0.5,0.2,0.5,0.5v6C20.5,26.3,20.3,26.5,20,26.5z" />
</g>
<g>
	<path d="M17,26.5c-0.3,0-0.5-0.2-0.5-0.5v-6c0-0.3,0.2-0.5,0.5-0.5s0.5,0.2,0.5,0.5v6C17.5,26.3,17.3,26.5,17,26.5z" />
</g>
<g>
	<path d="M23,26.5c-0.3,0-0.5-0.2-0.5-0.5v-6c0-0.3,0.2-0.5,0.5-0.5s0.5,0.2,0.5,0.5v6C23.5,26.3,23.3,26.5,23,26.5z" />
</g>
<g>
	<path d="M24,13.5c-0.3,0-0.5-0.2-0.5-0.5v-1.5h-7V13c0,0.3-0.2,0.5-0.5,0.5s-0.5-0.2-0.5-0.5v-2c0-0.3,0.2-0.5,0.5-0.5h8
		c0.3,0,0.5,0.2,0.5,0.5v2C24.5,13.3,24.3,13.5,24,13.5z" />
</g>
</symbol><symbol viewBox="0 0 40 40" id="loading">
<style type="text/css">
	@keyframes rotate {
		from { transform: rotate(0deg); }
		to { transform: rotate(360deg); }
	}
	#loading .st0{fill:none;stroke:#000000;stroke-miterlimit:10;}
	#loading g {
		animation: rotate infinite 2s linear;
		transform-origin: center;
	}
	#loading g.inner {
		animation-direction: reverse;
	}
</style>
<g class="outer">
	<path class="st0" d="M6,20c0-7.7,6.3-14,14-14" />
	<path class="st0" d="M34,20c0,7.7-6.3,14-14,14" />
</g>
<g class="inner">
	<path class="st0" d="M20,29c-5,0-9-4-9-9" />
	<path class="st0" d="M20,11c5,0,9,4,9,9" />
</g>
</symbol><symbol viewBox="0 0 40 40" id="reorganise">
<g>
	<path d="M18.5,18v-6c0-0.3-0.2-0.5-0.5-0.5h-6c-0.3,0-0.5,0.2-0.5,0.5v6c0,0.3,0.2,0.5,0.5,0.5h6C18.3,18.5,18.5,18.3,18.5,18z
		 M17.5,17.5h-5v-5h5V17.5z" />
	<path d="M28,14.5h-3c-0.3,0-0.5,0.2-0.5,0.5s0.2,0.5,0.5,0.5h2.5v9h-4V22c0-0.3-0.2-0.5-0.5-0.5h-6c-0.3,0-0.5,0.2-0.5,0.5v6
		c0,0.3,0.2,0.5,0.5,0.5h6c0.3,0,0.5-0.2,0.5-0.5v-2.5H28c0.3,0,0.5-0.2,0.5-0.5V15C28.5,14.7,28.3,14.5,28,14.5z M22.5,27.5h-5v-5
		h5V27.5z" />
	<path d="M22.6,17.4c0.1,0.1,0.2,0.1,0.4,0.1s0.3,0,0.4-0.1c0.2-0.2,0.2-0.5,0-0.7L21.7,15l1.6-1.6c0.2-0.2,0.2-0.5,0-0.7
		s-0.5-0.2-0.7,0l-2,2c-0.2,0.2-0.2,0.5,0,0.7L22.6,17.4z" />
</g>
</symbol><symbol viewBox="0 0 40 40" id="tick">
<g>
	<path d="M18.7,25.9c-0.7,0-1.3-0.3-1.8-0.7l-4.3-4.3c-0.2-0.2-0.2-0.5,0-0.7s0.5-0.2,0.7,0l4.3,4.3c0.3,0.3,0.8,0.5,1.2,0.4
		c0.4,0,0.9-0.3,1.1-0.7l6.6-10c0.2-0.2,0.5-0.3,0.7-0.1c0.2,0.2,0.3,0.5,0.1,0.7l-6.6,10c-0.4,0.6-1.1,1-1.8,1.1
		C18.9,25.9,18.8,25.9,18.7,25.9z" />
</g>
</symbol><symbol viewBox="0 0 40 40" id="settings">
<g>
	<path d="M20,28.5c-4.7,0-8.5-3.8-8.5-8.5c0-4.7,3.8-8.5,8.5-8.5c4.7,0,8.5,3.8,8.5,8.5C28.5,24.7,24.7,28.5,20,28.5z M20,12.5
		c-4.1,0-7.5,3.4-7.5,7.5s3.4,7.5,7.5,7.5s7.5-3.4,7.5-7.5S24.1,12.5,20,12.5z" />
	<path d="M20,24.5c-2.5,0-4.5-2-4.5-4.5s2-4.5,4.5-4.5c0.3,0,0.5,0.2,0.5,0.5s-0.2,0.5-0.5,0.5c-1.9,0-3.5,1.6-3.5,3.5
		s1.6,3.5,3.5,3.5s3.5-1.6,3.5-3.5c0-0.3,0.2-0.5,0.5-0.5s0.5,0.2,0.5,0.5C24.5,22.5,22.5,24.5,20,24.5z" />
	<path d="M22,10.5c-0.3,0-0.5-0.2-0.5-0.5V9c0-0.3-0.2-0.5-0.5-0.5h-2c-0.3,0-0.5,0.2-0.5,0.5v1c0,0.3-0.2,0.5-0.5,0.5
		s-0.5-0.2-0.5-0.5V9c0-0.8,0.7-1.5,1.5-1.5h2c0.8,0,1.5,0.7,1.5,1.5v1C22.5,10.3,22.3,10.5,22,10.5z" />
	<path d="M21,32.5h-2c-0.8,0-1.5-0.7-1.5-1.5v-1c0-0.3,0.2-0.5,0.5-0.5s0.5,0.2,0.5,0.5v1c0,0.3,0.2,0.5,0.5,0.5h2
		c0.3,0,0.5-0.2,0.5-0.5v-1c0-0.3,0.2-0.5,0.5-0.5s0.5,0.2,0.5,0.5v1C22.5,31.8,21.8,32.5,21,32.5z" />
	<path d="M10,22.5H9c-0.8,0-1.5-0.7-1.5-1.5v-2c0-0.8,0.7-1.5,1.5-1.5h1c0.3,0,0.5,0.2,0.5,0.5s-0.2,0.5-0.5,0.5H9
		c-0.3,0-0.5,0.2-0.5,0.5v2c0,0.3,0.2,0.5,0.5,0.5h1c0.3,0,0.5,0.2,0.5,0.5S10.3,22.5,10,22.5z" />
	<path d="M31,22.5h-1c-0.3,0-0.5-0.2-0.5-0.5s0.2-0.5,0.5-0.5h1c0.3,0,0.5-0.2,0.5-0.5v-2c0-0.3-0.2-0.5-0.5-0.5h-1
		c-0.3,0-0.5-0.2-0.5-0.5s0.2-0.5,0.5-0.5h1c0.8,0,1.5,0.7,1.5,1.5v2C32.5,21.8,31.8,22.5,31,22.5z" />
	<path d="M12.9,30c-0.4,0-0.8-0.1-1.1-0.4l-1.4-1.4c-0.6-0.6-0.6-1.5,0-2.1l0.7-0.7c0.2-0.2,0.5-0.2,0.7,0s0.2,0.5,0,0.7l-0.7,0.7
		c-0.2,0.2-0.2,0.5,0,0.7l1.4,1.4c0.2,0.2,0.5,0.2,0.7,0l0.7-0.7c0.2-0.2,0.5-0.2,0.7,0s0.2,0.5,0,0.7L14,29.5
		C13.7,29.8,13.3,30,12.9,30z" />
	<path d="M28.5,14.8c-0.1,0-0.3,0-0.4-0.1c-0.2-0.2-0.2-0.5,0-0.7l0.7-0.7c0.2-0.2,0.2-0.5,0-0.7l-1.4-1.4c-0.2-0.2-0.5-0.2-0.7,0
		L26,11.9c-0.2,0.2-0.5,0.2-0.7,0s-0.2-0.5,0-0.7l0.7-0.7c0.6-0.6,1.5-0.6,2.1,0l1.4,1.4c0.6,0.6,0.6,1.5,0,2.1l-0.7,0.7
		C28.7,14.8,28.6,14.8,28.5,14.8z" />
	<path d="M11.5,14.8c-0.1,0-0.3,0-0.4-0.1L10.5,14c-0.6-0.6-0.6-1.5,0-2.1l1.4-1.4c0.6-0.6,1.5-0.6,2.1,0l0.7,0.7
		c0.2,0.2,0.2,0.5,0,0.7s-0.5,0.2-0.7,0l-0.7-0.7c-0.2-0.2-0.5-0.2-0.7,0l-1.4,1.4c-0.2,0.2-0.2,0.5,0,0.7l0.7,0.7
		c0.2,0.2,0.2,0.5,0,0.7C11.8,14.8,11.6,14.8,11.5,14.8z" />
	<path d="M27.1,30c-0.4,0-0.8-0.1-1.1-0.4l-0.7-0.7c-0.2-0.2-0.2-0.5,0-0.7s0.5-0.2,0.7,0l0.7,0.7c0.2,0.2,0.5,0.2,0.7,0l1.4-1.4
		c0.2-0.2,0.2-0.5,0-0.7L28.1,26c-0.2-0.2-0.2-0.5,0-0.7s0.5-0.2,0.7,0l0.7,0.7c0.6,0.6,0.6,1.5,0,2.1l-1.4,1.4
		C27.8,29.8,27.5,30,27.1,30z" />
</g>
</symbol><symbol viewBox="0 0 40 40" id="user">
<path d="M23.2,22.2c1.6-1,2.6-2.8,2.6-4.9c0-3.2-2.6-5.8-5.8-5.8s-5.8,2.6-5.8,5.8c0,2,1,3.8,2.6,4.9c-3,0.3-5.3,2.8-5.3,5.8
	c0,0.3,0.2,0.5,0.5,0.5s0.5-0.2,0.5-0.5c0-2.7,2.2-4.8,4.8-4.8h5.3c2.5,0,4.6,1.9,4.8,4.3H16c-0.3,0-0.5,0.2-0.5,0.5
	s0.2,0.5,0.5,0.5h12c0.3,0,0.5-0.2,0.5-0.5C28.5,25,26.2,22.5,23.2,22.2z M15.2,17.3c0-2.7,2.2-4.8,4.8-4.8s4.8,2.2,4.8,4.8
	s-2.2,4.8-4.8,4.8S15.2,20,15.2,17.3z" />
</symbol></defs><use id="arrow-left-usage" xlink:href="#arrow-left" class="sprite-symbol-usage" /><use id="add-usage" xlink:href="#add" class="sprite-symbol-usage" /><use id="arrow-down-usage" xlink:href="#arrow-down" class="sprite-symbol-usage" /><use id="arrow-right-usage" xlink:href="#arrow-right" class="sprite-symbol-usage" /><use id="cross-usage" xlink:href="#cross" class="sprite-symbol-usage" /><use id="arrow-up-usage" xlink:href="#arrow-up" class="sprite-symbol-usage" /><use id="lock-usage" xlink:href="#lock" class="sprite-symbol-usage" /><use id="mail-usage" xlink:href="#mail" class="sprite-symbol-usage" /><use id="page-usage" xlink:href="#page" class="sprite-symbol-usage" /><use id="remove-usage" xlink:href="#remove" class="sprite-symbol-usage" /><use id="loading-usage" xlink:href="#loading" class="sprite-symbol-usage" /><use id="reorganise-usage" xlink:href="#reorganise" class="sprite-symbol-usage" /><use id="tick-usage" xlink:href="#tick" class="sprite-symbol-usage" /><use id="settings-usage" xlink:href="#settings" class="sprite-symbol-usage" /><use id="user-usage" xlink:href="#user" class="sprite-symbol-usage" /></svg>