<svg xmlns="http://www.w3.org/2000/svg" xmlns:xlink="http://www.w3.org/1999/xlink"><defs><style>
    .sprite-symbol-usage {display: none;}
    .sprite-symbol-usage:target {display: inline;}
  </style><symbol viewBox="0 0 40 40" id="zen-icon-arrow-left">
<path d="M25.2,29.7c0.4-0.4,0.4-1,0-1.4L16.9,20l8.3-8.3c0.4-0.4,0.4-1,0-1.4s-1-0.4-1.4,0l-9,9c-0.2,0.2-0.3,0.5-0.3,0.7
	s0.1,0.5,0.3,0.7l9,9C24.2,30.1,24.8,30.1,25.2,29.7z" />
</symbol><symbol viewBox="0 0 40 40" id="zen-icon-add">
<path d="M30,19h-9v-9c0-0.6-0.4-1-1-1s-1,0.4-1,1v9h-9c-0.6,0-1,0.4-1,1s0.4,1,1,1h9v9c0,0.6,0.4,1,1,1s1-0.4,1-1v-9h9
	c0.6,0,1-0.4,1-1S30.6,19,30,19z" />
</symbol><symbol viewBox="0 0 40 40" id="zen-icon-arrow-down">
<path d="M29.7,14.8c-0.4-0.4-1-0.4-1.4,0L20,23.1l-8.3-8.3c-0.4-0.4-1-0.4-1.4,0s-0.4,1,0,1.4l9,9c0.2,0.2,0.5,0.3,0.7,0.3
	s0.5-0.1,0.7-0.3l9-9C30.1,15.8,30.1,15.2,29.7,14.8z" />
</symbol><symbol viewBox="0 0 40 40" id="zen-icon-app">
<g>
	<path d="M20,33c-0.2,0-0.3,0-0.5-0.1l-10.4-6c-0.3-0.2-0.5-0.5-0.5-0.9V14c0-0.4,0.2-0.7,0.5-0.9l10.4-6c0.3-0.2,0.7-0.2,1,0
		l10.4,6c0.3,0.2,0.5,0.5,0.5,0.9v12c0,0.4-0.2,0.7-0.5,0.9l-10.4,6C20.3,33,20.2,33,20,33z M10.6,25.4l9.4,5.4l9.4-5.4V14.6L20,9.2
		l-9.4,5.4V25.4z" />
</g>
</symbol><symbol viewBox="0 0 40 40" id="zen-icon-arrow-up">
<path d="M29.7,25.2c-0.4,0.4-1,0.4-1.4,0L20,16.9l-8.3,8.3c-0.4,0.4-1,0.4-1.4,0s-0.4-1,0-1.4l9-9c0.2-0.2,0.5-0.3,0.7-0.3
	s0.5,0.1,0.7,0.3l9,9C30.1,24.2,30.1,24.8,29.7,25.2z" />
</symbol><symbol viewBox="0 0 40 40" id="zen-icon-arrow-right">
<path d="M14.8,10.3c-0.4,0.4-0.4,1,0,1.4l8.3,8.3l-8.3,8.3c-0.4,0.4-0.4,1,0,1.4s1,0.4,1.4,0l9-9c0.2-0.2,0.3-0.5,0.3-0.7
	s-0.1-0.5-0.3-0.7l-9-9C15.8,9.9,15.2,9.9,14.8,10.3z" />
</symbol><symbol viewBox="0 0 40 40" id="zen-icon-brush">
<path d="M32.7,12.3l-2.8-2.8c-0.2-0.2-0.4-0.3-0.7-0.3s-0.5,0.1-0.7,0.3L17.3,20.6c-0.7-0.1-1.4-0.2-2.1-0.1
	c-0.9,0.1-1.6,0.5-2.2,1.2c-0.6,0.7-0.8,1.6-0.7,2.5c0,0.3,0,0.9-0.4,1.2c-0.6,0.5-2,0.4-3.6-0.2C8,25,7.6,25.1,7.3,25.4
	c-0.3,0.3-0.4,0.7-0.2,1.1c0.9,2.1,4,4.3,7,4.3c0.7,0,1.4-0.1,2.1-0.4c2.6-1.1,4.3-3,4.7-4.9l11.8-11.8
	C33.1,13.3,33.1,12.7,32.7,12.3z M15.4,28.6c-1.5,0.6-3.3,0-4.6-0.9c1.1,0,1.9-0.4,2.4-0.8c0.9-0.7,1.3-1.8,1.1-3.1
	c0-0.3,0.1-0.7,0.3-1c0.2-0.2,0.5-0.4,0.8-0.4c1.7-0.1,3.1,0.4,3.5,1.4C19.5,25.4,17.9,27.5,15.4,28.6z M20.6,23
	c-0.3-0.6-0.7-1.1-1.3-1.5l9.8-9.8l1.4,1.4L20.6,23z" />
</symbol><symbol viewBox="0 0 40 40" id="zen-icon-box">
<g>
	<g>
		<path d="M20,33c-0.173,0-0.346-0.045-0.5-0.134l-10.392-6c-0.31-0.179-0.5-0.509-0.5-0.866V14c0-0.357,0.19-0.688,0.5-0.866
			l10.392-6c0.309-0.178,0.691-0.178,1,0l10.393,6c0.31,0.179,0.5,0.509,0.5,0.866v12c0,0.357-0.19,0.688-0.5,0.866l-10.393,6
			C20.345,32.955,20.172,33,20,33z M10.608,25.423L20,30.845l9.393-5.423V14.577L20,9.154l-9.392,5.423V25.423z" />
	</g>
	<g>
		<path d="M19.999,21c-0.17,0-0.342-0.043-0.499-0.134l-10.392-6C8.629,14.59,8.465,13.978,8.741,13.5
			c0.276-0.479,0.886-0.643,1.366-0.366l10.392,6c0.479,0.276,0.643,0.888,0.366,1.366C20.68,20.821,20.344,21,19.999,21z" />
	</g>
	<g>
		<path d="M20.001,21c-0.346,0-0.682-0.179-0.867-0.5c-0.276-0.479-0.112-1.09,0.366-1.366l10.393-6
			c0.477-0.276,1.09-0.113,1.366,0.366c0.276,0.479,0.112,1.09-0.366,1.366l-10.393,6C20.342,20.957,20.171,21,20.001,21z" />
	</g>
	<g>
		<path d="M20,33c-0.553,0-1-0.447-1-1V20c0-0.553,0.447-1,1-1s1,0.447,1,1v12C21,32.552,20.552,33,20,33z" />
	</g>
	<g>
		<path d="M14.803,24.345c-0.553,0-1-0.447-1-1V17c0-0.553,0.447-1,1-1s1,0.447,1,1v6.346
			C15.803,23.898,15.356,24.345,14.803,24.345z" />
	</g>
</g>
<g>
	<path d="M14.804,18c-0.346,0-0.682-0.179-0.867-0.5c-0.276-0.479-0.112-1.09,0.366-1.366l10.188-5.882
		c0.477-0.276,1.089-0.114,1.366,0.366c0.276,0.479,0.112,1.09-0.366,1.366l-10.188,5.882C15.146,17.957,14.974,18,14.804,18z" />
</g>
</symbol><symbol viewBox="0 0 40 40" id="zen-icon-calendar">
<g>
	<path d="M28,8h-2c-0.6,0-1,0.4-1,1v0c0,0.6,0.4,1,1,1h2c0.6,0,1-0.4,1-1v0C29,8.4,28.6,8,28,8z" />
	<path d="M15,8h-2c-0.6,0-1,0.4-1,1v0c0,0.6,0.4,1,1,1h2c0.6,0,1-0.4,1-1v0C16,8.4,15.6,8,15,8z" />
	<path d="M32,10h-1c0,1.1-0.9,2-2,2h-4c-1.1,0-2-0.9-2-2h-5c0,1.1-0.9,2-2,2h-4c-1.1,0-2-0.9-2-2H8c-0.6,0-1,0.4-1,1v22
		c0,0.6,0.4,1,1,1h24c0.6,0,1-0.4,1-1V11C33,10.4,32.6,10,32,10z M16,15h8c0.6,0,1,0.4,1,1s-0.4,1-1,1h-8c-0.6,0-1-0.4-1-1
		S15.4,15,16,15z M31,32H9V20h22V32z" />
</g>
</symbol><symbol viewBox="0 0 40 40" id="zen-icon-camera">
<g>
	<path d="M30,30H10c-1.7,0-3-1.3-3-3V16c0-1.7,1.3-3,3-3h7c0-1.7,1.3-3,3-3h5c1.7,0,3,1.3,3,3h2c1.7,0,3,1.3,3,3v11
		C33,28.7,31.7,30,30,30z M10,15c-0.5,0-1,0.4-1,1v11c0,0.5,0.4,1,1,1h20c0.5,0,1-0.4,1-1V16c0-0.5-0.4-1-1-1h-3c-0.6,0-1-0.4-1-1
		v-1c0-0.6-0.4-1-1-1h-5c-0.6,0-1,0.4-1,1v1c0,0.6-0.4,1-1,1H10z" />
	<path d="M16,25.5c-2.2,0-4-1.8-4-4c0-2.2,1.8-4,4-4s4,1.8,4,4C20,23.7,18.2,25.5,16,25.5z M16,19.5c-1.1,0-2,0.9-2,2
		c0,1.1,0.9,2,2,2s2-0.9,2-2C18,20.4,17.1,19.5,16,19.5z" />
	<path d="M27,19.5h-4c-0.6,0-1-0.4-1-1s0.4-1,1-1h4c0.6,0,1,0.4,1,1S27.6,19.5,27,19.5z" />
</g>
</symbol><symbol viewBox="0 0 40 40" id="zen-icon-cloud">
<g>
	<path d="M26.4,28.1H12.2c-2.9,0-5.2-2.3-5.2-5.2s2.3-5.2,5.2-5.2c0.3,0,0.5,0,0.8,0.1c1-3.3,4.1-5.7,7.7-5.7c2.4,0,4.6,1,6.1,2.8
		c3.4,0.3,6.2,3.1,6.2,6.6C33,25.1,30,28.1,26.4,28.1z M12.2,19.6C10.5,19.6,9,21,9,22.8s1.5,3.2,3.2,3.2h14.1
		c2.6,0,4.6-2.1,4.6-4.6s-2.1-4.6-4.6-4.6h-0.5l-0.3-0.4c-1.2-1.5-2.9-2.4-4.8-2.4c-2.9,0-5.4,2-5.9,4.8c0,0.1,0,0.2,0,0.2l-0.2,1.3
		l-1.2-0.5C13,19.7,12.6,19.6,12.2,19.6z" />
</g>
</symbol><symbol viewBox="0 0 40 40" id="zen-icon-cross">
<path d="M21.4,20l6.3-6.3c0.4-0.4,0.4-1,0-1.4s-1-0.4-1.4,0L20,18.6l-6.3-6.3c-0.4-0.4-1-0.4-1.4,0s-0.4,1,0,1.4l6.3,6.3l-6.3,6.3
	c-0.4,0.4-0.4,1,0,1.4c0.2,0.2,0.5,0.3,0.7,0.3s0.5-0.1,0.7-0.3l6.3-6.3l6.3,6.3c0.2,0.2,0.5,0.3,0.7,0.3s0.5-0.1,0.7-0.3
	c0.4-0.4,0.4-1,0-1.4L21.4,20z" />
</symbol><symbol viewBox="0 0 40 40" id="zen-icon-code">
<g>
	<g>
		<g>
			<path d="M8.001,21c-0.367,0-0.72-0.202-0.896-0.553c-0.247-0.494-0.047-1.095,0.447-1.342l6-3
				c0.496-0.246,1.095-0.047,1.342,0.447c0.247,0.494,0.047,1.095-0.447,1.342l-6,3C8.304,20.966,8.151,21,8.001,21z" />
		</g>
		<g>
			<path d="M13.999,24c-0.15,0-0.303-0.034-0.446-0.105l-6-3c-0.494-0.247-0.694-0.848-0.447-1.342
				c0.247-0.493,0.847-0.693,1.342-0.447l6,3c0.494,0.247,0.694,0.848,0.447,1.342C14.719,23.798,14.366,24,13.999,24z" />
		</g>
	</g>
	<g>
		<g>
			<path d="M31.999,21c-0.15,0-0.303-0.034-0.446-0.105l-6-3c-0.494-0.247-0.694-0.848-0.447-1.342
				c0.248-0.494,0.847-0.692,1.342-0.447l6,3c0.494,0.247,0.694,0.848,0.447,1.342C32.719,20.798,32.366,21,31.999,21z" />
		</g>
		<g>
			<path d="M26.001,24c-0.367,0-0.72-0.202-0.896-0.553c-0.247-0.494-0.047-1.095,0.447-1.342l6-3
				c0.495-0.246,1.094-0.048,1.342,0.447c0.247,0.494,0.047,1.095-0.447,1.342l-6,3C26.304,23.966,26.151,24,26.001,24z" />
		</g>
	</g>
	<g>
		<path d="M18.501,27c-0.081,0-0.162-0.01-0.244-0.03c-0.536-0.134-0.861-0.677-0.728-1.212l3-12
			c0.135-0.536,0.68-0.861,1.213-0.728c0.536,0.134,0.862,0.677,0.727,1.212l-3,12C19.356,26.697,18.949,27,18.501,27z" />
	</g>
</g>
</symbol><symbol viewBox="0 0 40 40" id="zen-icon-dashboard">
<g>
	<path d="M20,7C12.8,7,7,12.8,7,20c0,7.2,5.8,13,13,13c7.2,0,13-5.8,13-13C33,12.8,27.2,7,20,7z M20,31c-6.1,0-11-4.9-11-11
		S13.9,9,20,9s11,4.9,11,11S26.1,31,20,31z" />
	<path d="M21,17.2V12c0-0.6-0.4-1-1-1s-1,0.4-1,1v5.2c-1.2,0.4-2,1.5-2,2.8c0,1.7,1.3,3,3,3s3-1.3,3-3C23,18.7,22.2,17.6,21,17.2z
		 M20,21c-0.6,0-1-0.4-1-1s0.4-1,1-1s1,0.4,1,1S20.6,21,20,21z" />
	<path d="M15,20c0-0.6-0.4-1-1-1h-2c-0.6,0-1,0.4-1,1s0.4,1,1,1h2C14.6,21,15,20.6,15,20z" />
	<path d="M15.1,16.5c0.2,0.2,0.5,0.3,0.7,0.3s0.5-0.1,0.7-0.3c0.4-0.4,0.4-1,0-1.4l-1.4-1.4c-0.4-0.4-1-0.4-1.4,0s-0.4,1,0,1.4
		L15.1,16.5z" />
	<path d="M24.2,16.8c0.3,0,0.5-0.1,0.7-0.3l1.4-1.4c0.4-0.4,0.4-1,0-1.4s-1-0.4-1.4,0L23.5,15c-0.4,0.4-0.4,1,0,1.4
		C23.7,16.7,24,16.8,24.2,16.8z" />
	<path d="M28,19h-2c-0.6,0-1,0.4-1,1s0.4,1,1,1h2c0.6,0,1-0.4,1-1S28.6,19,28,19z" />
	<path d="M24.9,23.5c-0.4-0.4-1-0.4-1.4,0s-0.4,1,0,1.4l1.4,1.4c0.2,0.2,0.5,0.3,0.7,0.3s0.5-0.1,0.7-0.3c0.4-0.4,0.4-1,0-1.4
		L24.9,23.5z" />
	<path d="M15,23.5L13.6,25c-0.4,0.4-0.4,1,0,1.4c0.2,0.2,0.5,0.3,0.7,0.3s0.5-0.1,0.7-0.3l1.4-1.4c0.4-0.4,0.4-1,0-1.4
		C16.1,23.1,15.4,23.1,15,23.5z" />
</g>
</symbol><symbol viewBox="0 0 40 40" id="zen-icon-database">
<g>
	<g>
		<path d="M20,30c-4.646,0-8.607-1.4-9.857-3.485c-0.284-0.474-0.13-1.088,0.343-1.372c0.475-0.285,1.087-0.13,1.372,0.343
			C12.588,26.704,15.69,28,20,28s7.411-1.296,8.143-2.515c0.284-0.473,0.898-0.628,1.372-0.343c0.474,0.284,0.627,0.898,0.343,1.372
			C28.607,28.6,24.645,30,20,30z" />
	</g>
	<g>
		<path d="M20,26c-4.646,0-8.607-1.4-9.857-3.485c-0.284-0.474-0.13-1.088,0.343-1.372c0.475-0.284,1.087-0.131,1.372,0.343
			C12.588,22.704,15.69,24,20,24s7.411-1.296,8.143-2.515c0.284-0.474,0.898-0.627,1.372-0.343s0.627,0.898,0.343,1.372
			C28.607,24.6,24.645,26,20,26z" />
	</g>
	<g>
		<path d="M20,12c4.418,0,8,1.791,8,4s-3.582,4-8,4s-8-1.791-8-4S15.582,12,20,12 M20,10c-5.701,0-10,2.579-10,6s4.299,6,10,6
			s10-2.579,10-6S25.701,10,20,10L20,10z" />
	</g>
</g>
</symbol><symbol viewBox="0 0 40 40" id="zen-icon-editor-bold">
<path d="M21,20c3.5,0,6.4-1.8,6.4-5.5S24.6,8,21,8h-9.5v24H21c4.7,0,7.5-2.9,7.5-6.5S25.7,20,21,20z M16.5,12h3.8
	c1.4,0,2.5,1.1,2.5,2.5c0,1.4-1.1,2.5-2.5,2.5h-3.8V12z M21.2,28h-4.7v-5h4.7c1.3,0,2.3,1.1,2.3,2.5C23.5,26.9,22.5,28,21.2,28z" />
</symbol><symbol viewBox="0 0 40 40" id="zen-icon-dollar">
<g>
	<path d="M19.303,28.569c-1.511-0.139-2.783-0.581-3.816-1.328c-0.805-0.581-1.433-1.337-1.885-2.267
		c-0.216-0.445-0.044-0.985,0.396-1.211l0.263-0.135c0.464-0.238,1.01-0.022,1.23,0.45c0.254,0.546,0.63,1.032,1.129,1.456
		c0.764,0.652,1.659,1.073,2.683,1.263v-6.042c-1.13-0.244-2.062-0.509-2.8-0.795c-0.739-0.286-1.35-0.716-1.837-1.289
		c-0.486-0.573-0.729-1.337-0.729-2.292c0-0.868,0.217-1.659,0.651-2.371c0.435-0.711,1.056-1.297,1.863-1.757
		c0.807-0.46,1.758-0.733,2.852-0.821V9.698c0-0.496,0.402-0.898,0.898-0.898h0c0.496,0,0.898,0.402,0.898,0.898v1.759
		c1.286,0.104,2.349,0.447,3.191,1.029c0.648,0.447,1.225,1.056,1.734,1.826c0.263,0.398,0.194,0.932-0.182,1.227l-0.206,0.162
		c-0.435,0.342-1.063,0.202-1.339-0.278c-0.311-0.539-0.647-0.967-1.01-1.284c-0.556-0.485-1.286-0.79-2.188-0.911v6.121
		c1.129,0.243,2.062,0.508,2.8,0.794c0.739,0.286,1.354,0.725,1.849,1.315c0.495,0.59,0.743,1.381,0.743,2.371
		c0,1.336-0.486,2.426-1.459,3.268c-0.972,0.843-2.283,1.332-3.933,1.471v1.733c0,0.496-0.402,0.898-0.898,0.898h0
		c-0.496,0-0.898-0.402-0.898-0.898V28.569z M19.303,13.202c-1.112,0.104-1.953,0.417-2.527,0.937
		c-0.573,0.521-0.86,1.216-0.86,2.084c0,0.782,0.29,1.372,0.872,1.772s1.42,0.729,2.514,0.989V13.202z M24.537,23.985
		c0-0.798-0.299-1.406-0.898-1.823c-0.6-0.417-1.446-0.756-2.54-1.016v5.704C23.392,26.659,24.537,25.704,24.537,23.985z" />
</g>
</symbol><symbol viewBox="0 0 40 40" id="zen-icon-download">
<g>
	<path d="M24,26.504l-2.999-0.001l0.005-9.293c0-0.552-0.447-1-0.999-1c-0.001,0-0.001,0-0.001,0c-0.552,0-1,0.447-1,1l-0.005,9.293
		L16,26.5c-0.286,0-0.544,0.172-0.653,0.437c-0.109,0.264-0.049,0.568,0.153,0.771l3.998,4.002c0.138,0.138,0.319,0.207,0.5,0.207
		s0.361-0.069,0.5-0.207l4.002-3.998c0.202-0.202,0.263-0.506,0.153-0.771C24.544,26.677,24.286,26.504,24,26.504z" />
	<path d="M26.842,10.925c-1.531-1.812-3.74-2.842-6.136-2.842c-3.563,0-6.696,2.366-7.71,5.703c-0.25-0.037-0.504-0.056-0.761-0.056
		C9.349,13.731,7,16.08,7,18.966s2.349,5.235,5.235,5.235H16c0.553,0,1-0.447,1-1s-0.447-1-1-1h-3.765
		C10.451,22.202,9,20.75,9,18.966s1.451-3.235,3.235-3.235c0.396,0,0.779,0.071,1.137,0.212c0.283,0.112,0.604,0.088,0.869-0.066
		c0.265-0.154,0.444-0.42,0.487-0.723c0.01-0.07,0.02-0.135,0.039-0.224c0.573-2.809,3.07-4.847,5.938-4.847
		c1.923,0,3.687,0.883,4.839,2.423c0.189,0.252,0.492,0.401,0.808,0.401c2.562,0,4.647,2.084,4.647,4.647s-2.085,4.647-4.647,4.647
		H24c-0.553,0-1,0.447-1,1s0.447,1,1,1h2.353c3.665,0,6.647-2.982,6.647-6.647C33,14.056,30.283,11.18,26.842,10.925z" />
</g>
</symbol><symbol viewBox="0 0 40 40" id="zen-icon-editor-bullet-unordered">
<g>
	<g>
		<path d="M10,13c-1.7,0-3-1.3-3-3s1.3-3,3-3s3,1.3,3,3S11.7,13,10,13z M10,9c-0.6,0-1,0.4-1,1s0.4,1,1,1s1-0.4,1-1S10.6,9,10,9z" />
	</g>
	<g>
		<path d="M32,11H20c-0.6,0-1-0.4-1-1s0.4-1,1-1h12c0.6,0,1,0.4,1,1S32.6,11,32,11z" />
	</g>
	<g>
		<path d="M10,23c-1.7,0-3-1.3-3-3s1.3-3,3-3s3,1.3,3,3S11.7,23,10,23z M10,19c-0.6,0-1,0.4-1,1c0,0.6,0.4,1,1,1s1-0.4,1-1
			C11,19.4,10.6,19,10,19z" />
	</g>
	<g>
		<path d="M32,21H20c-0.6,0-1-0.4-1-1c0-0.6,0.4-1,1-1h12c0.6,0,1,0.4,1,1C33,20.6,32.6,21,32,21z" />
	</g>
	<g>
		<path d="M10,33c-1.7,0-3-1.3-3-3s1.3-3,3-3s3,1.3,3,3S11.7,33,10,33z M10,29c-0.6,0-1,0.4-1,1s0.4,1,1,1s1-0.4,1-1S10.6,29,10,29z
			" />
	</g>
	<g>
		<path d="M32,31H20c-0.6,0-1-0.4-1-1s0.4-1,1-1h12c0.6,0,1,0.4,1,1S32.6,31,32,31z" />
	</g>
</g>
</symbol><symbol viewBox="0 0 40 40" id="zen-icon-editor-clear">
<g>
	<path d="M22.5,18.3l6.6-6.6l1.4,1.4l-6.6,6.6l1.4,1.4l7.4-7.4c0.4-0.4,0.4-1,0-1.4l-2.8-2.8c-0.2-0.2-0.4-0.3-0.7-0.3
		c-0.3,0-0.5,0.1-0.7,0.3l-7.4,7.4L22.5,18.3z" />
	<path d="M31.5,32.9c0.1,0.1,0.3,0.1,0.5,0.1c0.3,0,0.5-0.1,0.7-0.3c0.3-0.3,0.4-0.8,0.2-1.2L8.5,7.1C8.1,6.9,7.6,7,7.3,7.3
		S6.9,8.1,7.1,8.5L31.5,32.9z" />
	<path d="M16.3,20.5c-0.4,0-0.7,0-1.1,0c-0.9,0.1-1.6,0.5-2.2,1.2c-0.6,0.7-0.8,1.6-0.7,2.5c0,0.3,0,0.9-0.4,1.2
		c-0.6,0.5-2,0.4-3.6-0.2c-0.3-0.2-0.7-0.1-1,0.2c-0.3,0.3-0.4,0.7-0.2,1.1c0.9,2.1,4,4.3,7,4.3c0.7,0,1.4-0.1,2.1-0.4
		c2.6-1.1,4.3-3,4.7-4.9l0.2-0.2L16.3,20.5z M15.4,28.6c-1.5,0.6-3.3,0-4.6-0.9c1.1,0,1.9-0.4,2.4-0.8c0.9-0.7,1.3-1.8,1.1-3.1
		c0-0.3,0.1-0.7,0.3-1c0.2-0.2,0.5-0.4,0.8-0.4c1.7-0.1,3.1,0.4,3.5,1.4C19.5,25.4,17.9,27.5,15.4,28.6z" />
</g>
</symbol><symbol viewBox="0 0 40 40" id="zen-icon-editor-indent">
<g>
	<path d="M14.5,17.5c-0.2-0.2-0.5-0.3-0.8-0.2c-0.3,0.1-0.4,0.4-0.4,0.7l0,1L8,19c-0.6,0-1,0.4-1,1c0,0.6,0.4,1,1,1h0l5.3,0l0,1
		c0,0.3,0.2,0.5,0.4,0.7c0.1,0,0.2,0.1,0.3,0.1c0.2,0,0.4-0.1,0.5-0.2l2-2c0.3-0.3,0.3-0.7,0-1L14.5,17.5z" />
	<path d="M20,17L20,17l8,0c0.6,0,1-0.4,1-1s-0.4-1-1-1l-8,0c-0.6,0-1,0.4-1,1S19.4,17,20,17z" />
	<path d="M20,13L20,13l12,0c0.6,0,1-0.4,1-1s-0.4-1-1-1l-12,0c-0.6,0-1,0.4-1,1S19.4,13,20,13z" />
	<path d="M32,23C32,23,32,23,32,23l-12,0c-0.6,0-1,0.4-1,1c0,0.6,0.4,1,1,1h0l12,0c0.6,0,1-0.4,1-1C33,23.4,32.6,23,32,23z" />
	<path d="M32,19l-12,0c-0.6,0-1,0.4-1,1c0,0.6,0.4,1,1,1h0l12,0c0.6,0,1-0.4,1-1S32.6,19,32,19z" />
	<path d="M28,27h-8c-0.6,0-1,0.4-1,1s0.4,1,1,1h8c0.6,0,1-0.4,1-1S28.6,27,28,27z" />
</g>
</symbol><symbol viewBox="0 0 40 40" id="zen-icon-editor-bullet-ordered">
<g>
	<g>
		<path d="M31.432,11.622h-12c-0.552,0-1-0.448-1-1s0.448-1,1-1h12c0.553,0,1,0.448,1,1S31.985,11.622,31.432,11.622z" />
	</g>
	<g>
		<path d="M31.432,21.622h-12c-0.552,0-1-0.447-1-1s0.448-1,1-1h12c0.553,0,1,0.447,1,1S31.985,21.622,31.432,21.622z" />
	</g>
	<g>
		<path d="M31.432,31.622h-12c-0.552,0-1-0.447-1-1s0.448-1,1-1h12c0.553,0,1,0.447,1,1S31.985,31.622,31.432,31.622z" />
	</g>
	<g>
		<path d="M10.656,7.298v5.28H8.873V9.042C8.488,9.384,8.096,9.584,7.696,9.642L7.592,8.146c0.32-0.038,0.639-0.141,0.956-0.309
			s0.537-0.348,0.66-0.54H10.656z" />
	</g>
	<g>
		<path d="M7.84,21.458c0.768-0.405,1.354-0.818,1.756-1.24c0.402-0.421,0.604-0.794,0.604-1.12c0-0.138-0.034-0.253-0.104-0.344
			s-0.179-0.136-0.328-0.136c-0.182,0-0.314,0.076-0.4,0.228c-0.085,0.152-0.122,0.389-0.111,0.708L7.665,19.17
			c-0.011-0.432,0.079-0.793,0.271-1.084c0.192-0.29,0.459-0.508,0.8-0.651c0.342-0.145,0.729-0.217,1.16-0.217
			c0.501,0,0.912,0.088,1.232,0.265c0.319,0.176,0.551,0.396,0.691,0.66c0.142,0.264,0.212,0.529,0.212,0.796
			c0,0.49-0.184,0.925-0.552,1.304s-0.866,0.718-1.496,1.016v0.017c0.331-0.032,0.749-0.048,1.256-0.048h0.824v1.352H7.84V21.458z" />
	</g>
	<g>
		<path d="M11.373,27.663c0.354,0.266,0.531,0.65,0.531,1.152c0,0.293-0.065,0.525-0.195,0.695c-0.131,0.17-0.275,0.289-0.433,0.355
			s-0.278,0.1-0.363,0.1v0.033c0.111,0,0.249,0.025,0.411,0.076c0.163,0.051,0.316,0.162,0.46,0.336
			C11.928,30.583,12,30.835,12,31.167c0,0.309-0.095,0.58-0.284,0.812c-0.189,0.23-0.449,0.41-0.78,0.535s-0.701,0.188-1.112,0.188
			c-0.645,0-1.149-0.102-1.512-0.307c-0.362-0.207-0.61-0.551-0.744-1.037l1.681-0.68c-0.011,0.25,0.031,0.422,0.128,0.516
			c0.096,0.094,0.224,0.141,0.384,0.141c0.31,0,0.464-0.133,0.464-0.4c0-0.133-0.039-0.232-0.116-0.297
			c-0.077-0.062-0.204-0.096-0.38-0.096h-0.36v-1.055h0.257c0.176,0,0.302-0.035,0.38-0.105c0.077-0.068,0.116-0.178,0.116-0.328
			c0-0.133-0.035-0.236-0.104-0.311c-0.069-0.076-0.165-0.113-0.288-0.113c-0.325,0-0.485,0.219-0.479,0.656L7.64,28.79
			c0.059-0.555,0.284-0.947,0.676-1.18c0.393-0.232,0.908-0.348,1.548-0.348C10.515,27.263,11.017,27.396,11.373,27.663z" />
	</g>
</g>
</symbol><symbol viewBox="0 0 40 40" id="zen-icon-editor-justify-center">
<g>
	<path d="M25,30h-8c-0.6,0-1-0.4-1-1s0.4-1,1-1h8c0.6,0,1,0.4,1,1S25.6,30,25,30z" />
</g>
<g>
	<path d="M33,22H9c-0.6,0-1-0.4-1-1c0-0.6,0.4-1,1-1h24c0.6,0,1,0.4,1,1C34,21.6,33.6,22,33,22z" />
</g>
<g>
	<path d="M33,14H9c-0.6,0-1-0.4-1-1s0.4-1,1-1h24c0.6,0,1,0.4,1,1S33.6,14,33,14z" />
</g>
<g>
	<path d="M33,18H9c-0.6,0-1-0.4-1-1s0.4-1,1-1h24c0.6,0,1,0.4,1,1S33.6,18,33,18z" />
</g>
<g>
	<path d="M33,26H9c-0.6,0-1-0.4-1-1s0.4-1,1-1h24c0.6,0,1,0.4,1,1S33.6,26,33,26z" />
</g>
</symbol><symbol viewBox="0 0 40 40" id="zen-icon-editor-italic">
<path d="M28,8H16c-0.6,0-1,0.4-1,1s0.4,1,1,1h4.8l-3.6,20H12c-0.6,0-1,0.4-1,1s0.4,1,1,1h12c0.6,0,1-0.4,1-1s-0.4-1-1-1h-4.8l3.6-20
	H28c0.6,0,1-0.4,1-1S28.6,8,28,8z" />
</symbol><symbol viewBox="0 0 40 40" id="zen-icon-editor-justify-right">
<g>
	<path d="M25,30h8c0.6,0,1-0.4,1-1s-0.4-1-1-1h-8c-0.6,0-1,0.4-1,1S24.4,30,25,30z" />
</g>
<g>
	<path d="M9,22h24c0.6,0,1-0.4,1-1c0-0.6-0.4-1-1-1H9c-0.6,0-1,0.4-1,1C8,21.6,8.4,22,9,22z" />
</g>
<g>
	<path d="M9,14h24c0.6,0,1-0.4,1-1s-0.4-1-1-1H9c-0.6,0-1,0.4-1,1S8.4,14,9,14z" />
</g>
<g>
	<path d="M9,18h24c0.6,0,1-0.4,1-1s-0.4-1-1-1H9c-0.6,0-1,0.4-1,1S8.4,18,9,18z" />
</g>
<g>
	<path d="M9,26h24c0.6,0,1-0.4,1-1s-0.4-1-1-1H9c-0.6,0-1,0.4-1,1S8.4,26,9,26z" />
</g>
</symbol><symbol viewBox="0 0 40 40" id="zen-icon-editor-justify-left">
<g>
	<path d="M17,30H9c-0.6,0-1-0.4-1-1s0.4-1,1-1h8c0.6,0,1,0.4,1,1S17.6,30,17,30z" />
</g>
<g>
	<path d="M33,22H9c-0.6,0-1-0.4-1-1c0-0.6,0.4-1,1-1h24c0.6,0,1,0.4,1,1C34,21.6,33.6,22,33,22z" />
</g>
<g>
	<path d="M33,14H9c-0.6,0-1-0.4-1-1s0.4-1,1-1h24c0.6,0,1,0.4,1,1S33.6,14,33,14z" />
</g>
<g>
	<path d="M33,18H9c-0.6,0-1-0.4-1-1s0.4-1,1-1h24c0.6,0,1,0.4,1,1S33.6,18,33,18z" />
</g>
<g>
	<path d="M33,26H9c-0.6,0-1-0.4-1-1s0.4-1,1-1h24c0.6,0,1,0.4,1,1S33.6,26,33,26z" />
</g>
</symbol><symbol viewBox="0 0 40 40" id="zen-icon-editor-justify">
<g>
	<path d="M9,30h24c0.6,0,1-0.4,1-1s-0.4-1-1-1H9c-0.6,0-1,0.4-1,1S8.4,30,9,30z" />
</g>
<g>
	<path d="M9,22h24c0.6,0,1-0.4,1-1c0-0.6-0.4-1-1-1H9c-0.6,0-1,0.4-1,1C8,21.6,8.4,22,9,22z" />
</g>
<g>
	<path d="M9,14h24c0.6,0,1-0.4,1-1s-0.4-1-1-1H9c-0.6,0-1,0.4-1,1S8.4,14,9,14z" />
</g>
<g>
	<path d="M9,18h24c0.6,0,1-0.4,1-1s-0.4-1-1-1H9c-0.6,0-1,0.4-1,1S8.4,18,9,18z" />
</g>
<g>
	<path d="M9,26h24c0.6,0,1-0.4,1-1s-0.4-1-1-1H9c-0.6,0-1,0.4-1,1S8.4,26,9,26z" />
</g>
</symbol><symbol viewBox="0 0 40 40" id="zen-icon-editor-link">
<g>
	<g>
		<path d="M12,33c-1.3,0-2.5-0.5-3.5-1.4c-1-1-1.5-2.2-1.4-3.6c0-1.3,0.6-2.6,1.5-3.6l5.9-5.9c0.4-0.4,1-0.4,1.4,0
			c0.4,0.4,0.4,1,0,1.4L10,25.8c-0.6,0.6-0.9,1.4-1,2.2c0,0.8,0.3,1.6,0.8,2.1c1.2,1.2,3.1,1.1,4.4-0.1l5.9-5.9c0.4-0.4,1-0.4,1.4,0
			c0.4,0.4,0.4,1,0,1.4l-5.9,5.9C14.6,32.5,13.3,33,12,33z" />
	</g>
	<g>
		<path d="M24.8,21.8c-0.3,0-0.5-0.1-0.7-0.3c-0.4-0.4-0.4-1,0-1.4l5.9-5.9c0.6-0.6,0.9-1.4,1-2.2c0-0.8-0.3-1.6-0.8-2.1
			C29.6,9.3,28.8,9,28,9c-0.8,0-1.6,0.4-2.2,1l-5.9,5.9c-0.4,0.4-1,0.4-1.4,0c-0.4-0.4-0.4-1,0-1.4l5.9-5.9c1-1,2.2-1.5,3.6-1.5
			c1.4,0,2.6,0.5,3.6,1.4c1,0.9,1.5,2.2,1.4,3.6c0,1.3-0.6,2.6-1.5,3.6l-5.9,5.9C25.3,21.7,25.1,21.8,24.8,21.8z" />
	</g>
	<g>
		<path d="M16,25c-0.3,0-0.5-0.1-0.7-0.3c-0.4-0.4-0.4-1,0-1.4l8-8c0.4-0.4,1-0.4,1.4,0c0.4,0.4,0.4,1,0,1.4l-8,8
			C16.5,24.9,16.3,25,16,25z" />
	</g>
</g>
</symbol><symbol viewBox="0 0 40 40" id="zen-icon-editor-strikethrough">
<g>
	<path d="M11.6,17h2.3c-0.6-0.7-0.9-1.7-0.9-3c0-2.8,3.1-5,7-5c3.9,0,7,2.2,7,5c0,0.6,0.4,1,1,1s1-0.4,1-1c0-3.9-4-7-9-7
		c-5,0-9,3.1-9,7c0,0,0,0,0,0s0,0,0,0C11,15.2,11.2,16.2,11.6,17z" />
	<path d="M32,19H19.2h-6.1H8c-0.6,0-1,0.4-1,1s0.4,1,1,1h11.1h7.6H32c0.6,0,1-0.4,1-1S32.6,19,32,19z" />
	<path d="M26,23c0.7,0.7,1,1.6,1,3c0,2.8-3.1,5-7,5c-3.9,0-7-2.2-7-5c0-0.6-0.4-1-1-1s-1,0.4-1,1c0,3.9,4,7,9,7c5,0,9-3.1,9-7
		c0-1.2-0.2-2.2-0.6-3H26z" />
</g>
</symbol><symbol viewBox="0 0 40 40" id="zen-icon-editor-outdent">
<g>
	<path d="M9.2,17.5c0.2-0.2,0.5-0.3,0.8-0.2c0.3,0.1,0.4,0.4,0.4,0.7l0,1l5.3,0c0.6,0,1,0.4,1,1c0,0.6-0.4,1-1,1h0l-5.3,0l0,1
		c0,0.3-0.2,0.5-0.4,0.7c-0.1,0-0.2,0.1-0.3,0.1c-0.2,0-0.4-0.1-0.5-0.2l-2-2c-0.3-0.3-0.3-0.7,0-1L9.2,17.5z" />
	<path d="M20,17L20,17l8,0c0.6,0,1-0.4,1-1s-0.4-1-1-1l-8,0c-0.6,0-1,0.4-1,1S19.4,17,20,17z" />
	<path d="M20,13L20,13l12,0c0.6,0,1-0.4,1-1s-0.4-1-1-1l-12,0c-0.6,0-1,0.4-1,1S19.4,13,20,13z" />
	<path d="M32,23C32,23,32,23,32,23l-12,0c-0.6,0-1,0.4-1,1c0,0.6,0.4,1,1,1h0l12,0c0.6,0,1-0.4,1-1C33,23.4,32.6,23,32,23z" />
	<path d="M32,19l-12,0c-0.6,0-1,0.4-1,1c0,0.6,0.4,1,1,1h0l12,0c0.6,0,1-0.4,1-1S32.6,19,32,19z" />
	<path d="M28,27h-8c-0.6,0-1,0.4-1,1s0.4,1,1,1h8c0.6,0,1-0.4,1-1S28.6,27,28,27z" />
</g>
</symbol><symbol viewBox="0 0 40 40" id="zen-icon-editor-underline">
<g>
	<path d="M20,28.5c4.7,0,8.6-3.5,8.6-7.7V8.5c0-0.6-0.4-1-1-1s-1,0.4-1,1v12.3c0,3.1-3,5.7-6.6,5.7c-3.6,0-6.6-2.6-6.6-5.7V8.5
		c0-0.6-0.4-1-1-1s-1,0.4-1,1v12.3C11.4,25,15.3,28.5,20,28.5z" />
	<path d="M32,30.5H8c-0.6,0-1,0.4-1,1s0.4,1,1,1h24c0.6,0,1-0.4,1-1S32.6,30.5,32,30.5z" />
</g>
</symbol><symbol viewBox="0 0 40 40" id="zen-icon-editor-unlink">
<g>
	<g>
		<path d="M11.92,32.986c-1.325,0-2.558-0.506-3.483-1.431c-0.95-0.949-1.459-2.224-1.433-3.588c0.026-1.35,0.574-2.627,1.543-3.597
			l5.883-5.889c0.391-0.391,1.024-0.39,1.415,0c0.391,0.391,0.391,1.023,0,1.415l-5.883,5.888c-0.602,0.603-0.943,1.392-0.958,2.222
			c-0.016,0.816,0.285,1.574,0.846,2.136c0.562,0.561,1.309,0.882,2.135,0.844c0.831-0.017,1.62-0.358,2.222-0.961l5.883-5.888
			c0.391-0.392,1.023-0.391,1.414-0.001c0.391,0.391,0.391,1.023,0,1.414l-5.882,5.889c-0.969,0.97-2.247,1.52-3.596,1.547
			C11.991,32.986,11.955,32.986,11.92,32.986z" />
	</g>
	<g>
		<path d="M27.909,18.67c-0.366,0-0.738-0.038-1.111-0.118l-8.141-1.736c-0.54-0.115-0.884-0.646-0.769-1.187
			c0.114-0.541,0.648-0.886,1.187-0.77l8.141,1.736c1.7,0.361,3.372-0.656,3.719-2.274c0.344-1.618-0.763-3.23-2.468-3.594
			l-8.141-1.736c-0.54-0.115-0.884-0.646-0.769-1.187c0.114-0.54,0.647-0.885,1.187-0.77l8.141,1.736
			c2.782,0.594,4.579,3.27,4.006,5.966C32.391,17.074,30.275,18.67,27.909,18.67z" />
	</g>
	<g>
		<path d="M10.996,12.019c-0.256,0-0.512-0.098-0.707-0.292L8.288,9.727C7.897,9.337,7.897,8.704,8.287,8.313
			c0.391-0.392,1.024-0.391,1.414-0.001l2.001,1.999c0.391,0.391,0.391,1.023,0.001,1.414
			C11.508,11.921,11.252,12.019,10.996,12.019z" />
	</g>
	<g>
		<path d="M15.996,12.016c-0.552,0-1-0.447-1-1l-0.001-2c0-0.552,0.447-1,1-1h0c0.552,0,1,0.447,1,1l0.001,2
			C16.996,11.568,16.549,12.016,15.996,12.016L15.996,12.016z" />
	</g>
	<g>
		<path d="M8.998,17.02c-0.552,0-1-0.447-1-1c0-0.552,0.447-1,1-1l2-0.001h0c0.552,0,1,0.447,1,1c0,0.552-0.447,1-1,1L8.998,17.02
			L8.998,17.02z" />
	</g>
</g>
</symbol><symbol viewBox="0 0 40 40" id="zen-icon-error">
<g>
	<path d="M30.1,27.5l-9.2-16c-0.4-0.6-1.4-0.6-1.7,0l-9.2,16c-0.2,0.3-0.2,0.7,0,1c0.2,0.3,0.5,0.5,0.9,0.5h18.5
		c0.4,0,0.7-0.2,0.9-0.5S30.3,27.8,30.1,27.5z M12.5,27L20,14l7.5,13H12.5z" />
	<path d="M19,20v4c0,0.6,0.4,1,1,1s1-0.4,1-1v-4c0-0.6-0.4-1-1-1S19,19.4,19,20z" />
</g>
</symbol><symbol viewBox="0 0 40 40" id="zen-icon-home">
<path d="M32.7,21.8l-3-3c0,0,0,0,0,0l-9-9c-0.4-0.4-1-0.4-1.4,0l-9,9c0,0,0,0,0,0l-3,3c-0.4,0.4-0.4,1,0,1.4
	c0.2,0.2,0.5,0.3,0.7,0.3s0.5-0.1,0.7-0.3l1.3-1.3v7.6c0,0.6,0.4,1,1,1h6h6h6c0.6,0,1-0.4,1-1v-7.6l1.3,1.3c0.2,0.2,0.5,0.3,0.7,0.3
	s0.5-0.1,0.7-0.3C33.1,22.8,33.1,22.2,32.7,21.8z M18,28.5v-6.2h4v6.2H18z M28,28.5h-4v-7.2c0-0.6-0.4-1-1-1h-6c-0.6,0-1,0.4-1,1
	v7.2h-4v-8.6l8-8l8,8V28.5z" />
</symbol><symbol viewBox="0 0 40 40" id="zen-icon-image">
<g>
	<path d="M32,9H8c-0.6,0-1,0.5-1,1v20c0,0.6,0.5,1,1,1h24c0.6,0,1-0.5,1-1V10C33,9.4,32.6,9,32,9z M31,11v9.5l-6.2-3.1
		c-0.5-0.2-1.1-0.1-1.5,0.2l-6.7,6.7c-0.4,0.4-1,0.5-1.5,0.2l-5.3-2.7c-0.3-0.1-0.6-0.2-0.8-0.1V11H31z" />
	<path d="M15,22c2.8,0,5-2.3,5-5s-2.3-5-5-5s-5,2.3-5,5S12.2,22,15,22z M15,14c1.6,0,3,1.3,3,3s-1.3,3-3,3s-3-1.3-3-3S13.4,14,15,14
		z" />
</g>
</symbol><symbol viewBox="0 0 40 40" id="zen-icon-install">
<g>
	<path d="M32,23c-0.6,0-1,0.4-1,1v7H9v-7c0-0.6-0.4-1-1-1s-1,0.4-1,1v8c0,0.6,0.4,1,1,1h24c0.6,0,1-0.4,1-1v-8
		C33,23.4,32.6,23,32,23z" />
	<path d="M19.5,24.5c0.1,0.1,0.3,0.2,0.5,0.2c0.2,0,0.4-0.1,0.5-0.2l4-4c0.2-0.2,0.3-0.5,0.2-0.8s-0.4-0.4-0.7-0.4l-3,0L21,8
		c0-0.6-0.4-1-1-1h0c-0.6,0-1,0.4-1,1l0,11.3l-3,0c-0.3,0-0.5,0.2-0.7,0.4c-0.1,0.3,0,0.6,0.2,0.8L19.5,24.5z" />
	<path d="M12,29h16c0.6,0,1-0.4,1-1s-0.4-1-1-1H12c-0.6,0-1,0.4-1,1S11.4,29,12,29z" />
	<path d="M28,13c0.6,0,1-0.4,1-1V8c0-0.6-0.4-1-1-1s-1,0.4-1,1v4C27,12.6,27.4,13,28,13z" />
	<path d="M12,13c0.6,0,1-0.4,1-1V8c0-0.6-0.4-1-1-1s-1,0.4-1,1v4C11,12.6,11.4,13,12,13z" />
</g>
</symbol><symbol viewBox="0 0 40 40" id="zen-icon-location">
<g>
	<path d="M20,7c-5,0-9,4-9,9c0,4.6,7.3,15.4,8.2,16.6c0.2,0.3,0.5,0.4,0.8,0.4s0.6-0.2,0.8-0.4c0.8-1.2,8.2-12,8.2-16.6
		C29,11,25,7,20,7z M20,30.2C17.5,26.4,13,19,13,16c0-3.9,3.1-7,7-7c3.9,0,7,3.1,7,7C27,19,22.5,26.4,20,30.2z" />
	<path d="M20,12c-2.2,0-4,1.8-4,4s1.8,4,4,4c2.2,0,4-1.8,4-4S22.2,12,20,12z M20,18c-1.1,0-2-0.9-2-2s0.9-2,2-2c1.1,0,2,0.9,2,2
		S21.1,18,20,18z" />
</g>
</symbol><symbol viewBox="0 0 40 40" id="zen-icon-lock">
<g>
	<path d="M26,17.8v-3h0c-0.3-3.1-2.8-5.5-6-5.5s-5.7,2.4-6,5.5h0v3c-1.7,0-3,1.3-3,3v7c0,1.7,1.3,3,3,3h12c1.7,0,3-1.3,3-3v-7
		C29,19.1,27.7,17.8,26,17.8z M16,15.2c0-2.2,1.8-4,4-4s4,1.8,4,4v2.5h-8V15.2z M27,27.8c0,0.6-0.4,1-1,1H14c-0.6,0-1-0.4-1-1v-7
		c0-0.6,0.4-1,1-1h12c0.6,0,1,0.4,1,1V27.8z" />
	<path d="M20,21.2c-0.6,0-1,0.4-1,1v4c0,0.6,0.4,1,1,1s1-0.4,1-1v-4C21,21.7,20.6,21.2,20,21.2z" />
</g>
</symbol><symbol viewBox="0 0 40 40" id="zen-icon-mail">
<path d="M31.3,12.7c-0.1-0.1-0.1-0.3-0.3-0.4c-0.5-0.4-1.2-0.7-1.8-0.7H29H11h-0.2c-0.7,0-1.3,0.2-1.8,0.7c-0.1,0.1-0.2,0.2-0.3,0.4
	C8.3,13.2,8,13.9,8,14.7v9v1.7v0.2c0,1.6,1.3,2.8,2.8,2.8H11h18h0.2c1.6,0,2.8-1.3,2.8-2.8v-0.2v-1.7v-9
	C32,13.9,31.7,13.2,31.3,12.7z M10,14.7l4.7,4L10,21.8V14.7z M30,14.7v7.1l-4.7-3.1L30,14.7z M28.1,13.7L20,20.5l-8.1-6.9H28.1z
	 M11,26.3c-0.6,0-1-0.4-1-1v-1.1l6.3-4.2l3.1,2.6l0,0c0,0,0,0,0,0l0,0c0.1,0,0.1,0.1,0.2,0.1c0,0,0.1,0.1,0.1,0.1
	c0.2,0.1,0.5,0.1,0.7,0c0,0,0.1,0,0.1-0.1c0.1,0,0.1-0.1,0.2-0.1l0,0c0,0,0,0,0,0l0,0l3.1-2.6l6.3,4.2v1.1c0,0.6-0.4,1-1,1H11z" />
</symbol><symbol viewBox="0 0 40 40" id="zen-icon-menu">
<g>
	<path d="M40,12c0-0.6-0.4-1-1-1H19c-0.6,0-1,0.4-1,1s0.4,1,1,1h20C39.6,13,40,12.6,40,12z" />
	<path d="M39,19H23c-0.6,0-1,0.4-1,1s0.4,1,1,1h16c0.6,0,1-0.4,1-1S39.6,19,39,19z" />
	<path d="M39,27H27c-0.6,0-1,0.4-1,1s0.4,1,1,1h12c0.6,0,1-0.4,1-1S39.6,27,39,27z" />
</g>
</symbol><symbol viewBox="0 0 40 40" id="zen-icon-messages">
<path d="M30,9.355H17c-1.654,0-3,1.346-3,3v1h-4c-1.654,0-3,1.346-3,3v8c0,1.654,1.346,3,3,3h1v1.785c0,0.61,0.364,1.156,0.929,1.39
	c0.188,0.077,0.383,0.114,0.576,0.114c0.391,0,0.773-0.153,1.061-0.441l2.849-2.848H23c1.238,0,2.302-0.754,2.76-1.826l0.673,0.673
	c0.288,0.289,0.671,0.442,1.062,0.442c0.194,0,0.39-0.037,0.576-0.114C28.636,26.297,29,25.751,29,25.141v-1.785h1
	c1.654,0,3-1.346,3-3v-8C33,10.701,31.654,9.355,30,9.355z M24,23.77v0.586c0,0.552-0.448,1-1,1h-7c-0.266,0-0.52,0.105-0.707,0.293
	L13,27.941v-1.585c0-0.553-0.447-1-1-1h-2c-0.552,0-1-0.448-1-1v-8c0-0.552,0.448-1,1-1h4v5c0,1.654,1.346,3,3,3h6.586L24,23.77z
	 M31,20.356c0,0.552-0.448,1-1,1h-2c-0.553,0-1,0.447-1,1v1.585l-2.293-2.292c-0.188-0.188-0.441-0.293-0.707-0.293h-7
	c-0.552,0-1-0.448-1-1v-6v-2c0-0.551,0.448-1,1-1h13c0.552,0,1,0.449,1,1V20.356z" />
</symbol><symbol viewBox="0 0 40 40" id="zen-icon-opensource">
<path d="M19.5,8.6C13.4,8.9,8.3,13.9,8,20.1c-0.2,4.8,2.3,9,6.2,11.1c1,0.5,2.3,0,2.6-1l1.4-4.2c0.3-0.8,0-1.6-0.7-2.1
	c-1.2-0.9-1.9-2.5-1.4-4.2c0.4-1.4,1.5-2.5,2.9-2.9c2.6-0.6,5,1.4,5,3.9c0,1.3-0.6,2.5-1.6,3.2c-0.6,0.5-0.9,1.3-0.7,2.1l1.4,4.2
	c0.4,1.1,1.6,1.6,2.6,1c3.7-2,6.2-6,6.2-10.5C32,13.8,26.4,8.4,19.5,8.6z" />
</symbol><symbol viewBox="0 0 40 40" id="zen-icon-nodejs">
<g>
	<path d="M32.6,12.2l-12-6.9c-0.3-0.2-0.7-0.2-1,0l-12,6.9c-0.3,0.2-0.5,0.5-0.5,0.9v13.9c0,0.4,0.2,0.7,0.5,0.9l3.9,2.3
		c0,0,0,0,0,0l0,0c1.5,0.9,2.9,0.3,3.7-0.5c0.8-0.8,1.2-1.8,1.2-3.2V14.1H14v11.9c0,0.9-0.2,1.6-0.5,2.1c-0.3,0.4-0.6,0.4-1.3,0
		l-3.2-1.8V13.6l11-6.4l11,6.4v12.7l-11,6.4L17.2,31c-0.5-0.3-1.1-0.1-1.4,0.4c-0.3,0.5-0.1,1.1,0.4,1.4l3.4,2
		c0.2,0.1,0.3,0.1,0.5,0.1s0.3,0,0.5-0.1l12-6.9c0.3-0.2,0.5-0.5,0.5-0.9V13.1C33.1,12.7,32.9,12.4,32.6,12.2z" />
	<path d="M24.9,23.5c-0.4,0.2-0.9,0.3-1.7,0.3c-0.8,0-1.5-0.1-2-0.4c-0.5-0.3-1-0.8-1.5-1.4l-1.4,1.7c0.5,0.7,1.1,1.2,1.9,1.6
		c0.8,0.3,1.8,0.5,3.1,0.5c0.9,0,1.7-0.1,2.4-0.4c0.7-0.3,1.3-0.7,1.6-1.2c0.4-0.5,0.6-1.1,0.6-1.8c0-0.6-0.1-1.2-0.4-1.6
		c-0.3-0.4-0.7-0.8-1.3-1.1c-0.6-0.3-1.4-0.5-2.4-0.7c-1-0.2-1.7-0.4-2-0.6c-0.4-0.2-0.6-0.5-0.6-0.9c0-0.4,0.2-0.8,0.6-1
		c0.4-0.3,0.9-0.4,1.6-0.4c0.8,0,1.4,0.2,1.9,0.5c0.5,0.3,0.9,0.8,1.2,1.4l1.6-1.6c-0.6-0.8-1.2-1.3-2-1.7c-0.8-0.3-1.7-0.5-2.7-0.5
		c-0.9,0-1.8,0.2-2.5,0.5s-1.2,0.7-1.6,1.3c-0.4,0.5-0.5,1.2-0.5,1.8c0,0.6,0.1,1.2,0.4,1.6c0.3,0.4,0.7,0.8,1.4,1.1
		c0.6,0.3,1.5,0.6,2.5,0.8c0.9,0.2,1.6,0.4,1.9,0.6s0.5,0.5,0.5,0.8C25.5,23,25.3,23.3,24.9,23.5z" />
</g>
</symbol><symbol viewBox="0 0 40 40" id="zen-icon-page">
<g>
	<g>
		<path d="M27.9,13.6l-4.7-4.7c-0.3-0.3-0.9-0.1-0.9,0.4V14c0,0.3,0.2,0.5,0.5,0.5h4.7C27.9,14.5,28.2,14,27.9,13.6z" />
	</g>
	<path d="M28,16.5c0-0.3-0.2-0.5-0.5-0.5h-6.4c-0.3,0-0.5-0.2-0.5-0.5l0-6.2c0-0.3-0.2-0.5-0.5-0.5h-5.7c-1.3,0-2.4,1.1-2.4,2.4
		v17.6c0,1.3,1.1,2.4,2.4,2.4h11.2c1.3,0,2.4-1.1,2.4-2.4L28,16.5z M16,19.2h4c0.4,0,0.8,0.3,0.8,0.8s-0.3,0.8-0.8,0.8h-4
		c-0.4,0-0.8-0.3-0.8-0.8S15.6,19.2,16,19.2z M24,28.8h-8c-0.4,0-0.8-0.3-0.8-0.8s0.3-0.8,0.8-0.8h8c0.4,0,0.8,0.3,0.8,0.8
		S24.4,28.8,24,28.8z M24,24.8h-8c-0.4,0-0.8-0.3-0.8-0.8s0.3-0.8,0.8-0.8h8c0.4,0,0.8,0.3,0.8,0.8S24.4,24.8,24,24.8z" />
</g>
</symbol><symbol viewBox="0 0 40 40" id="zen-icon-phone">
<path d="M30.7,26.2l-2.8-2.8c-0.3-0.3-0.8-0.4-1.2-0.2l-2.8,1.4c-0.1,0-0.1,0.1-0.2,0.1c-0.5,0-2.6-1-5-3.4c-2.5-2.5-3.4-4.5-3.4-5
	c0,0,0.1-0.1,0.1-0.2l1.4-2.8c0.2-0.4,0.1-0.9-0.2-1.2l-2.8-2.8c-0.4-0.4-1-0.4-1.4,0l-2.1,2.1c-1.4,1.4-1.7,3.7-0.8,6.5
	c0.8,2.5,2.6,5.2,5,7.6C18,29,22.1,31,25.1,31c1.4,0,2.6-0.4,3.5-1.3l2.1-2.1C31.1,27.2,31.1,26.6,30.7,26.2z M27.2,28.3
	c-0.8,0.8-2.5,0.9-4.4,0.3c-2.2-0.7-4.7-2.3-6.8-4.5c-2.1-2.1-3.7-4.6-4.5-6.8c-0.7-2-0.6-3.6,0.3-4.4l1.4-1.4l1.6,1.6l-1,2.1
	c-1.7,2.1,3.1,7,3.6,7.6c0.6,0.6,5.5,5.3,7.6,3.6l2.1-1l1.6,1.6L27.2,28.3z" />
</symbol><symbol viewBox="0 0 40 40" id="zen-icon-pin">
<path d="M30.3,20.2l-9.9-9.9c-0.4-0.4-1-0.4-1.4,0c-0.2,0.2-0.3,0.5-0.3,0.7s0.1,0.5,0.3,0.7l1.4,1.4l-7.1,7.1l-1.4-1.4
	c-0.4-0.4-1-0.4-1.4,0s-0.4,1,0,1.4l4.2,4.2l-4.9,4.9c-0.4,0.4-0.4,1,0,1.4c0.2,0.2,0.5,0.3,0.7,0.3s0.5-0.1,0.7-0.3l4.9-4.9
	l4.2,4.2c0.2,0.2,0.5,0.3,0.7,0.3s0.5-0.1,0.7-0.3c0.4-0.4,0.4-1,0-1.4l-1.4-1.4l7.1-7.1l1.4,1.4c0.2,0.2,0.5,0.3,0.7,0.3
	s0.5-0.1,0.7-0.3s0.3-0.5,0.3-0.7S30.5,20.4,30.3,20.2z M19,25.8l-4.2-4.2l7.1-7.1l4.2,4.2L19,25.8z" />
</symbol><symbol viewBox="0 0 40 40" id="zen-icon-refresh">
<g>
	<path d="M26.4,13.6c-1.7-1.7-4-2.6-6.4-2.6c-2.2,0-4.2,0.8-5.8,2.2l-0.7-0.7c-0.2-0.2-0.5-0.3-0.8-0.2c-0.3,0.1-0.4,0.4-0.4,0.7
		l0,2.8c0,0.2,0.1,0.4,0.2,0.5c0.1,0.1,0.3,0.2,0.5,0.2h0l2.8,0c0.3,0,0.5-0.2,0.7-0.4c0.1-0.3,0-0.6-0.2-0.8l-0.7-0.7
		c1.2-1,2.8-1.6,4.4-1.6c1.9,0,3.6,0.7,5,2.1c1.3,1.3,2,3,2,4.7c0,0.5,0.5,1,1,1c0,0,0,0,0,0c0.6,0,1-0.5,1-1
		C28.9,17.4,28,15.3,26.4,13.6z" />
	<path d="M27.1,23.5l-2.8,0c-0.3,0-0.5,0.2-0.7,0.4c-0.1,0.3,0,0.6,0.2,0.8l0.7,0.7c-2.7,2.2-6.8,2.1-9.4-0.5c-1.3-1.3-2-3-2-4.7
		c0-0.6-0.5-1-1-1c-0.6,0-1,0.5-1,1c0.1,2.3,1,4.5,2.6,6.1c1.8,1.8,4.1,2.6,6.4,2.6c2.1,0,4.2-0.7,5.8-2.2l0.7,0.7
		c0.1,0.1,0.3,0.2,0.5,0.2c0.1,0,0.2,0,0.3-0.1c0.3-0.1,0.4-0.4,0.4-0.7l0-2.8C27.8,23.9,27.5,23.5,27.1,23.5z" />
</g>
</symbol><symbol viewBox="0 0 40 40" id="zen-icon-reorganise">
<g>
	<path d="M17.5,17v-6c0-1.1-0.9-2-2-2h-6c-1.1,0-2,0.9-2,2v6c0,1.1,0.9,2,2,2h6C16.6,19,17.5,18.1,17.5,17z M9.5,11h6l0,6h-6V11z" />
	<path d="M31.5,12h-6v-1c0-0.3-0.2-0.7-0.5-0.9s-0.7-0.2-1,0l-4,2c-0.3,0.2-0.6,0.5-0.6,0.9s0.2,0.7,0.6,0.9l4,2
		c0.1,0.1,0.3,0.1,0.4,0.1c0.2,0,0.4-0.1,0.5-0.1c0.3-0.2,0.5-0.5,0.5-0.9v-1h5v11h-5v-2c0-1.1-0.9-2-2-2h-6c-1.1,0-2,0.9-2,2v6
		c0,1.1,0.9,2,2,2h6c1.1,0,2-0.9,2-2v-2h6c0.6,0,1-0.4,1-1V13C32.5,12.4,32.1,12,31.5,12z M17.5,29v-6h6l0,6H17.5z" />
</g>
</symbol><symbol viewBox="0 0 40 40" id="zen-icon-remove">
<g>
	<path d="M20,9C13.9,9,9,13.9,9,20s4.9,11,11,11s11-4.9,11-11S26.1,9,20,9z M20,29c-5,0-9-4-9-9c0-5,4-9,9-9c5,0,9,4,9,9
		C29,25,25,29,20,29z" />
	<path d="M25,19H15c-0.6,0-1,0.4-1,1s0.4,1,1,1h10c0.6,0,1-0.4,1-1S25.6,19,25,19z" />
</g>
</symbol><symbol viewBox="0 0 40 40" id="zen-icon-search">
<path d="M29.7,28.3L26,24.6c1.2-1.5,2-3.5,2-5.6c0-5-4-9-9-9c-5,0-9,4-9,9c0,5,4,9,9,9c2.1,0,4.1-0.7,5.6-2l3.7,3.7
	c0.2,0.2,0.5,0.3,0.7,0.3s0.5-0.1,0.7-0.3C30.1,29.3,30.1,28.7,29.7,28.3z M19,26c-3.9,0-7-3.1-7-7c0-3.9,3.1-7,7-7c3.9,0,7,3.1,7,7
	C26,22.9,22.9,26,19,26z" />
</symbol><symbol viewBox="0 0 40 40" id="zen-icon-server">
<g>
	<path d="M16,11h-4c-0.6,0-1,0.4-1,1s0.4,1,1,1h4c0.6,0,1-0.4,1-1S16.6,11,16,11z" />
	<path d="M24,11L24,11c-0.6,0-1,0.4-1,1s0.5,1,1,1c0.6,0,1-0.4,1-1S24.6,11,24,11z" />
	<path d="M29,12c0-0.6-0.4-1-1-1h0c-0.6,0-1,0.4-1,1s0.5,1,1,1C28.6,13,29,12.6,29,12z" />
	<path d="M28,25c2.8,0,5-2.2,5-5c0-1.6-0.8-3.1-2-4c1.2-0.9,2-2.4,2-4c0-2.8-2.2-5-5-5H12c-2.8,0-5,2.2-5,5c0,1.6,0.8,3.1,2,4
		c-1.2,0.9-2,2.4-2,4c0,2.8,2.2,5,5,5h7v2.2c-0.8,0.3-1.5,1-1.8,1.8H8c-0.6,0-1,0.4-1,1s0.4,1,1,1h9.2c0.4,1.2,1.5,2,2.8,2
		s2.4-0.8,2.8-2H32c0.6,0,1-0.4,1-1s-0.4-1-1-1h-9.2c-0.3-0.8-1-1.5-1.8-1.8V25H28z M20,31c-0.6,0-1-0.4-1-1s0.4-1,1-1s1,0.4,1,1
		S20.6,31,20,31z M9,12c0-1.7,1.3-3,3-3h16c1.7,0,3,1.3,3,3s-1.3,3-3,3H12C10.3,15,9,13.7,9,12z M9,20c0-1.7,1.3-3,3-3h16
		c1.7,0,3,1.3,3,3s-1.3,3-3,3H12C10.3,23,9,21.7,9,20z" />
	<path d="M16,19h-4c-0.6,0-1,0.4-1,1s0.4,1,1,1h4c0.6,0,1-0.4,1-1S16.6,19,16,19z" />
	<path d="M24,21c0.6,0,1-0.4,1-1s-0.4-1-1-1h0c-0.6,0-1,0.4-1,1S23.5,21,24,21z" />
	<path d="M28,21c0.6,0,1-0.4,1-1s-0.4-1-1-1h0c-0.6,0-1,0.4-1,1S27.5,21,28,21z" />
</g>
</symbol><symbol viewBox="0 0 40 40" id="zen-icon-spanner">
<path d="M31.7,13.2c-0.4-0.4-1.1-0.4-1.5,0l-0.5,0.5c-0.3,0.3-0.7,0.4-1,0.3l-1.5-0.4c-0.4-0.1-0.7-0.4-0.8-0.8L26,11.3
	c-0.1-0.4,0-0.8,0.3-1l0.5-0.5c0.4-0.4,0.4-1.1,0-1.5c-0.5-0.5-1.3-0.4-1.7,0.2c-1,1.5-1.3,3.2-0.8,4.6L13.1,24.3
	c-1.4-0.4-3.1-0.2-4.6,0.8c-0.6,0.4-0.7,1.2-0.2,1.7c0.4,0.4,1.1,0.4,1.5,0l0.5-0.5c0.3-0.3,0.7-0.4,1-0.3l1.5,0.4
	c0.4,0.1,0.7,0.4,0.8,0.8l0.4,1.5c0.1,0.4,0,0.8-0.3,1l-0.5,0.5c-0.4,0.4-0.4,1.1,0,1.5c0.5,0.5,1.3,0.4,1.7-0.2
	c1-1.5,1.3-3.2,0.8-4.6l11.2-11.2c1.4,0.4,3.1,0.2,4.6-0.8C32.1,14.5,32.2,13.7,31.7,13.2z" />
</symbol><symbol viewBox="0 0 40 40" id="zen-icon-settings">
<path d="M30,18.2h-1.5c-0.2-1-0.6-2-1.2-2.9l1.1-1.1c0.4-0.4,0.4-1,0-1.4l-1.2-1.2c-0.4-0.4-1-0.4-1.4,0l-1.1,1.1
	c-0.9-0.6-1.8-1-2.9-1.2V10c0-0.6-0.4-1-1-1h-1.7c-0.6,0-1,0.4-1,1v1.5c-1,0.2-2,0.6-2.9,1.2l-1.1-1.1c-0.4-0.4-1-0.4-1.4,0
	l-1.2,1.2c-0.4,0.4-0.4,1,0,1.4l1.1,1.1c-0.6,0.9-1,1.8-1.2,2.9H10c-0.6,0-1,0.4-1,1v1.7c0,0.6,0.4,1,1,1h1.5c0.2,1,0.6,2,1.2,2.9
	l-1.1,1.1c-0.4,0.4-0.4,1,0,1.4l1.2,1.2c0.4,0.4,1,0.4,1.4,0l1.1-1.1c0.9,0.6,1.8,1,2.9,1.2V30c0,0.6,0.4,1,1,1h1.7c0.6,0,1-0.4,1-1
	v-1.5c1-0.2,2-0.6,2.9-1.2l1.1,1.1c0.4,0.4,1,0.4,1.4,0l1.2-1.2c0.4-0.4,0.4-1,0-1.4l-1.1-1.1c0.6-0.9,1-1.8,1.2-2.9H30
	c0.6,0,1-0.4,1-1v-1.7C31,18.6,30.6,18.2,30,18.2z M20,24.4c-2.4,0-4.4-2-4.4-4.4s2-4.4,4.4-4.4s4.4,2,4.4,4.4S22.4,24.4,20,24.4z" />
</symbol><symbol viewBox="0 0 40 40" id="zen-icon-star-empty">
<path d="M30,17.6c-0.1-0.4-0.4-0.6-0.8-0.7l-5.7-0.8l-2.6-5.2c-0.3-0.7-1.5-0.7-1.8,0l-2.6,5.2l-5.7,0.8c-0.4,0.1-0.7,0.3-0.8,0.7
	c-0.1,0.4,0,0.8,0.3,1l4.2,4.1l-1,5.7c-0.1,0.4,0.1,0.8,0.4,1c0.2,0.1,0.4,0.2,0.6,0.2c0.2,0,0.3,0,0.5-0.1l5.1-2.7l5.1,2.7
	c0.3,0.2,0.7,0.1,1.1-0.1c0.3-0.2,0.5-0.6,0.4-1l-1-5.7l4.2-4C30,18.3,30.1,17.9,30,17.6z M23.8,21.6c-0.2,0.2-0.3,0.6-0.3,0.9
	l0.7,4.2l-3.8-2c-0.3-0.2-0.6-0.2-0.9,0l-3.8,2l0.7-4.2c0.1-0.3-0.1-0.7-0.3-0.9l-3.1-3l4.3-0.6c0.3,0,0.6-0.3,0.8-0.5l1.9-3.9
	l1.9,3.8c0.1,0.3,0.4,0.5,0.8,0.5l4.3,0.6L23.8,21.6z" />
</symbol><symbol viewBox="0 0 40 40" id="zen-icon-speaker">
<g>
	<path d="M20.5,11c-0.9-0.5-1.8-0.6-2.6-0.3c-0.7,0.3-1.3,0.8-1.8,1.6l-8.6,7.4c-1.2,0.6-1.6,2.6-0.9,4.8c0.3,1,0.8,1.9,1.4,2.5
		c0.6,0.6,1.2,0.9,1.9,0.9c0.1,0,0.2,0,0.3,0l0.7,0l1.5,4.7c0.1,0.4,0.5,0.7,0.9,0.7l3.2,0.1c0,0,0,0,0,0c0.3,0,0.6-0.1,0.8-0.4
		c0.2-0.3,0.2-0.6,0.1-0.9l-1.3-4l4.6,0.1c0.5,0.2,1,0.4,1.5,0.4c0.3,0,0.6-0.1,0.9-0.2c2.6-0.9,3.5-5.5,2-10.4
		C24.3,14.6,22.4,12,20.5,11z M21.5,22.6c-0.9,0.3-2-0.9-2.6-2.6c-0.6-1.7-0.3-3.4,0.6-3.6s2,0.9,2.6,2.6S22.4,22.3,21.5,22.6z
		 M8.4,21.5C8.4,21.5,8.4,21.5,8.4,21.5c0.1,0,0.2-0.1,0.3-0.2c0,0,0,0,0,0c0,0,0,0,0,0l6.4-5.5c-0.1,1.6,0.1,3.4,0.7,5.3
		c0.6,1.9,1.5,3.6,2.5,4.9l-3.4-0.1c0,0-0.1,0-0.1,0l-3.2-0.1c0,0,0,0,0,0l-1.3,0c0,0-0.1,0-0.1,0l-0.1,0c0,0,0,0,0,0
		c0,0-0.1,0-0.1,0c0,0-0.1,0-0.1,0c-0.2,0-0.9-0.6-1.4-2C8.1,22.5,8.3,21.6,8.4,21.5z M15.1,31.2l-1.1,0l-1.1-3.4l1.1,0L15.1,31.2z" />
	<path d="M23.3,8.2c-0.4-0.4-1.1-0.3-1.4,0.1c-0.4,0.4-0.3,1.1,0.1,1.4c1.8,1.5,3.5,4.4,4.5,7.6c0.9,3.1,1.2,6.3,0.6,8.7
		c-0.1,0.6,0.2,1.1,0.8,1.2c0.1,0,0.2,0,0.2,0c0.5,0,0.9-0.3,1-0.8c0.7-2.7,0.4-6.3-0.6-9.8C27.4,13.1,25.5,10,23.3,8.2z" />
	<path d="M32.8,15.6c-1.1-3.7-3-6.9-5.2-8.6c-0.4-0.4-1.1-0.3-1.4,0.1c-0.4,0.4-0.3,1.1,0.1,1.4c1.8,1.5,3.5,4.4,4.5,7.6
		c0.9,3.2,1.2,6.3,0.6,8.7c-0.1,0.6,0.2,1.1,0.8,1.2c0.1,0,0.2,0,0.2,0c0.5,0,0.9-0.3,1-0.8C34.1,22.7,33.8,19.1,32.8,15.6z" />
</g>
</symbol><symbol viewBox="0 0 40 40" id="zen-icon-star">
<path d="M30,17.6c-0.1-0.4-0.4-0.6-0.8-0.7l-5.7-0.8l-2.6-5.2c-0.3-0.7-1.5-0.7-1.8,0l-2.6,5.2L10.8,17c-0.4,0.1-0.7,0.3-0.8,0.7
	c-0.1,0.4,0,0.8,0.3,1l4.2,4.1l-1,5.7c-0.1,0.4,0.1,0.8,0.4,1c0.3,0.2,0.7,0.3,1.1,0.1l5.1-2.7l5.1,2.7c0.1,0.1,0.3,0.1,0.5,0.1
	c0.2,0,0.4-0.1,0.6-0.2c0.3-0.2,0.5-0.6,0.4-1l-1-5.7l4.2-4.1C30,18.4,30.1,18,30,17.6z" />
</symbol><symbol viewBox="0 0 40 40" id="zen-icon-tick">
<path d="M29.6,11.2c-0.4-0.3-1-0.3-1.4,0.1l-11,11.4l-5.7-3.6c-0.4-0.3-1-0.2-1.3,0.2c-0.3,0.4-0.3,0.9,0,1.3l6.4,8
	c0.2,0.2,0.5,0.4,0.8,0.4c0,0,0,0,0,0c0.3,0,0.6-0.2,0.8-0.4l11.6-16C30.1,12.2,30,11.6,29.6,11.2z" />
</symbol><symbol viewBox="0 0 40 40" id="zen-icon-stop">
<path d="M28,11H12c-0.6,0-1,0.4-1,1v16c0,0.6,0.4,1,1,1h16c0.6,0,1-0.4,1-1V12C29,11.4,28.6,11,28,11z M27,27H13V13h14V27z" />
</symbol><symbol viewBox="0 0 40 40" id="zen-icon-store">
<path d="M32,31h-1.1v-3v-8.1c1.2-0.9,2-2.3,2-3.9c0,0,0,0,0,0c0-0.1,0-0.2-0.1-0.3c0-0.1-0.1-0.2-0.2-0.3l-8-8
	c-0.1-0.1-0.2-0.2-0.3-0.2c-0.1,0-0.2-0.1-0.3-0.1c0,0,0,0,0,0h-8c0,0,0,0,0,0c-0.1,0-0.2,0-0.3,0.1c-0.1,0-0.2,0.1-0.3,0.2l-8,8
	c-0.2,0.2-0.3,0.4-0.3,0.6c0,1.6,0.8,3,2,3.9V31H8c-0.6,0-1,0.4-1,1s0.4,1,1,1h24c0.6,0,1-0.4,1-1S32.6,31,32,31z M29.1,27.1h-4.2
	v-7.3c0.8,0.7,1.9,1.1,3.1,1.1c0.4,0,0.7-0.1,1.1-0.1V27.1z M28,19.1c-1.4,0-2.5-0.9-2.9-2.2h5.9C30.5,18.2,29.4,19.1,28,19.1z
	 M23.6,8.9l6.2,6.2h-5.2l-3.1-6.2H23.6z M22.5,15.1h-5l2.5-5L22.5,15.1z M22.9,16.9c-0.4,1.3-1.5,2.2-2.9,2.2s-2.5-0.9-2.9-2.2H22.9
	z M16.4,8.9h2.1l-3.1,6.2h-5.2L16.4,8.9z M14.9,16.9c-0.4,1.3-1.6,2.2-2.9,2.2c-1.4,0-2.5-0.9-2.9-2.2H14.9z M10.9,20.8
	c0.4,0.1,0.7,0.1,1.1,0.1c1.7,0,3.1-0.8,4-2.1c0.9,1.3,2.3,2.1,4,2.1c1.2,0,2.2-0.4,3.1-1.1V28c0,0.5,0.4,0.9,0.9,0.9h5.1V31h-8.2
	v-7c0-0.5-0.4-0.9-0.9-0.9h-5.3c-0.5,0-0.9,0.4-0.9,0.9v7h-2.8V20.8z M15.6,31v-6.1h3.5V31H15.6z" />
</symbol><symbol viewBox="0 0 40 40" id="zen-icon-upload">
<g>
	<path d="M26.842,11.779c-1.531-1.812-3.74-2.842-6.136-2.842c-3.562,0-6.696,2.366-7.71,5.703c-0.25-0.037-0.504-0.056-0.761-0.056
		C9.349,14.584,7,16.933,7,19.819c0,2.887,2.349,5.236,5.235,5.236H16c0.552,0,1-0.447,1-1s-0.448-1-1-1h-3.765
		C10.451,23.055,9,21.604,9,19.819c0-1.784,1.451-3.235,3.235-3.235c0.396,0,0.779,0.071,1.137,0.212
		c0.284,0.112,0.604,0.088,0.87-0.066c0.264-0.154,0.444-0.42,0.487-0.723c0.01-0.07,0.02-0.135,0.04-0.224
		c0.573-2.809,3.07-4.847,5.938-4.847c1.923,0,3.687,0.883,4.839,2.423c0.189,0.252,0.492,0.401,0.808,0.401
		c2.562,0,4.647,2.084,4.647,4.647s-2.085,4.647-4.647,4.647H24c-0.553,0-1,0.447-1,1s0.447,1,1,1h2.353
		c3.665,0,6.647-2.982,6.647-6.647C33,14.909,30.283,12.033,26.842,11.779z" />
	<path d="M24,20.768c0.286,0,0.544-0.173,0.653-0.437c0.109-0.265,0.049-0.569-0.153-0.771l-4.002-3.998
		c-0.278-0.277-0.724-0.276-1,0L15.5,19.565c-0.202,0.203-0.263,0.507-0.153,0.771c0.11,0.265,0.368,0.437,0.653,0.437h0l3-0.001
		l0.005,9.293c0,0.552,0.448,0.999,1,0.999c0,0,0,0,0.001,0c0.552,0,0.999-0.448,0.999-1.001l-0.005-9.292L24,20.768z" />
</g>
</symbol><symbol viewBox="0 0 40 40" id="zen-icon-web">
<path d="M32,25c0.6-1.5,1-3.2,1-5c0-1.8-0.4-3.5-1-5v0h0c-2-4.7-6.6-8-12-8c-5.4,0-10,3.3-12,8h0v0c-0.6,1.5-1,3.2-1,5
	c0,1.8,0.4,3.5,1,5v0h0c2,4.7,6.6,8,12,8C25.4,33,30,29.7,32,25L32,25L32,25z M20,31c-0.7,0-2-2.1-2.6-6h5.3C22,28.9,20.7,31,20,31z
	 M17.1,23C17,22.1,17,21.1,17,20s0-2.1,0.1-3h5.7c0.1,0.9,0.1,1.9,0.1,3s0,2.1-0.1,3H17.1z M9,20c0-1,0.2-2,0.4-3h5.7
	C15,18,15,19,15,20s0,2,0.1,3H9.4C9.2,22,9,21,9,20z M20,9c0.7,0,2,2.1,2.6,6h-5.3C18,11.1,19.3,9,20,9z M24.9,17h5.7
	c0.3,1,0.4,2,0.4,3s-0.2,2-0.4,3h-5.7c0.1-1,0.1-2,0.1-3S25,18,24.9,17z M29.8,15h-5.1c-0.3-2.2-0.9-4.1-1.6-5.6
	C26,10.3,28.4,12.3,29.8,15z M17,9.4c-0.7,1.4-1.3,3.4-1.6,5.6h-5.1C11.6,12.3,14,10.3,17,9.4z M10.2,25h5.1
	c0.3,2.2,0.9,4.1,1.6,5.6C14,29.7,11.6,27.7,10.2,25z M23,30.6c0.7-1.4,1.3-3.4,1.6-5.6h5.1C28.4,27.7,26,29.7,23,30.6z" />
</symbol><symbol viewBox="0 0 40 40" id="zen-icon-translate">
<g>
	<path d="M11.2,8L8,18h3l0.6-2.1h2.9L15,18H18L14.8,8H11.2z M12,13.9l0.5-2l0.4-1.6h0l0.4,1.6l0.5,2H12z" />
	<path d="M23.5,29.3c0-0.2,0-0.6,0-1c0-1.3,0-3.1,0.7-5.7c0.2,0,0.3-0.1,0.3-0.2l-1.8-0.3c-0.3,1.8-0.6,3.6-0.6,5.3
		c0,1.6,0.2,3.6,0.5,4.4l1.4-0.1c0-0.2-0.1-0.3-0.1-0.5c0-0.2,0-0.4,0.1-0.6c0.2-0.7,0.7-1.6,1-2.2l-0.8-1
		C24,27.8,23.6,28.8,23.5,29.3z" />
	<path d="M29.8,28.7c0-0.8-0.1-1.8-0.1-2.9c0.8-0.1,1.6-0.2,2.1-0.3L31.7,24c-0.6,0.2-1.2,0.3-2,0.4l0-2.1c0.2,0,0.3-0.1,0.3-0.3
		L28.1,22c0,0.9,0,1.7,0.1,2.6c-0.6,0-1.2,0-1.8,0c-0.2,0-0.5,0-0.7,0l0,1.3h1.6c0.3,0,0.7,0,1,0c0,0.8,0.1,1.8,0.1,2.4
		c-0.2,0-0.5-0.1-0.7-0.1c-1.2,0-2.3,0.7-2.3,1.9c0,1.1,0.9,1.9,2.3,1.9c1,0,2.1-0.2,2.2-1.7c0.5,0.3,1,0.7,1.4,1.1L32,30
		C31.4,29.5,30.6,29,29.8,28.7z M27.7,30.8c-0.6,0-1.1-0.2-1.1-0.7c0-0.5,0.5-0.7,1.1-0.7c0.3,0,0.6,0.1,0.8,0.1c0,0.1,0,0.2,0,0.3
		C28.5,30.4,28.2,30.8,27.7,30.8z" />
	<path d="M17,27h-3v-4.3h1c0.3,0,0.5-0.2,0.7-0.4c0.1-0.3,0-0.6-0.2-0.8l-2-2c-0.3-0.3-0.7-0.3-1,0l-2,2c-0.2,0.2-0.3,0.5-0.2,0.8
		c0.1,0.3,0.4,0.4,0.7,0.4h1V28c0,0.6,0.4,1,1,1h4c0.6,0,1-0.4,1-1S17.6,27,17,27z" />
	<path d="M26,15.3h-1c-0.3,0-0.5,0.2-0.7,0.4c-0.1,0.3,0,0.6,0.2,0.8l2,2c0.1,0.1,0.3,0.2,0.5,0.2s0.4-0.1,0.5-0.2l2-2
		c0.2-0.2,0.3-0.5,0.2-0.8c-0.1-0.3-0.4-0.4-0.7-0.4h-1V12c0-0.6-0.4-1-1-1h-7c-0.6,0-1,0.4-1,1s0.4,1,1,1h6V15.3z" />
</g>
</symbol><symbol viewBox="0 0 40 40" id="zen-icon-user">
<path d="M24.8,22.1C26.2,20.8,27,19,27,17c0-3.9-3.1-7-7-7c-3.9,0-7,3.1-7,7c0,2,0.8,3.8,2.2,5.1C12.8,22.5,11,24.5,11,27v2
	c0,0.6,0.4,1,1,1h16c0.6,0,1-0.4,1-1v-2C29,24.5,27.2,22.5,24.8,22.1z M15,17c0-2.8,2.2-5,5-5s5,2.2,5,5s-2.2,5-5,5S15,19.8,15,17z
	 M27,28H13v-1c0-1.7,1.3-3,3-3h8c1.7,0,3,1.3,3,3V28z" />
</symbol><symbol viewBox="0 0 40 40" id="zen-icon-loading">
<style type="text/css">
	@keyframes rotate {
		from { transform: rotate(0deg); }
		to { transform: rotate(360deg); }
	}
	#zen-icon-loading g {
		animation: rotate infinite 2s linear;
		transform-origin: center;
	}
	#zen-icon-loading g.inner {
		animation-direction: reverse;
	}
</style>
<g class="outer">
	<path d="M6,21c-0.6,0-1-0.4-1-1c0-8.3,6.7-15,15-15c0.6,0,1,0.4,1,1s-0.4,1-1,1C12.8,7,7,12.8,7,20C7,20.6,6.6,21,6,21z" />
	<path d="M20,35c-0.6,0-1-0.4-1-1s0.4-1,1-1c7.2,0,13-5.8,13-13c0-0.6,0.4-1,1-1s1,0.4,1,1C35,28.3,28.3,35,20,35z" />
</g>
<g class="inner">
	<path d="M20,30c-5.5,0-10-4.5-10-10c0-0.6,0.4-1,1-1s1,0.4,1,1c0,4.4,3.6,8,8,8c0.6,0,1,0.4,1,1S20.6,30,20,30z" />
	<path d="M29,21c-0.6,0-1-0.4-1-1c0-4.4-3.6-8-8-8c-0.6,0-1-0.4-1-1s0.4-1,1-1c5.5,0,10,4.5,10,10C30,20.6,29.6,21,29,21z" />
</g>
</symbol><symbol viewBox="0 0 40 40" id="zen-icon-plugin">
<style type="text/css">
	#zen-icon-plugin .st0{fill:none;stroke:#000000;stroke-width:2;stroke-linecap:round;stroke-linejoin:round;stroke-miterlimit:10;}
	#zen-icon-plugin .st1{stroke:#000000;stroke-width:2;stroke-linecap:round;stroke-linejoin:round;stroke-miterlimit:10;}
</style>
<g>
	<line class="st0" x1="250.1" y1="149.9" x2="262.1" y2="137.9" />
	<path class="st1" d="M268.2,140.3c-2.3,2.3-6.1,2.3-8.5,0c-2.3-2.3-2.3-6.1,0-8.5L268.2,140.3z" />
	<line class="st0" x1="261.9" y1="134.1" x2="265.9" y2="130.1" />
	<line class="st0" x1="265.9" y1="138.1" x2="269.9" y2="134.1" />
</g>
<path d="M30.6,13.4c-0.4-0.4-1-0.4-1.4,0l-3.3,3.3l-2.6-2.6l3.3-3.3c0.4-0.4,0.4-1,0-1.4s-1-0.4-1.4,0l-3.3,3.3l-1.5-1.5
	c-0.4-0.4-1-0.4-1.4,0c-1.3,1.3-2.1,3.1-2.1,4.9c0,1.5,0.5,3,1.4,4.2l-8.9,8.9c-0.4,0.4-0.4,1,0,1.4c0.2,0.2,0.5,0.3,0.7,0.3
	s0.5-0.1,0.7-0.3l8.9-8.9c1.2,0.9,2.7,1.4,4.2,1.4c1.8,0,3.6-0.7,4.9-2c0.2-0.2,0.3-0.4,0.3-0.7s-0.1-0.5-0.3-0.7l-1.5-1.5l3.3-3.3
	C31,14.4,31,13.8,30.6,13.4z" />
</symbol><symbol viewBox="0 0 40 40" id="zen-icon-transfer">
<style type="text/css">
	#zen-icon-transfer .st0{fill:none;stroke:#000000;stroke-width:2;stroke-linecap:round;stroke-linejoin:round;stroke-miterlimit:10;}
</style>
<polyline class="st0" points="301.4,264.2 307.1,258.6 309.9,261.4 309.9,252.9 301.4,252.9 304.2,255.8 295.8,264.2 298.6,267.1 
	290.1,267.1 290.1,258.6 292.9,261.4 298.6,255.8 " />
<g>
	<path d="M18.6,28.1h-8.5c-0.6,0-1-0.4-1-1v-8.5c0-0.4,0.2-0.8,0.6-0.9c0.4-0.2,0.8-0.1,1.1,0.2l2.1,2.1l5-4.9c0.4-0.4,1-0.4,1.4,0
		s0.4,1,0,1.4l-5.7,5.7c-0.4,0.4-1,0.4-1.4,0L11.1,21v5.1h5.1l-1.1-1.1c-0.4-0.4-0.4-1,0-1.4l7.8-7.8l-2.1-2.1
		c-0.3-0.3-0.4-0.7-0.2-1.1s0.5-0.6,0.9-0.6h8.5c0.6,0,1,0.4,1,1v8.5c0,0.4-0.2,0.8-0.6,0.9c-0.4,0.2-0.8,0.1-1.1-0.2L27.1,20
		l-5,4.9c-0.4,0.4-1,0.4-1.4,0s-0.4-1,0-1.4l5.7-5.7c0.4-0.4,1-0.4,1.4,0l1.1,1.1v-5.1h-5.1l1.1,1.1c0.4,0.4,0.4,1,0,1.4l-7.8,7.8
		l2.1,2.1c0.3,0.3,0.4,0.7,0.2,1.1S19,28.1,18.6,28.1z" />
</g>
</symbol></defs><use id="zen-icon-arrow-left-usage" xlink:href="#zen-icon-arrow-left" class="sprite-symbol-usage" /><use id="zen-icon-add-usage" xlink:href="#zen-icon-add" class="sprite-symbol-usage" /><use id="zen-icon-arrow-down-usage" xlink:href="#zen-icon-arrow-down" class="sprite-symbol-usage" /><use id="zen-icon-app-usage" xlink:href="#zen-icon-app" class="sprite-symbol-usage" /><use id="zen-icon-arrow-up-usage" xlink:href="#zen-icon-arrow-up" class="sprite-symbol-usage" /><use id="zen-icon-arrow-right-usage" xlink:href="#zen-icon-arrow-right" class="sprite-symbol-usage" /><use id="zen-icon-brush-usage" xlink:href="#zen-icon-brush" class="sprite-symbol-usage" /><use id="zen-icon-box-usage" xlink:href="#zen-icon-box" class="sprite-symbol-usage" /><use id="zen-icon-calendar-usage" xlink:href="#zen-icon-calendar" class="sprite-symbol-usage" /><use id="zen-icon-camera-usage" xlink:href="#zen-icon-camera" class="sprite-symbol-usage" /><use id="zen-icon-cloud-usage" xlink:href="#zen-icon-cloud" class="sprite-symbol-usage" /><use id="zen-icon-cross-usage" xlink:href="#zen-icon-cross" class="sprite-symbol-usage" /><use id="zen-icon-code-usage" xlink:href="#zen-icon-code" class="sprite-symbol-usage" /><use id="zen-icon-dashboard-usage" xlink:href="#zen-icon-dashboard" class="sprite-symbol-usage" /><use id="zen-icon-database-usage" xlink:href="#zen-icon-database" class="sprite-symbol-usage" /><use id="zen-icon-editor-bold-usage" xlink:href="#zen-icon-editor-bold" class="sprite-symbol-usage" /><use id="zen-icon-dollar-usage" xlink:href="#zen-icon-dollar" class="sprite-symbol-usage" /><use id="zen-icon-download-usage" xlink:href="#zen-icon-download" class="sprite-symbol-usage" /><use id="zen-icon-editor-bullet-unordered-usage" xlink:href="#zen-icon-editor-bullet-unordered" class="sprite-symbol-usage" /><use id="zen-icon-editor-clear-usage" xlink:href="#zen-icon-editor-clear" class="sprite-symbol-usage" /><use id="zen-icon-editor-indent-usage" xlink:href="#zen-icon-editor-indent" class="sprite-symbol-usage" /><use id="zen-icon-editor-bullet-ordered-usage" xlink:href="#zen-icon-editor-bullet-ordered" class="sprite-symbol-usage" /><use id="zen-icon-editor-justify-center-usage" xlink:href="#zen-icon-editor-justify-center" class="sprite-symbol-usage" /><use id="zen-icon-editor-italic-usage" xlink:href="#zen-icon-editor-italic" class="sprite-symbol-usage" /><use id="zen-icon-editor-justify-right-usage" xlink:href="#zen-icon-editor-justify-right" class="sprite-symbol-usage" /><use id="zen-icon-editor-justify-left-usage" xlink:href="#zen-icon-editor-justify-left" class="sprite-symbol-usage" /><use id="zen-icon-editor-justify-usage" xlink:href="#zen-icon-editor-justify" class="sprite-symbol-usage" /><use id="zen-icon-editor-link-usage" xlink:href="#zen-icon-editor-link" class="sprite-symbol-usage" /><use id="zen-icon-editor-strikethrough-usage" xlink:href="#zen-icon-editor-strikethrough" class="sprite-symbol-usage" /><use id="zen-icon-editor-outdent-usage" xlink:href="#zen-icon-editor-outdent" class="sprite-symbol-usage" /><use id="zen-icon-editor-underline-usage" xlink:href="#zen-icon-editor-underline" class="sprite-symbol-usage" /><use id="zen-icon-editor-unlink-usage" xlink:href="#zen-icon-editor-unlink" class="sprite-symbol-usage" /><use id="zen-icon-error-usage" xlink:href="#zen-icon-error" class="sprite-symbol-usage" /><use id="zen-icon-home-usage" xlink:href="#zen-icon-home" class="sprite-symbol-usage" /><use id="zen-icon-image-usage" xlink:href="#zen-icon-image" class="sprite-symbol-usage" /><use id="zen-icon-install-usage" xlink:href="#zen-icon-install" class="sprite-symbol-usage" /><use id="zen-icon-location-usage" xlink:href="#zen-icon-location" class="sprite-symbol-usage" /><use id="zen-icon-lock-usage" xlink:href="#zen-icon-lock" class="sprite-symbol-usage" /><use id="zen-icon-mail-usage" xlink:href="#zen-icon-mail" class="sprite-symbol-usage" /><use id="zen-icon-menu-usage" xlink:href="#zen-icon-menu" class="sprite-symbol-usage" /><use id="zen-icon-messages-usage" xlink:href="#zen-icon-messages" class="sprite-symbol-usage" /><use id="zen-icon-opensource-usage" xlink:href="#zen-icon-opensource" class="sprite-symbol-usage" /><use id="zen-icon-nodejs-usage" xlink:href="#zen-icon-nodejs" class="sprite-symbol-usage" /><use id="zen-icon-page-usage" xlink:href="#zen-icon-page" class="sprite-symbol-usage" /><use id="zen-icon-phone-usage" xlink:href="#zen-icon-phone" class="sprite-symbol-usage" /><use id="zen-icon-pin-usage" xlink:href="#zen-icon-pin" class="sprite-symbol-usage" /><use id="zen-icon-refresh-usage" xlink:href="#zen-icon-refresh" class="sprite-symbol-usage" /><use id="zen-icon-reorganise-usage" xlink:href="#zen-icon-reorganise" class="sprite-symbol-usage" /><use id="zen-icon-remove-usage" xlink:href="#zen-icon-remove" class="sprite-symbol-usage" /><use id="zen-icon-search-usage" xlink:href="#zen-icon-search" class="sprite-symbol-usage" /><use id="zen-icon-server-usage" xlink:href="#zen-icon-server" class="sprite-symbol-usage" /><use id="zen-icon-spanner-usage" xlink:href="#zen-icon-spanner" class="sprite-symbol-usage" /><use id="zen-icon-settings-usage" xlink:href="#zen-icon-settings" class="sprite-symbol-usage" /><use id="zen-icon-star-empty-usage" xlink:href="#zen-icon-star-empty" class="sprite-symbol-usage" /><use id="zen-icon-speaker-usage" xlink:href="#zen-icon-speaker" class="sprite-symbol-usage" /><use id="zen-icon-star-usage" xlink:href="#zen-icon-star" class="sprite-symbol-usage" /><use id="zen-icon-tick-usage" xlink:href="#zen-icon-tick" class="sprite-symbol-usage" /><use id="zen-icon-stop-usage" xlink:href="#zen-icon-stop" class="sprite-symbol-usage" /><use id="zen-icon-store-usage" xlink:href="#zen-icon-store" class="sprite-symbol-usage" /><use id="zen-icon-upload-usage" xlink:href="#zen-icon-upload" class="sprite-symbol-usage" /><use id="zen-icon-web-usage" xlink:href="#zen-icon-web" class="sprite-symbol-usage" /><use id="zen-icon-translate-usage" xlink:href="#zen-icon-translate" class="sprite-symbol-usage" /><use id="zen-icon-user-usage" xlink:href="#zen-icon-user" class="sprite-symbol-usage" /><use id="zen-icon-loading-usage" xlink:href="#zen-icon-loading" class="sprite-symbol-usage" /><use id="zen-icon-plugin-usage" xlink:href="#zen-icon-plugin" class="sprite-symbol-usage" /><use id="zen-icon-transfer-usage" xlink:href="#zen-icon-transfer" class="sprite-symbol-usage" /></svg>