<svg xmlns="http://www.w3.org/2000/svg" xmlns:xlink="http://www.w3.org/1999/xlink"><defs><style>
    .sprite-symbol-usage {display: none;}
    .sprite-symbol-usage:target {display: inline;}
  </style><symbol viewBox="0 0 40 40" id="zen-icon-arrow-right">
<path d="M14.8,10.3c-0.4,0.4-0.4,1,0,1.4l8.3,8.3l-8.3,8.3c-0.4,0.4-0.4,1,0,1.4s1,0.4,1.4,0l9-9c0.2-0.2,0.3-0.5,0.3-0.7
	s-0.1-0.5-0.3-0.7l-9-9C15.8,9.9,15.2,9.9,14.8,10.3z" />
</symbol><symbol viewBox="0 0 40 40" id="zen-icon-arrow-left">
<path d="M25.2,29.7c0.4-0.4,0.4-1,0-1.4L16.9,20l8.3-8.3c0.4-0.4,0.4-1,0-1.4s-1-0.4-1.4,0l-9,9c-0.2,0.2-0.3,0.5-0.3,0.7
	s0.1,0.5,0.3,0.7l9,9C24.2,30.1,24.8,30.1,25.2,29.7z" />
</symbol><symbol viewBox="0 0 40 40" id="zen-icon-add">
<path d="M30,19h-9v-9c0-0.6-0.4-1-1-1s-1,0.4-1,1v9h-9c-0.6,0-1,0.4-1,1s0.4,1,1,1h9v9c0,0.6,0.4,1,1,1s1-0.4,1-1v-9h9
	c0.6,0,1-0.4,1-1S30.6,19,30,19z" />
</symbol><symbol viewBox="0 0 40 40" id="zen-icon-arrow-down">
<path d="M29.7,14.8c-0.4-0.4-1-0.4-1.4,0L20,23.1l-8.3-8.3c-0.4-0.4-1-0.4-1.4,0s-0.4,1,0,1.4l9,9c0.2,0.2,0.5,0.3,0.7,0.3
	s0.5-0.1,0.7-0.3l9-9C30.1,15.8,30.1,15.2,29.7,14.8z" />
</symbol><symbol viewBox="0 0 40 40" id="zen-icon-dollar">
<g>
	<path d="M19.3,28.6c-1.5-0.1-2.8-0.6-3.8-1.3c-0.8-0.6-1.4-1.3-1.9-2.3c-0.2-0.4,0-1,0.4-1.2l0.3-0.1c0.5-0.2,1,0,1.2,0.5
		c0.3,0.5,0.6,1,1.1,1.5c0.8,0.7,1.7,1.1,2.7,1.3v-6c-1.1-0.2-2.1-0.5-2.8-0.8c-0.7-0.3-1.4-0.7-1.8-1.3c-0.5-0.6-0.7-1.3-0.7-2.3
		c0-0.9,0.2-1.7,0.7-2.4c0.4-0.7,1.1-1.3,1.9-1.8c0.8-0.5,1.8-0.7,2.9-0.8V9.7c0-0.5,0.4-0.9,0.9-0.9h0c0.5,0,0.9,0.4,0.9,0.9v1.8
		c1.3,0.1,2.3,0.4,3.2,1c0.6,0.4,1.2,1.1,1.7,1.8c0.3,0.4,0.2,0.9-0.2,1.2l-0.2,0.2c-0.4,0.3-1.1,0.2-1.3-0.3c-0.3-0.5-0.6-1-1-1.3
		c-0.6-0.5-1.3-0.8-2.2-0.9v6.1c1.1,0.2,2.1,0.5,2.8,0.8c0.7,0.3,1.4,0.7,1.8,1.3c0.5,0.6,0.7,1.4,0.7,2.4c0,1.3-0.5,2.4-1.5,3.3
		c-1,0.8-2.3,1.3-3.9,1.5v1.7c0,0.5-0.4,0.9-0.9,0.9h0c-0.5,0-0.9-0.4-0.9-0.9V28.6z M19.3,13.2c-1.1,0.1-2,0.4-2.5,0.9
		c-0.6,0.5-0.9,1.2-0.9,2.1c0,0.8,0.3,1.4,0.9,1.8s1.4,0.7,2.5,1V13.2z M24.5,24c0-0.8-0.3-1.4-0.9-1.8c-0.6-0.4-1.4-0.8-2.5-1v5.7
		C23.4,26.7,24.5,25.7,24.5,24z" />
</g>
</symbol><symbol viewBox="0 0 40 40" id="zen-icon-cross">
<path d="M21.4,20l6.3-6.3c0.4-0.4,0.4-1,0-1.4s-1-0.4-1.4,0L20,18.6l-6.3-6.3c-0.4-0.4-1-0.4-1.4,0s-0.4,1,0,1.4l6.3,6.3l-6.3,6.3
	c-0.4,0.4-0.4,1,0,1.4c0.2,0.2,0.5,0.3,0.7,0.3s0.5-0.1,0.7-0.3l6.3-6.3l6.3,6.3c0.2,0.2,0.5,0.3,0.7,0.3s0.5-0.1,0.7-0.3
	c0.4-0.4,0.4-1,0-1.4L21.4,20z" />
</symbol><symbol viewBox="0 0 40 40" id="zen-icon-arrow-up">
<path d="M29.7,25.2c-0.4,0.4-1,0.4-1.4,0L20,16.9l-8.3,8.3c-0.4,0.4-1,0.4-1.4,0s-0.4-1,0-1.4l9-9c0.2-0.2,0.5-0.3,0.7-0.3
	s0.5,0.1,0.7,0.3l9,9C30.1,24.2,30.1,24.8,29.7,25.2z" />
</symbol><symbol viewBox="0 0 40 40" id="zen-icon-lock">
<path d="M26.2,17.8v-3h0c-0.3-3.1-2.8-5.5-6-5.5c-3.1,0-5.7,2.4-6,5.5h0v3c-1.7,0-3,1.3-3,3v7c0,1.7,1.3,3,3,3h12c1.7,0,3-1.3,3-3
	v-7C29.2,19.1,27.8,17.8,26.2,17.8z M21.2,26.2c0,0.6-0.4,1-1,1s-1-0.4-1-1v-4c0-0.6,0.4-1,1-1s1,0.4,1,1V26.2z M24.2,17.8h-8v-2.5
	c0-2.2,1.8-4,4-4s4,1.8,4,4V17.8z" />
</symbol><symbol viewBox="0 0 40 40" id="zen-icon-error">
<g>
	<path d="M30.1,27.5l-9.2-16c-0.4-0.6-1.4-0.6-1.7,0l-9.2,16c-0.2,0.3-0.2,0.7,0,1c0.2,0.3,0.5,0.5,0.9,0.5h18.5
		c0.4,0,0.7-0.2,0.9-0.5S30.3,27.8,30.1,27.5z M12.5,27L20,14l7.5,13H12.5z" />
	<path d="M19,20v4c0,0.6,0.4,1,1,1s1-0.4,1-1v-4c0-0.6-0.4-1-1-1S19,19.4,19,20z" />
</g>
</symbol><symbol viewBox="0 0 40 40" id="zen-icon-mail">
<g>
	<path d="M31.9,13.4l-6.2,5.2l6.3,4.2V14C32,13.8,32,13.6,31.9,13.4z" />
	<path d="M8.1,13.4C8,13.6,8,13.8,8,14v8.8l6.3-4.2L8.1,13.4z" />
	<path d="M20.6,22.8C20.5,22.9,20.2,23,20,23s-0.5-0.1-0.6-0.2l-3.4-2.9L8,25.2V26c0,1.1,0.9,2,2,2h20c1.1,0,2-0.9,2-2v-0.8
		l-7.9-5.3L20.6,22.8z" />
	<path d="M30.4,12L30.4,12L30.4,12c-0.1,0-0.3,0-0.4,0H10c-0.1,0-0.3,0-0.4,0L20,20.7L30.4,12z" />
</g>
</symbol><symbol viewBox="0 0 40 40" id="zen-icon-menu">
<g>
	<path d="M40,12c0-0.6-0.4-1-1-1H19c-0.6,0-1,0.4-1,1s0.4,1,1,1h20C39.6,13,40,12.6,40,12z" />
	<path d="M39,19H23c-0.6,0-1,0.4-1,1s0.4,1,1,1h16c0.6,0,1-0.4,1-1S39.6,19,39,19z" />
	<path d="M39,27H27c-0.6,0-1,0.4-1,1s0.4,1,1,1h12c0.6,0,1-0.4,1-1S39.6,27,39,27z" />
</g>
</symbol><symbol viewBox="0 0 40 40" id="zen-icon-pin">
<path d="M30.3,20.2l-9.9-9.9c-0.4-0.4-1-0.4-1.4,0c-0.2,0.2-0.3,0.5-0.3,0.7s0.1,0.5,0.3,0.7l1.4,1.4l-7.1,7.1l-1.4-1.4
	c-0.4-0.4-1-0.4-1.4,0s-0.4,1,0,1.4l4.2,4.2l-4.9,4.9c-0.4,0.4-0.4,1,0,1.4c0.2,0.2,0.5,0.3,0.7,0.3s0.5-0.1,0.7-0.3l4.9-4.9
	l4.2,4.2c0.2,0.2,0.5,0.3,0.7,0.3s0.5-0.1,0.7-0.3c0.4-0.4,0.4-1,0-1.4l-1.4-1.4l7.1-7.1l1.4,1.4c0.2,0.2,0.5,0.3,0.7,0.3
	s0.5-0.1,0.7-0.3s0.3-0.5,0.3-0.7S30.5,20.4,30.3,20.2z M19,25.8l-4.2-4.2l7.1-7.1l4.2,4.2L19,25.8z" />
</symbol><symbol viewBox="0 0 40 40" id="zen-icon-remove">
<g>
	<path d="M20,9C13.9,9,9,13.9,9,20s4.9,11,11,11s11-4.9,11-11S26.1,9,20,9z M20,29c-5,0-9-4-9-9c0-5,4-9,9-9c5,0,9,4,9,9
		C29,25,25,29,20,29z" />
	<path d="M25,19H15c-0.6,0-1,0.4-1,1s0.4,1,1,1h10c0.6,0,1-0.4,1-1S25.6,19,25,19z" />
</g>
</symbol><symbol viewBox="0 0 40 40" id="zen-icon-reorganise">
<g>
	<path d="M17.5,17v-6c0-1.1-0.9-2-2-2h-6c-1.1,0-2,0.9-2,2v6c0,1.1,0.9,2,2,2h6C16.6,19,17.5,18.1,17.5,17z M9.5,11h6l0,6h-6V11z" />
	<path d="M31.5,12h-6v-1c0-0.3-0.2-0.7-0.5-0.9s-0.7-0.2-1,0l-4,2c-0.3,0.2-0.6,0.5-0.6,0.9s0.2,0.7,0.6,0.9l4,2
		c0.1,0.1,0.3,0.1,0.4,0.1c0.2,0,0.4-0.1,0.5-0.1c0.3-0.2,0.5-0.5,0.5-0.9v-1h5v11h-5v-2c0-1.1-0.9-2-2-2h-6c-1.1,0-2,0.9-2,2v6
		c0,1.1,0.9,2,2,2h6c1.1,0,2-0.9,2-2v-2h6c0.6,0,1-0.4,1-1V13C32.5,12.4,32.1,12,31.5,12z M17.5,29v-6h6l0,6H17.5z" />
</g>
</symbol><symbol viewBox="0 0 40 40" id="zen-icon-page">
<g>
	<g>
		<path d="M27.9,13.6l-4.7-4.7c-0.3-0.3-0.9-0.1-0.9,0.4V14c0,0.3,0.2,0.5,0.5,0.5h4.7C27.9,14.5,28.2,14,27.9,13.6z" />
	</g>
	<path d="M28,16.5c0-0.3-0.2-0.5-0.5-0.5h-6.4c-0.3,0-0.5-0.2-0.5-0.5l0-6.2c0-0.3-0.2-0.5-0.5-0.5h-5.7c-1.3,0-2.4,1.1-2.4,2.4
		v17.6c0,1.3,1.1,2.4,2.4,2.4h11.2c1.3,0,2.4-1.1,2.4-2.4L28,16.5z M16,19.2h4c0.4,0,0.8,0.3,0.8,0.8s-0.3,0.8-0.8,0.8h-4
		c-0.4,0-0.8-0.3-0.8-0.8S15.6,19.2,16,19.2z M24,28.8h-8c-0.4,0-0.8-0.3-0.8-0.8s0.3-0.8,0.8-0.8h8c0.4,0,0.8,0.3,0.8,0.8
		S24.4,28.8,24,28.8z M24,24.8h-8c-0.4,0-0.8-0.3-0.8-0.8s0.3-0.8,0.8-0.8h8c0.4,0,0.8,0.3,0.8,0.8S24.4,24.8,24,24.8z" />
</g>
</symbol><symbol viewBox="0 0 40 40" id="zen-icon-star-empty">
<path d="M30,17.6c-0.1-0.4-0.4-0.6-0.8-0.7l-5.7-0.8l-2.6-5.2c-0.3-0.7-1.5-0.7-1.8,0l-2.6,5.2l-5.7,0.8c-0.4,0.1-0.7,0.3-0.8,0.7
	c-0.1,0.4,0,0.8,0.3,1l4.2,4.1l-1,5.7c-0.1,0.4,0.1,0.8,0.4,1c0.2,0.1,0.4,0.2,0.6,0.2c0.2,0,0.3,0,0.5-0.1l5.1-2.7l5.1,2.7
	c0.3,0.2,0.7,0.1,1.1-0.1c0.3-0.2,0.5-0.6,0.4-1l-1-5.7l4.2-4C30,18.3,30.1,17.9,30,17.6z M23.8,21.6c-0.2,0.2-0.3,0.6-0.3,0.9
	l0.7,4.2l-3.8-2c-0.3-0.2-0.6-0.2-0.9,0l-3.8,2l0.7-4.2c0.1-0.3-0.1-0.7-0.3-0.9l-3.1-3l4.3-0.6c0.3,0,0.6-0.3,0.8-0.5l1.9-3.9
	l1.9,3.8c0.1,0.3,0.4,0.5,0.8,0.5l4.3,0.6L23.8,21.6z" />
</symbol><symbol viewBox="0 0 40 40" id="zen-icon-settings">
<path d="M30,18.2h-1.5c-0.2-1-0.6-2-1.2-2.9l1.1-1.1c0.4-0.4,0.4-1,0-1.4l-1.2-1.2c-0.4-0.4-1-0.4-1.4,0l-1.1,1.1
	c-0.9-0.6-1.8-1-2.9-1.2V10c0-0.6-0.4-1-1-1h-1.7c-0.6,0-1,0.4-1,1v1.5c-1,0.2-2,0.6-2.9,1.2l-1.1-1.1c-0.4-0.4-1-0.4-1.4,0
	l-1.2,1.2c-0.4,0.4-0.4,1,0,1.4l1.1,1.1c-0.6,0.9-1,1.8-1.2,2.9H10c-0.6,0-1,0.4-1,1v1.7c0,0.6,0.4,1,1,1h1.5c0.2,1,0.6,2,1.2,2.9
	l-1.1,1.1c-0.4,0.4-0.4,1,0,1.4l1.2,1.2c0.4,0.4,1,0.4,1.4,0l1.1-1.1c0.9,0.6,1.8,1,2.9,1.2V30c0,0.6,0.4,1,1,1h1.7c0.6,0,1-0.4,1-1
	v-1.5c1-0.2,2-0.6,2.9-1.2l1.1,1.1c0.4,0.4,1,0.4,1.4,0l1.2-1.2c0.4-0.4,0.4-1,0-1.4l-1.1-1.1c0.6-0.9,1-1.8,1.2-2.9H30
	c0.6,0,1-0.4,1-1v-1.7C31,18.6,30.6,18.2,30,18.2z M20,24.4c-2.4,0-4.4-2-4.4-4.4s2-4.4,4.4-4.4s4.4,2,4.4,4.4S22.4,24.4,20,24.4z" />
</symbol><symbol viewBox="0 0 40 40" id="zen-icon-search">
<path d="M29.7,28.3L26,24.6c1.2-1.5,2-3.5,2-5.6c0-5-4-9-9-9c-5,0-9,4-9,9c0,5,4,9,9,9c2.1,0,4.1-0.7,5.6-2l3.7,3.7
	c0.2,0.2,0.5,0.3,0.7,0.3s0.5-0.1,0.7-0.3C30.1,29.3,30.1,28.7,29.7,28.3z M19,26c-3.9,0-7-3.1-7-7c0-3.9,3.1-7,7-7c3.9,0,7,3.1,7,7
	C26,22.9,22.9,26,19,26z" />
</symbol><symbol viewBox="0 0 40 40" id="zen-icon-star">
<path d="M30,17.6c-0.1-0.4-0.4-0.6-0.8-0.7l-5.7-0.8l-2.6-5.2c-0.3-0.7-1.5-0.7-1.8,0l-2.6,5.2L10.8,17c-0.4,0.1-0.7,0.3-0.8,0.7
	c-0.1,0.4,0,0.8,0.3,1l4.2,4.1l-1,5.7c-0.1,0.4,0.1,0.8,0.4,1c0.3,0.2,0.7,0.3,1.1,0.1l5.1-2.7l5.1,2.7c0.1,0.1,0.3,0.1,0.5,0.1
	c0.2,0,0.4-0.1,0.6-0.2c0.3-0.2,0.5-0.6,0.4-1l-1-5.7l4.2-4.1C30,18.4,30.1,18,30,17.6z" />
</symbol><symbol viewBox="0 0 40 40" id="zen-icon-loading">
<style type="text/css">
	@keyframes rotate {
		from { transform: rotate(0deg); }
		to { transform: rotate(360deg); }
	}
	#zen-icon-loading .st0{fill:none;stroke:#000000;stroke-miterlimit:10;}
	#zen-icon-loading g {
		animation: rotate infinite 2s linear;
		transform-origin: center;
	}
	#zen-icon-loading g.inner {
		animation-direction: reverse;
	}
</style>
<g class="outer">
	<path class="st0" d="M6,20c0-7.7,6.3-14,14-14" />
	<path class="st0" d="M34,20c0,7.7-6.3,14-14,14" />
</g>
<g class="inner">
	<path class="st0" d="M20,29c-5,0-9-4-9-9" />
	<path class="st0" d="M20,11c5,0,9,4,9,9" />
</g>
</symbol><symbol viewBox="0 0 40 40" id="zen-icon-messages">
<style type="text/css">
	#zen-icon-messages .st0{fill-rule:evenodd;clip-rule:evenodd;}
</style>
<g>
	<path class="st0" d="M30,11.4H17c-1.1,0-2,0.9-2,2v2v6c0,1.1,0.9,2,2,2h7l1,1l0,0l2.1,2.1c0.1,0.1,0.2,0.1,0.4,0.1
		c0.3,0,0.5-0.2,0.5-0.5v-2.8h2c1.1,0,2-0.9,2-2v-8C32,12.3,31.1,11.4,30,11.4z" />
	<path class="st0" d="M17,24.9c-1.9,0-3.5-1.6-3.5-3.5v-6H10c-1.1,0-2,0.9-2,2v8c0,1.1,0.9,2,2,2h2v2.8c0,0.4,0.5,0.7,0.9,0.4
		l3.1-3.1h7c0.8,0,1.4-0.5,1.8-1.1l-1.4-1.4H17z" />
</g>
</symbol><symbol viewBox="0 0 40 40" id="zen-icon-tick">
<path d="M29.6,11.2c-0.4-0.3-1-0.3-1.4,0.1l-11,11.4l-5.7-3.6c-0.4-0.3-1-0.2-1.3,0.2c-0.3,0.4-0.3,0.9,0,1.3l6.4,8
	c0.2,0.2,0.5,0.4,0.8,0.4c0,0,0,0,0,0c0.3,0,0.6-0.2,0.8-0.4l11.6-16C30.1,12.2,30,11.6,29.6,11.2z" />
</symbol><symbol viewBox="0 0 40 40" id="zen-icon-user">
<path d="M24.8,22.1C26.2,20.8,27,19,27,17c0-3.9-3.1-7-7-7c-3.9,0-7,3.1-7,7c0,2,0.8,3.8,2.2,5.1C12.8,22.5,11,24.5,11,27v2
	c0,0.6,0.4,1,1,1h16c0.6,0,1-0.4,1-1v-2C29,24.5,27.2,22.5,24.8,22.1z M15,17c0-2.8,2.2-5,5-5s5,2.2,5,5s-2.2,5-5,5S15,19.8,15,17z
	 M27,28H13v-1c0-1.7,1.3-3,3-3h8c1.7,0,3,1.3,3,3V28z" />
</symbol></defs><use id="zen-icon-arrow-right-usage" xlink:href="#zen-icon-arrow-right" class="sprite-symbol-usage" /><use id="zen-icon-arrow-left-usage" xlink:href="#zen-icon-arrow-left" class="sprite-symbol-usage" /><use id="zen-icon-add-usage" xlink:href="#zen-icon-add" class="sprite-symbol-usage" /><use id="zen-icon-arrow-down-usage" xlink:href="#zen-icon-arrow-down" class="sprite-symbol-usage" /><use id="zen-icon-dollar-usage" xlink:href="#zen-icon-dollar" class="sprite-symbol-usage" /><use id="zen-icon-cross-usage" xlink:href="#zen-icon-cross" class="sprite-symbol-usage" /><use id="zen-icon-arrow-up-usage" xlink:href="#zen-icon-arrow-up" class="sprite-symbol-usage" /><use id="zen-icon-lock-usage" xlink:href="#zen-icon-lock" class="sprite-symbol-usage" /><use id="zen-icon-error-usage" xlink:href="#zen-icon-error" class="sprite-symbol-usage" /><use id="zen-icon-mail-usage" xlink:href="#zen-icon-mail" class="sprite-symbol-usage" /><use id="zen-icon-menu-usage" xlink:href="#zen-icon-menu" class="sprite-symbol-usage" /><use id="zen-icon-pin-usage" xlink:href="#zen-icon-pin" class="sprite-symbol-usage" /><use id="zen-icon-remove-usage" xlink:href="#zen-icon-remove" class="sprite-symbol-usage" /><use id="zen-icon-reorganise-usage" xlink:href="#zen-icon-reorganise" class="sprite-symbol-usage" /><use id="zen-icon-page-usage" xlink:href="#zen-icon-page" class="sprite-symbol-usage" /><use id="zen-icon-star-empty-usage" xlink:href="#zen-icon-star-empty" class="sprite-symbol-usage" /><use id="zen-icon-settings-usage" xlink:href="#zen-icon-settings" class="sprite-symbol-usage" /><use id="zen-icon-search-usage" xlink:href="#zen-icon-search" class="sprite-symbol-usage" /><use id="zen-icon-star-usage" xlink:href="#zen-icon-star" class="sprite-symbol-usage" /><use id="zen-icon-loading-usage" xlink:href="#zen-icon-loading" class="sprite-symbol-usage" /><use id="zen-icon-messages-usage" xlink:href="#zen-icon-messages" class="sprite-symbol-usage" /><use id="zen-icon-tick-usage" xlink:href="#zen-icon-tick" class="sprite-symbol-usage" /><use id="zen-icon-user-usage" xlink:href="#zen-icon-user" class="sprite-symbol-usage" /></svg>